<svg width="347" height="400" viewBox="0 0 347 400" fill="none" xmlns="http://www.w3.org/2000/svg">
<g opacity="0.08">
<mask id="mask0_130_24090" style="mask-type:luminance" maskUnits="userSpaceOnUse" x="-251" y="-18" width="848" height="437">
<path d="M-251 -17.7788L597 -17.7788V419H-251V-17.7788Z" fill="white"/>
</mask>
<g mask="url(#mask0_130_24090)">
<path d="M216.846 283.177C207.926 275.063 198.565 267.072 188.762 259.203C133.524 214.969 80.2992 196.708 25.9915 203.395C-21.0531 209.182 -61.6819 232.693 -97.526 253.457C-121.456 267.305 -144.035 280.385 -164.875 285.869C-234.181 304.121 -262.239 296.68 -279.002 292.234C-288.711 289.658 -295.121 287.959 -303.41 293.185C-311.533 298.311 -297.873 326.745 -260.404 382.681C-244.203 406.876 -221.177 419.709 -202.675 430.02C-193.412 435.186 -185.391 439.665 -180.064 444.542C-165.379 458.004 -163.391 462.835 -159.039 473.413C-155.402 482.24 -149.91 495.573 -133.663 521.587C-119.385 544.445 -88.1031 575.02 -52.0296 601.378C-31.5018 616.378 -10.1839 629.574 11.3442 640.596C35.4336 652.937 59.2489 662.252 82.1149 668.287C124.477 679.461 162.908 679.287 196.337 667.763C229.269 656.41 257.194 639.54 279.334 617.619C301.321 595.848 316.49 570.211 324.416 541.419C335.954 499.505 331.112 452.818 310.4 406.389C299.365 381.648 283.832 356.92 264.228 332.904C250.029 315.567 234.198 298.953 216.846 283.177ZM-241.641 402.334C-248.466 396.108 -254.314 389.356 -259.079 382.204C-276.122 356.764 -288.004 337.373 -295.395 322.915C-306.086 302.068 -305.117 295.665 -302.403 293.98C-294.758 289.166 -289.336 290.609 -279.467 293.227C-262.513 297.718 -234.143 305.246 -164.327 286.861C-143.303 281.317 -120.583 268.186 -96.5639 254.279C-60.8536 233.612 -20.3841 210.188 26.2845 204.452C80.0316 197.838 132.836 215.984 187.71 259.928C217.069 283.435 242.407 308.153 263.024 333.441C282.57 357.398 298.065 382.052 309.062 406.725C329.641 452.952 334.47 499.459 322.983 541.171C315.095 569.812 300.015 595.307 278.149 616.953C256.156 638.727 228.416 655.486 195.706 666.762C162.653 678.161 124.604 678.322 82.631 667.249C59.886 661.25 36.1853 651.978 12.1979 639.692C-9.25372 628.701 -30.4887 615.547 -50.9784 600.593C-86.9371 574.317 -118.105 543.858 -132.312 521.109C-148.521 495.16 -153.974 481.868 -157.619 473.073C-162.034 462.358 -164.047 457.457 -178.905 443.849L-178.981 443.775C-184.435 438.801 -192.475 434.323 -201.777 429.138C-214.175 422.248 -228.625 414.197 -241.641 402.334Z" fill="url(#paint0_linear_130_24090)"/>
<path d="M200.351 299.289C193.16 292.73 185.634 286.257 177.772 279.87C128.427 239.605 80.6882 222.336 31.8724 227.052C-10.5658 231.163 -47.7223 251.243 -80.5019 268.958C-103.336 281.294 -124.902 292.951 -145.029 297.433C-208.855 312.387 -236.047 305.406 -252.294 301.231C-262.118 298.71 -268.604 297.047 -276.74 302.04C-281.403 304.795 -280.384 314.179 -273.694 329.904C-267.673 344.055 -257.295 362.78 -243.673 384.063C-229.568 406.348 -209.269 418.441 -192.94 428.154C-185.052 432.848 -178.242 436.908 -173.393 441.318C-157.994 455.275 -155.726 459.625 -148.966 472.494C-144.43 481.142 -138.212 492.991 -124.947 513.783C-111.364 535.089 -82.1393 563.583 -48.6716 588.155C-29.5263 602.209 -9.70569 614.559 10.2615 624.866C32.6561 636.43 54.7512 645.148 75.9225 650.778C114.149 660.929 148.815 660.97 179.027 650.889C209.385 640.697 235.208 625.435 255.767 605.53C276.2 585.753 290.388 562.412 297.944 536.178C308.864 498.241 304.953 455.918 286.68 413.788C276.932 391.324 263.107 368.852 245.554 346.99C232.099 330.326 216.992 314.384 200.351 299.289ZM-224.828 404.52C-231.846 398.116 -237.761 391.122 -242.444 383.691C-271.254 338.681 -284.066 307.694 -275.88 302.857C-268.336 298.232 -262.5 299.734 -252.784 302.228C-236.372 306.44 -208.906 313.494 -144.634 298.434C-124.291 293.887 -102.629 282.185 -79.6991 269.789C-47.0533 252.148 -10.0497 232.155 32.0317 228.077C80.3823 223.387 127.72 240.546 176.733 280.541C203.142 301.998 225.887 324.535 244.331 347.527C261.82 369.325 275.62 391.729 285.336 414.123C303.557 456.093 307.444 498.241 296.568 536.013C289.05 562.123 274.944 585.33 254.633 604.992C234.207 624.76 208.57 639.916 178.415 650.021C148.547 659.987 114.213 659.937 76.3685 649.878C48.3992 642.442 4.17068 625.587 -47.7159 587.494C-81.0753 563 -110.204 534.612 -123.724 513.407C-136.969 492.642 -143.175 480.798 -147.705 472.181C-154.337 459.551 -156.828 454.82 -172.342 440.734C-177.28 436.242 -184.148 432.155 -192.093 427.415C-202.274 421.362 -214.048 414.362 -224.828 404.52Z" fill="url(#paint1_linear_130_24090)"/>
<path d="M184.149 315.599C178.593 310.537 172.804 305.516 166.781 300.534C123.279 264.223 81.0253 247.96 37.6123 250.821C-0.226013 253.32 -33.8911 270.001 -63.5934 284.716C-85.2936 295.473 -105.79 305.628 -125.209 309.1C-183.505 320.802 -209.786 314.262 -225.491 310.354C-235.487 307.869 -242.056 306.22 -250.109 310.997C-261.335 317.252 -245.993 354.032 -226.982 385.548C-214.921 406.045 -197.247 417.44 -183.021 426.594C-176.579 430.727 -171.017 434.333 -166.736 438.191C-149.126 453.985 -146.947 457.481 -134.88 476.881C-130.325 484.188 -124.686 493.282 -116.283 506.087C-107.726 519.181 -92.7096 535.481 -74.0103 551.951C-52.9536 570.497 -29.0682 587.646 -4.9343 601.553C23.6339 618 51.5141 629.409 77.9416 635.458C108.733 642.508 136.9 642.057 161.678 634.126C189.45 625.087 213.169 611.442 232.155 593.53C251.046 575.76 264.253 554.716 271.433 530.998C281.729 497.034 278.779 459.079 262.896 421.229C247.624 384.822 221.171 349.361 184.149 315.599ZM-207.817 407.102C-215.164 400.416 -221.216 393.041 -225.809 385.18C-248.452 347.643 -258.34 316.747 -249.319 311.722C-241.845 307.276 -235.857 308.769 -225.93 311.236C-210.085 315.176 -183.562 321.776 -124.903 310C-105.267 306.491 -84.6756 296.29 -62.8799 285.488C-33.3113 270.832 0.194489 254.225 37.7142 251.749C80.694 248.915 122.597 265.068 165.806 301.145C211.901 339.266 244.171 379.756 261.673 421.505C277.492 459.198 280.43 496.993 270.178 530.814C263.03 554.399 249.893 575.319 231.13 592.997C212.271 610.766 188.723 624.32 161.136 633.281C136.665 641.121 108.797 641.548 78.3112 634.58C52.0302 628.564 24.2902 617.21 -4.1506 600.832C-28.2208 586.976 -52.0362 569.876 -73.0291 551.381C-91.6711 534.957 -106.624 518.735 -115.136 505.705C-123.508 492.91 -129.153 483.821 -133.727 476.518C-145.877 457.026 -148.069 453.517 -165.78 437.626C-170.119 433.699 -175.719 430.08 -182.192 425.891C-190.182 420.756 -199.267 414.896 -207.817 407.102Z" fill="url(#paint2_linear_130_24090)"/>
<path d="M167.66 331.618C163.838 328.121 159.881 324.647 155.791 321.197C118.08 288.803 81.2483 273.573 43.2126 274.648C9.94246 275.59 -18.9125 288.358 -46.8181 300.699C-67.3268 309.77 -86.6888 318.335 -105.433 320.723C-158.09 329.239 -182.428 323.36 -198.534 319.465C-209.161 316.902 -215.577 315.332 -223.509 319.924C-233.99 325.436 -228.211 354.89 -210.321 386.98C-200.242 405.93 -185.04 416.714 -172.82 425.38C-168.15 428.697 -163.735 431.81 -160.161 435.025L-158.339 436.638C-137.422 455.133 -135.721 456.644 -107.637 498.347C-99.7623 510.072 -85.6694 525.279 -68.9833 540.064C-49.7935 557.057 -28.1379 572.833 -6.3613 585.643C19.5183 600.864 44.7353 611.533 68.6016 617.333C96.4372 624.117 121.903 624.103 144.297 617.292C169.527 609.429 191.144 597.391 208.569 581.509C225.899 565.715 238.151 546.962 244.98 525.775C254.645 495.789 252.626 462.197 239.145 428.637C225.759 395.27 201.733 362.679 167.66 331.618ZM-190.475 410.385C-198.368 403.22 -204.684 395.222 -209.2 386.672C-226.599 355.441 -232.69 325.794 -222.776 320.6C-215.341 316.324 -209.155 317.816 -198.917 320.292C-183.67 323.966 -158.141 330.134 -105.197 321.573C-86.281 319.162 -66.8235 310.55 -46.2192 301.438C-18.441 289.152 10.2802 276.449 43.2381 275.516C80.8788 274.455 117.392 289.579 154.848 321.757C195.171 355.831 223.147 391.876 238.017 428.889C251.441 462.307 253.454 495.743 243.834 525.592C237.042 546.65 224.867 565.287 207.646 580.981C190.354 596.744 168.858 608.685 143.851 616.493C121.743 623.217 96.5582 623.226 69.0094 616.493C45.2832 610.711 20.1936 600.092 -5.57129 584.94C-27.2905 572.168 -48.8951 556.465 -68.0085 539.471C-84.6372 524.737 -98.6728 509.59 -106.509 497.924C-134.651 456.13 -136.365 454.609 -157.364 436.04L-159.18 434.433C-162.798 431.218 -167.233 428.063 -171.922 424.728C-177.732 420.668 -184.193 416.089 -190.475 410.385Z" fill="url(#paint3_linear_130_24090)"/>
<path d="M151.216 347.573C149.122 345.663 146.984 343.76 144.801 341.864C73.0996 277.946 18.2122 298.692 -30.2086 316.985C-49.4367 324.251 -67.5945 331.112 -85.5802 332.352C-132.472 337.767 -155.797 332.27 -171.228 328.632C-182.275 326.028 -188.939 324.457 -196.84 328.821C-202.051 331.388 -204.835 339.081 -204.485 349.92C-204.096 361.402 -200.229 375.098 -193.603 388.426C-185.378 406.371 -172.827 416.319 -161.747 425.096C-158.81 427.424 -156.013 429.624 -153.465 431.856C-149.642 435.2 -146.195 438.061 -143.169 440.583C-129.153 452.244 -120.743 459.285 -98.9087 490.599C-85.0068 510.587 -50.5389 543.876 -7.6929 569.729C15.4917 583.728 38.0519 593.653 59.3443 599.228C84.23 605.75 106.994 606.173 127.006 600.482C149.646 593.804 169.611 583.152 185.085 569.494C200.879 555.684 212.169 539.223 218.642 520.567C227.67 494.544 226.581 465.315 215.457 436.059C203.957 405.682 182.358 375.966 151.216 347.573ZM-172.591 414.835C-181.425 406.889 -188.184 397.852 -192.539 388.165C-206.772 359.528 -205.918 334.254 -196.19 329.473C-188.729 325.339 -182.269 326.873 -171.572 329.395C-156.039 333.069 -132.561 338.58 -85.4401 333.152C-67.2696 331.898 -49.0162 324.999 -29.6925 317.697C-5.16357 308.428 20.1936 298.866 48.628 299.376C80.9807 299.978 112.155 314.041 143.94 342.369C178.415 372.393 202.147 403.982 214.38 436.261C225.427 465.402 226.485 494.489 217.565 520.374C211.131 538.915 199.911 555.28 184.225 568.985C168.874 582.546 149.062 593.124 126.592 599.757C100.878 607.041 56.8532 607.656 -6.98572 569.118C-49.7107 543.334 -84.0766 510.155 -97.9148 490.24C-119.819 458.839 -128.292 451.771 -142.334 440.059C-145.354 437.538 -148.782 434.681 -152.611 431.333C-155.16 429.087 -157.95 426.878 -160.894 424.54C-164.71 421.545 -168.686 418.399 -172.591 414.835Z" fill="url(#paint4_linear_130_24090)"/>
<path d="M131.561 360.442C105.937 337.083 80.4903 324.691 53.8334 322.597C29.623 320.691 7.48328 327.277 -13.9047 333.647C-31.7439 338.957 -48.5701 343.967 -65.7786 343.986C-106.688 346.443 -128.853 341.294 -143.507 337.891C-155.204 335.172 -162.263 333.533 -170.214 337.735C-181.44 342.939 -186.703 366.344 -176.911 389.864C-170.214 408.506 -158.976 418.22 -148.1 427.621L-146.864 428.687C-141.595 433.197 -136.83 436.775 -132.211 440.233C-119.851 449.506 -108.172 458.265 -90.2629 482.864C-77.253 500.804 -46.302 530.666 -9.11993 553.833C22.2261 573.357 68.2704 594.383 109.626 583.686C149.878 572.663 180.008 547.742 192.304 515.358C200.676 493.313 200.485 468.433 191.762 443.444C182.206 416.126 163.092 389.221 134.811 363.455L133.804 362.536C133.065 361.824 132.313 361.131 131.561 360.442ZM-153.764 421.453C-162.372 413.609 -170.584 404.46 -175.904 389.662C-186.372 364.52 -179.3 342.815 -169.616 338.346C-162.059 334.355 -155.185 335.948 -143.8 338.594C-129.057 342.016 -106.783 347.192 -65.7085 344.721C-48.3408 344.721 -31.4126 339.669 -13.4651 334.332C7.8082 327.994 29.8014 321.444 53.7697 323.309C80.8916 325.44 106.809 338.41 133.033 362.959L134.04 363.877C162.188 389.584 181.282 416.392 190.781 443.614C199.465 468.475 199.65 493.216 191.323 515.147C185.238 531.181 174.968 545.258 160.792 556.997C146.88 568.603 129.177 577.527 109.281 582.965C68.4042 593.551 22.7039 572.654 -8.43826 553.258C-45.5247 530.156 -76.3738 500.386 -89.3519 482.506C-107.331 457.815 -119.054 449.019 -131.472 439.71C-136.072 436.256 -140.824 432.692 -146.074 428.2L-147.31 427.135C-149.451 425.284 -151.611 423.41 -153.764 421.453Z" fill="url(#paint5_linear_130_24090)"/>
<path d="M116.207 376.851C97.4629 359.762 78.5788 349.882 58.6881 346.713C38.7974 343.544 20.1108 347.223 1.95302 350.76C-13.5607 353.782 -29.6033 356.909 -45.9262 355.619C-80.4833 355.357 -101.221 350.525 -114.938 347.329C-127.681 344.357 -135.409 342.561 -143.558 346.654C-154.389 351.37 -166.277 371.115 -160.186 391.291C-156.963 406.117 -150.974 416.354 -140.206 425.517C-134.428 430.349 -128.738 434.133 -122.699 438.138C-109.956 446.603 -96.7552 455.357 -81.5664 475.12C-69.3529 491.094 -41.8996 517.562 -10.4962 537.922C16.7213 555.563 56.643 574.904 92.2895 566.857C127.598 558.163 154.51 537.463 166.138 510.113C173.834 492.008 174.528 471.496 168.151 450.792C161.098 427.892 145.852 405.153 122.826 383.194C120.622 380.98 118.415 378.866 116.207 376.851ZM-141.366 423.432C-150.853 414.784 -156.255 404.992 -159.256 391.167C-165.271 371.257 -153.662 351.843 -143.042 347.219C-135.25 343.305 -128.133 344.963 -115.219 347.972C-101.444 351.187 -80.6299 356.032 -45.9772 356.294C-29.5205 357.594 -13.3951 354.457 2.20146 351.412C20.2509 347.894 38.9121 344.256 58.4906 347.375C80.4902 350.874 101.286 362.724 122.081 383.594C145.017 405.479 160.219 428.144 167.246 450.939C173.585 471.528 172.897 491.92 165.252 509.915C153.714 537.073 127.025 557.593 91.9837 566.214C56.764 574.169 17.1482 554.948 -9.88458 537.426C-41.2115 517.121 -68.5884 490.726 -80.7701 474.798C-96.0608 454.939 -109.268 446.148 -122.081 437.647C-128.095 433.656 -133.778 429.885 -139.512 425.081C-140.141 424.536 -140.759 423.986 -141.366 423.432Z" fill="url(#paint6_linear_130_24090)"/>
<path d="M100.942 392.821C70.7493 365.291 44.4619 366.779 16.7984 368.341C3.15775 369.113 -10.9544 369.907 -26.105 367.266C-53.5965 364.736 -71.6077 360.377 -84.7641 357.194C-99.9402 353.52 -108.293 351.504 -116.913 355.578C-122.953 358.049 -129.942 363.528 -135.134 369.866C-141.41 377.531 -144.373 385.647 -143.481 392.72C-143.481 404.836 -142.761 414.724 -133.561 422.362C-127.699 427.143 -120.882 431.13 -113.67 435.355C-100.647 442.979 -85.8854 451.618 -72.8947 467.395C-63.9368 478.339 -41.0007 502.163 -11.8973 522.049C3.24692 532.383 17.805 540.086 31.3756 544.936C47.4118 550.663 62.059 552.39 74.9287 550.07C105.383 543.755 129.16 527.295 140.176 504.909C147.184 490.74 148.688 474.573 144.635 458.154C140.131 439.966 129.096 421.71 111.843 403.844C108.148 399.742 104.51 396.073 100.942 392.821ZM-133.911 421.094C-141.983 413.746 -142.64 404.243 -142.633 392.683C-144.672 376.512 -126.705 360.267 -116.473 356.087C-108.191 352.165 -99.953 354.154 -85.0317 357.764C-71.8434 360.979 -53.8131 365.324 -26.2579 367.868C-11.0181 370.523 3.15773 369.705 16.8621 368.947C32.4905 368.065 47.2525 367.234 62.6133 371.427C79.9173 376.158 95.3355 386.584 111.142 404.211C128.344 421.995 139.316 440.173 143.794 458.241C147.84 474.56 146.343 490.616 139.392 504.689C128.466 526.886 104.892 543.204 74.7249 549.464C62.0718 551.761 47.6156 550.034 31.7642 544.371C18.2701 539.548 3.7821 531.883 -11.2984 521.586C-40.3317 501.768 -63.2169 478 -72.1557 467.082C-85.2292 451.214 -100.055 442.534 -113.135 434.882C-120.322 430.675 -127.107 426.702 -132.924 421.958C-133.268 421.668 -133.593 421.384 -133.911 421.094Z" fill="url(#paint7_linear_130_24090)"/>
<path d="M85.9893 407.853C67.7551 391.223 50.1707 388.761 29.0886 385.808C18.0856 384.265 6.70042 382.671 -6.29034 378.919C-25.0661 375.152 -39.1464 371.363 -50.4552 368.318C-69.868 363.096 -80.5588 360.221 -90.2684 364.497C-101.577 368.842 -124.673 382.409 -126.762 394.107L-127.68 396.482C-130.91 404.749 -134.242 413.305 -126.922 419.198C-121.188 423.749 -113.128 427.897 -104.623 432.287C-90.861 439.392 -75.2645 447.444 -64.2041 459.661C-52.2901 472.897 9.58015 538.726 57.5868 533.229C83.3453 529.371 104.147 517.154 114.679 499.701C120.961 489.289 123.197 477.756 121.324 465.429C119.285 452 112.404 438.244 100.86 424.553C96.5876 418.685 91.6119 413.097 85.9893 407.853ZM-126.992 418.275C-133.197 412.616 -130.024 404.496 -126.954 396.615L-126.023 394.222V394.185C-123.985 382.703 -101.119 369.264 -89.9117 364.956C-80.4888 360.823 -69.919 363.657 -50.7355 368.819C-39.4076 371.864 -25.3146 375.658 -6.54521 379.419C6.47742 383.19 17.8881 384.793 28.9293 386.341C55.4524 390.065 76.4262 393 100.203 424.806C111.671 438.446 118.546 452.128 120.591 465.48C122.445 477.71 120.228 489.147 114.003 499.467C103.574 516.759 82.9694 528.861 57.4721 532.682C38.3586 534.873 14.7153 525.793 -12.7125 505.722C-36.8528 488.049 -56.3039 467.4 -63.5479 459.335C-74.6783 447.035 -90.3067 438.952 -104.151 431.814C-112.625 427.442 -120.627 423.313 -126.336 418.803C-126.578 418.637 -126.762 418.458 -126.992 418.275Z" fill="url(#paint8_linear_130_24090)"/>
<path d="M71.6853 420.038C60.9053 410.205 47.8509 404.822 29.8078 397.386C24.7109 395.269 19.3782 393.083 13.5104 390.552C8.91039 388.963 4.59074 387.466 0.564178 386.056C-34.6619 373.793 -50.7363 368.194 -63.6315 373.398C-73.5196 376.962 -103.623 387.819 -109.994 395.471C-118.277 402.36 -126.923 410.884 -120.277 416.015C-114.671 420.254 -105.146 424.594 -95.0668 429.187C-80.8464 435.667 -64.7337 443.011 -55.5147 451.903C-53.769 453.602 -51.692 455.655 -49.3538 458.039C-39.6505 467.785 -24.9841 482.514 -8.95432 494.681C10.2165 509.231 26.7624 516.543 40.2183 516.405C61.294 515.247 79.9424 507.141 90.1235 494.727C101.419 480.948 101.33 463.376 89.8813 445.211C84.262 434.037 78.3878 426.174 71.6853 420.038ZM-120.258 415.298C-125.642 410.388 -117.366 402.314 -109.466 395.769V395.737C-103.228 388.205 -73.2137 377.366 -63.3512 373.825C-50.749 368.736 -34.7702 374.284 0.239281 386.492C4.29134 387.903 8.60034 389.398 13.1663 390.974C19.0087 393.501 24.3095 395.687 29.4446 397.804C58.6372 409.814 74.7053 416.451 89.2634 445.4C100.629 463.431 100.731 480.861 89.5501 494.488C79.4773 506.764 61.0264 514.784 40.1609 515.909C26.9216 516.037 10.5414 508.781 -8.49558 494.322C-24.4935 482.184 -39.1408 467.468 -48.8377 457.731C-51.2078 455.352 -53.2529 453.295 -55.005 451.595C-64.2941 442.626 -80.4896 435.259 -94.7291 428.76C-104.776 424.167 -114.263 419.859 -119.812 415.661C-119.952 415.56 -120.112 415.427 -120.258 415.298Z" fill="url(#paint9_linear_130_24090)"/>
<path d="M56.6816 419.317C50.406 413.599 42.6651 407.927 33.3059 402.2C-1.67809 383.075 -22.6965 377.132 -36.9933 382.317C-43.6831 384.577 -57.5658 387.948 -69.8175 390.915C-79.5208 393.271 -88.6825 395.508 -93.1678 396.886C-97.2581 397.804 -102.24 399.784 -106.464 402.154C-111.09 404.744 -114.046 407.357 -114.785 409.502C-115.032 410.082 -115.055 410.699 -114.852 411.287C-114.649 411.876 -114.227 412.413 -113.632 412.841C-108.127 416.782 -96.4298 421.471 -84.0634 426.436C-69.3588 432.338 -54.119 438.437 -46.8241 444.169C-42.8485 447.292 -37.4967 452.767 -31.2975 459.105C-15.9112 474.835 5.17091 496.385 22.8572 499.577C39.8746 501.763 57.1467 498.488 67.9522 491.02C77.0311 484.751 80.8283 476.071 78.9297 465.921C78.6111 453.304 75.5339 443.016 69.2328 433.569C65.7955 428.497 61.5859 423.717 56.6816 419.317ZM-113.549 412.286C-113.949 411.911 -114.219 411.473 -114.337 411.008C-114.454 410.543 -114.416 410.065 -114.224 409.612C-112.746 405.222 -101.278 399.159 -92.9958 397.276C-88.536 395.898 -79.3551 393.662 -69.6646 391.305C-57.4001 388.329 -43.4983 384.958 -36.7704 382.685C-22.6965 377.577 -1.86285 383.507 32.9109 402.517C49.8772 412.906 61.581 423.125 68.653 433.748C74.9158 443.14 77.9804 453.373 78.2925 465.953C80.1657 475.988 76.4322 484.545 67.4935 490.722C56.8218 498.07 39.7408 501.331 22.8954 499.168C5.46398 496.018 -15.5417 474.546 -30.8834 458.866C-37.0316 452.528 -42.3961 447.017 -46.3972 443.893C-53.7877 438.116 -69.0339 431.998 -83.7767 426.082C-96.1176 421.131 -107.777 416.437 -113.224 412.556C-113.339 412.471 -113.448 412.38 -113.549 412.286Z" fill="url(#paint10_linear_130_24090)"/>
<path d="M55.4516 415.964C54.6679 415.248 53.8651 414.545 53.0433 413.847C39.6638 402.502 26.8833 395.016 15.0266 391.645C5.71199 388.981 -2.81261 388.843 -10.3879 391.236C-22.7479 395.149 -62.23 399.416 -76.3867 398.364C-81.6684 397.974 -88.5874 398.984 -95.3727 401.12C-101.514 403.067 -106.261 405.575 -107.478 407.509C-107.753 407.853 -107.859 408.254 -107.777 408.647C-107.694 409.04 -107.43 409.402 -107.026 409.672C-101.209 413.53 -84.2677 419.441 -67.8875 425.154C-55.1898 429.586 -43.1929 433.775 -38.1534 436.43C-32.4193 439.447 -25.3091 448.468 -17.7657 458.016C-9.99287 467.854 -1.94614 478.027 5.38068 482.712C13.0261 487.612 24.8828 491.438 36.2744 492.678C49.5838 494.134 60.7778 492.012 67.7925 486.708C75.9985 480.493 79.8021 468.828 77.9863 455.499C76.075 441.418 68.111 427.474 55.4516 415.964ZM-106.924 409.24C-107.153 409.015 -107.286 408.745 -107.304 408.466C-107.322 408.186 -107.225 407.909 -107.026 407.669C-104.681 403.922 -88.0459 397.859 -76.444 398.718C-62.2299 399.77 -22.6078 395.503 -10.184 391.558C-2.75527 389.206 5.66741 389.349 14.8482 391.971C26.6349 395.342 39.3581 402.778 52.6738 414.076C66.6329 425.912 75.4442 440.646 77.5212 455.55C79.3179 468.58 75.4697 480.429 67.4803 486.473C60.5803 491.7 49.5392 493.781 36.3955 492.343C25.0931 491.107 13.351 487.318 5.75022 482.459C-1.51926 477.816 -9.54053 467.67 -17.2942 457.855C-24.8759 448.27 -32.0307 439.218 -37.8284 436.159C-42.9253 433.486 -54.9158 429.27 -67.639 424.851C-83.981 419.147 -100.89 413.25 -106.656 409.424C-106.741 409.367 -106.82 409.306 -106.892 409.24H-106.924Z" fill="url(#paint11_linear_130_24090)"/>
<path d="M-38.567 -337.481C-46.7646 -344.952 -54.9006 -352.013 -62.9749 -358.664C-107.229 -395.112 -147.278 -417.392 -182.02 -424.879C-217.558 -432.539 -246.668 -424.359 -268.546 -400.573C-334.959 -328.355 -367.739 -275.951 -389.433 -241.28C-399.193 -225.664 -406.902 -213.346 -414.28 -204.836C-426.525 -190.681 -428.392 -158.765 -419.154 -121.54C-409.209 -81.486 -388.834 -44.1371 -363.241 -19.0786C-327.945 15.4871 -301.294 59.7024 -285.15 90.6902C-266.342 126.808 -250.745 166.472 -243.463 196.762C-238.755 216.323 -223.713 230.542 -200.018 237.872C-158.969 250.571 -97.2453 241.041 -38.9366 213.002C-11.2985 199.71 17.2824 185.969 43.5953 171.547C72.6796 155.601 95.775 140.513 114.188 125.417C136.174 107.394 152.255 88.8898 163.341 68.8513C175.727 46.475 181.671 22.6933 181.512 -3.85789C181.238 -49.2029 129.153 -145.175 54.8595 -237.243C24.4755 -274.89 -7.3994 -309.061 -38.567 -337.481ZM-226.936 221.967C-234.512 215.055 -239.609 206.531 -241.998 196.601C-249.312 166.238 -264.934 126.514 -283.761 90.3366C-299.937 59.2707 -326.651 14.959 -362.043 -19.7032C-387.528 -44.6377 -407.788 -81.8213 -417.695 -121.724C-426.869 -158.696 -425.079 -190.327 -413.019 -204.271C-405.603 -212.841 -397.874 -225.196 -388.088 -240.839C-366.426 -275.483 -333.672 -327.837 -267.317 -399.985C-245.84 -423.335 -217.284 -431.368 -182.44 -423.868C-147.972 -416.437 -108.153 -394.267 -64.0771 -357.97C-25.4297 -326.142 15.2628 -284.209 53.598 -236.719C127.777 -144.798 179.747 -49.0422 180.053 -3.86249C180.212 22.5509 174.318 46.1994 161.99 68.4471C150.962 88.3708 134.97 106.774 113.092 124.709C72.0552 158.375 15.2246 185.684 -39.7393 212.134C-97.6339 239.976 -158.829 249.469 -199.426 236.935C-210.196 233.693 -219.658 228.545 -226.936 221.967Z" fill="url(#paint12_linear_130_24090)"/>
<path d="M-52.9281 -321.778C-59.4054 -327.688 -65.8424 -333.311 -72.2391 -338.648C-112.53 -372.249 -148.999 -392.843 -180.638 -399.843C-212.621 -406.92 -238.87 -399.779 -258.653 -378.606C-319.051 -314.986 -351.633 -265.929 -373.199 -233.472C-383.317 -218.233 -391.313 -206.195 -398.818 -197.648C-410.923 -183.791 -413.471 -153.736 -405.463 -119.207C-396.881 -82.239 -378.245 -47.3059 -354.341 -23.368C-321.994 8.63487 -297.166 49.1988 -282.035 77.5871C-264.259 110.94 -249.771 146.204 -242.291 174.335C-237.564 192.082 -223.477 204.965 -201.561 211.583C-163.512 223.065 -106.732 214.288 -53.3804 188.665C-3.01013 164.557 49.0804 139.581 87.473 108.028C107.695 91.407 122.514 74.3446 132.772 55.863C144.24 35.2504 149.776 13.3517 149.77 -11.0776C149.942 -53.0193 102.77 -141.679 35.0893 -226.688C6.48288 -262.577 -23.5826 -295.02 -52.9281 -321.778ZM-227.224 196.592C-233.977 190.438 -238.609 182.905 -240.934 174.174C-248.427 145.988 -262.94 110.665 -280.741 77.2656C-295.905 48.8176 -320.784 8.17099 -353.219 -23.9192C-377.003 -47.733 -395.549 -82.51 -404.1 -119.335C-412.063 -153.63 -409.591 -183.419 -397.652 -197.078C-390.102 -205.699 -382.094 -217.746 -371.951 -233.026C-350.41 -265.461 -317.853 -314.476 -257.506 -378.041C-238.099 -398.805 -212.379 -405.813 -181.052 -398.878C-149.725 -391.943 -113.416 -371.445 -73.2966 -337.986C-38.045 -308.592 -0.996826 -269.921 33.8406 -226.183C101.451 -141.312 148.521 -52.854 148.375 -11.0684C148.375 13.2323 142.857 35.0069 131.472 55.5048C121.278 73.8761 106.535 90.8696 86.4217 107.404C48.1629 138.837 -3.84474 163.753 -54.1322 187.861C-107.108 213.305 -163.391 222.055 -201.013 210.692C-211.723 207.459 -220.521 202.705 -227.224 196.592Z" fill="url(#paint13_linear_130_24090)"/>
<path d="M-67.1866 -306.048C-71.9904 -310.426 -76.7624 -314.624 -81.5025 -318.641C-117.818 -349.413 -150.712 -368.304 -179.255 -374.821C-207.683 -381.315 -231.072 -375.198 -248.752 -356.642C-303.543 -301.207 -334.647 -257.18 -357.367 -225.03C-367.675 -210.443 -375.843 -198.92 -383.368 -190.405C-395.543 -176.626 -398.658 -149.129 -391.784 -116.823C-384.546 -82.9324 -367.656 -50.4151 -345.446 -27.607C-292.165 25.7525 -253.868 108.984 -241.125 151.945C-236.385 167.887 -223.235 179.433 -203.102 185.34C-168.061 195.614 -116.225 187.577 -67.8364 164.364C-24.2514 143.559 25.1441 119.975 60.7461 90.6126C79.2224 75.3965 92.7547 59.7763 102.159 42.8471C112.696 24.0164 117.889 3.99628 118.016 -18.3111C118.329 -37.647 108.326 -67.2432 89.1041 -103.899C70.6277 -139.112 44.4041 -178.982 15.2434 -216.166C-11.4772 -250.236 -39.7014 -280.985 -67.1866 -306.048ZM-227.548 171.217C-233.467 165.82 -237.621 159.275 -239.864 151.748C-252.606 108.736 -290.999 25.3254 -344.395 -28.1444C-366.484 -50.833 -383.297 -83.2079 -390.51 -116.961C-397.365 -149.051 -394.288 -176.318 -382.278 -189.904C-374.696 -198.456 -366.541 -209.998 -356.214 -224.608C-333.513 -256.73 -302.416 -300.72 -247.694 -356.11C-230.364 -374.293 -207.467 -380.286 -179.644 -373.934C-151.337 -367.472 -118.653 -348.674 -82.4901 -318.04C-50.6343 -291.052 -17.224 -255.687 14.1157 -215.73C43.2445 -178.587 69.4427 -138.763 87.8935 -103.591C107.058 -67.0227 117.029 -37.5276 116.723 -18.3203C116.583 3.87227 111.435 23.773 100.986 42.521C91.6079 59.3445 78.1266 74.8775 59.7713 90.0109C24.284 119.267 -25.0351 142.829 -68.55 163.588C-116.595 186.63 -167.94 194.636 -202.618 184.476C-212.391 181.701 -220.986 177.129 -227.548 171.217Z" fill="url(#paint14_linear_130_24090)"/>
<path d="M-81.3302 -290.29C-84.4902 -293.168 -87.6355 -295.959 -90.7659 -298.663C-123.125 -326.583 -152.426 -343.797 -177.866 -349.827C-202.713 -355.724 -223.267 -350.626 -238.857 -334.671C-288.552 -286.905 -319.605 -245.703 -342.299 -215.606C-352.072 -202.636 -360.52 -191.439 -367.924 -183.185C-379.972 -169.705 -383.781 -144.013 -378.118 -114.458C-372.199 -83.6355 -357.055 -53.5341 -336.565 -31.8651C-315.642 -10.6048 -294.643 18.1969 -275.835 51.4352C-260.735 78.115 -247.662 106.581 -239.972 129.513C-235.219 143.655 -222.999 153.855 -204.631 159.055C-172.597 168.102 -125.718 160.809 -82.305 140.022C-36.6111 118.312 3.70557 98.2959 34.0068 73.2007C50.6928 59.3946 62.9891 45.2165 71.5965 29.8489C81.1533 12.7497 85.9635 -5.37819 86.2502 -25.5637C86.7854 -43.3012 78.0696 -70.3209 61.0395 -103.692C44.7549 -135.617 21.4492 -171.836 -4.58331 -205.653C-29.3862 -237.923 -55.7372 -266.954 -81.3302 -290.29ZM-227.924 145.836C-233.17 140.959 -236.879 135.317 -238.793 129.302C-246.502 106.31 -259.595 77.7981 -274.714 51.077C-293.553 17.7789 -314.597 -11.0825 -335.565 -32.3887C-355.952 -53.9428 -371.026 -83.9111 -376.913 -114.6C-382.552 -143.958 -378.825 -169.43 -366.911 -182.735C-359.482 -191.002 -351.027 -202.232 -341.241 -215.216C-318.566 -245.29 -287.513 -286.474 -237.882 -334.17C-222.591 -349.786 -202.56 -354.774 -178.242 -349.005C-153.018 -343.034 -123.902 -325.903 -91.6897 -298.112C-63.2297 -273.554 -33.4701 -241.441 -5.6218 -205.24C20.3789 -171.441 43.659 -135.264 59.9246 -103.38C76.8973 -70.105 85.5876 -43.214 85.0588 -25.5637C84.7721 -5.47923 80.0001 12.5568 70.4879 29.5503C61.9315 44.8261 49.7052 58.9445 33.1084 72.6587C2.88367 97.6713 -37.3374 117.668 -82.9548 139.324C-126.056 159.955 -172.508 167.216 -204.185 158.269C-213.933 155.513 -221.916 151.311 -227.924 145.836Z" fill="url(#paint15_linear_130_24090)"/>
<path d="M-95.3147 -274.518C-96.8862 -275.951 -98.4556 -277.358 -100.023 -278.739C-128.413 -303.816 -154.133 -319.34 -176.477 -324.884C-197.814 -330.184 -215.475 -326.096 -228.969 -312.735C-274.28 -272.093 -305.69 -233.109 -328.626 -204.643C-337.718 -193.354 -345.573 -183.608 -352.48 -175.993C-364.585 -162.6 -368.949 -139.319 -364.438 -112.125C-359.826 -84.3613 -346.427 -56.6711 -327.67 -36.1595C-289.125 3.71552 -254.587 66.0495 -238.812 107.091C-234.04 119.441 -222.738 128.328 -206.128 132.811C-177.095 140.619 -135.185 134.065 -96.7545 115.707C-57.7185 97.267 -20.3899 78.8084 7.28638 55.8074C22.2076 43.4068 33.2361 30.6663 41.0153 16.8602C49.6482 1.52014 54.0634 -14.7201 54.503 -32.7883C55.2611 -48.9321 47.826 -73.3752 33.0067 -103.467C18.901 -132.113 -1.48033 -164.685 -24.3782 -195.182C-47.2762 -225.678 -71.6649 -252.932 -95.3147 -274.518ZM-228.363 120.465C-232.71 116.447 -235.894 111.842 -237.729 106.921C-253.549 65.8107 -288.125 3.3481 -326.74 -36.6096C-345.395 -57.011 -358.736 -84.5772 -363.323 -112.221C-367.783 -139.232 -363.515 -162.316 -351.543 -175.557C-344.618 -183.185 -336.756 -192.941 -327.651 -204.239C-304.715 -232.682 -273.35 -271.639 -228.077 -312.249C-214.888 -325.301 -197.654 -329.293 -176.833 -324.126C-154.694 -318.614 -129.139 -303.192 -100.883 -278.229C-75.8317 -256.092 -49.7036 -227.249 -25.3467 -194.81C-2.48061 -164.35 17.8752 -131.819 31.9937 -103.215C46.7684 -73.2145 54.1844 -48.8725 53.4262 -32.8251C52.9866 -14.8487 48.6033 1.29509 40.0468 16.5433C32.3186 30.2667 21.3539 42.9337 6.51546 55.2655C-21.0653 78.1883 -58.3301 96.601 -97.2961 115.023C-135.434 133.243 -176.935 139.765 -205.663 132.044C-215.06 129.559 -222.68 125.628 -228.363 120.465Z" fill="url(#paint16_linear_130_24090)"/>
<path d="M-109.083 -258.65L-109.261 -258.806C-133.682 -281.044 -155.822 -294.883 -175.056 -299.944C-192.857 -304.624 -207.67 -301.533 -219.062 -290.758C-261.022 -256.652 -293.604 -218.812 -317.375 -191.181C-324.816 -182.528 -331.251 -175.056 -337.03 -168.763C-349.033 -155.642 -354.034 -134.133 -350.753 -109.75C-347.421 -85.0222 -335.768 -59.7478 -318.77 -40.3982C-302.352 -23.0327 -285.819 -0.94574 -269.617 25.2472C-257.435 44.9551 -245.776 66.6241 -237.64 84.7015C-232.855 95.265 -222.464 102.839 -207.581 106.582C-181.555 113.117 -144.602 107.307 -111.205 91.3887C-78.4887 76.0486 -44.4477 59.3215 -19.46 38.4149C-6.30999 27.4196 3.4761 16.1212 10.4079 3.86756C18.1043 -9.70887 22.1372 -24.0661 22.7297 -40.0124C24.6793 -68.86 -2.21332 -127.015 -44.1673 -184.714C-64.9946 -213.351 -87.4402 -238.914 -109.083 -258.65ZM-228.905 95.0446C-232.339 91.8823 -234.966 88.3056 -236.665 84.481C-244.814 66.3761 -256.48 44.6795 -268.68 24.9533C-284.908 -1.28561 -301.473 -23.4047 -317.917 -40.7978C-334.819 -60.0326 -346.421 -85.1922 -349.734 -109.81C-352.99 -134.023 -348.052 -155.357 -336.17 -168.341C-330.385 -174.642 -323.95 -182.119 -316.502 -190.777C-292.738 -218.384 -260.194 -256.197 -218.272 -290.276C-207.154 -300.794 -192.743 -303.802 -175.407 -299.246C-156.351 -294.235 -134.364 -280.47 -110.064 -258.342L-109.892 -258.186C-88.2812 -238.483 -65.8739 -212.965 -45.0657 -184.365C-3.16265 -126.78 23.6727 -68.759 21.7358 -40.04C21.1433 -24.1763 17.1358 -9.90635 9.48408 3.592C2.57776 15.7676 -7.13186 27.0154 -20.2118 37.9326C-45.1358 58.7657 -79.1067 75.4561 -111.765 90.7732C-144.895 106.568 -181.504 112.36 -207.237 105.884C-216.214 103.629 -223.522 99.9497 -228.905 95.0446Z" fill="url(#paint17_linear_130_24090)"/>
<path d="M38.0399 81.0733C46.934 89.1843 56.2954 97.1743 66.1239 105.043C121.362 149.282 174.593 167.533 228.894 160.855C275.932 155.069 316.561 131.553 352.405 110.794C376.335 96.9416 398.915 83.8658 419.755 78.3819C489.066 60.13 517.119 67.5704 533.881 72.0163C543.591 74.5882 550 76.2922 558.295 71.0655C566.418 65.9399 552.752 37.5011 515.29 -18.4351C499.088 -42.6255 476.063 -55.4579 457.561 -65.7688C448.291 -70.9358 440.276 -75.4138 434.943 -80.296C420.258 -93.753 418.27 -98.5847 413.919 -109.167C410.281 -117.989 404.789 -131.322 388.542 -157.336C374.265 -180.195 342.989 -210.769 306.909 -237.128C286.387 -252.128 265.063 -265.323 243.541 -276.346C219.446 -288.687 195.637 -298.006 172.764 -304.036C130.402 -315.215 91.9717 -315.059 58.5422 -303.512C25.6097 -292.159 -2.30859 -275.289 -24.4483 -253.368C-46.4415 -231.598 -61.6113 -205.961 -69.537 -177.168C-81.0751 -135.254 -76.2331 -88.5677 -55.5204 -42.1387C-44.4857 -17.3971 -28.9527 7.33075 -9.35504 31.3467C4.84448 48.6853 20.6801 65.3 38.0399 81.0733ZM496.521 -38.0832C503.345 -31.856 509.195 -25.105 513.965 -17.9528C531.001 7.4823 542.883 26.8779 550.299 41.3315C560.984 62.183 560.015 68.5854 557.308 70.2664C549.662 75.0797 544.24 73.6375 534.372 71.0196C517.418 66.5232 489.047 59.0002 419.232 77.3853C398.207 82.9288 375.494 96.0597 351.469 109.962C315.79 130.63 275.289 154.053 228.626 159.795C174.873 166.404 122.069 148.257 67.1943 104.318C37.8424 80.8115 12.5043 56.0929 -8.11908 30.8001C-27.6658 6.8439 -43.1604 -17.8105 -54.157 -42.4786C-74.7804 -88.7239 -79.6416 -135.226 -68.1161 -176.961C-60.235 -205.602 -45.1483 -231.097 -23.2888 -252.743C-1.25098 -274.518 26.4636 -291.259 59.173 -302.534C92.2329 -313.929 130.275 -314.09 172.255 -302.993C195 -296.995 218.694 -287.722 242.681 -275.436C264.133 -264.446 285.368 -251.292 305.858 -236.338C341.816 -210.062 372.984 -179.607 387.192 -156.854C403.4 -130.909 408.854 -117.613 412.504 -108.818C416.913 -98.1024 418.933 -93.2019 433.79 -79.5933L433.867 -79.5244C439.32 -74.5503 447.361 -70.0678 456.656 -64.8825C469.061 -58.0024 483.504 -49.9511 496.521 -38.0832Z" fill="url(#paint18_linear_130_24090)"/>
<path d="M54.5281 64.9609C61.7232 71.5195 69.2518 77.9923 77.1138 84.3794C126.465 124.64 174.197 141.914 223.013 137.197C265.445 133.063 302.602 113.007 335.381 95.292C358.215 82.951 379.782 71.299 399.908 66.8164C463.741 51.8621 490.933 58.8432 507.179 63.0181C516.997 65.535 523.483 67.2022 531.625 62.2098C536.289 59.4541 535.263 50.0663 528.573 34.3404C522.559 20.1945 512.18 1.4649 498.559 -19.8183C484.447 -42.0981 464.155 -54.1911 447.826 -63.9095C439.938 -68.608 433.127 -72.6635 428.279 -77.0726C412.873 -91.0348 410.605 -95.3796 403.852 -108.249C399.309 -116.902 393.097 -128.747 379.833 -149.538C366.249 -170.845 337.018 -199.343 303.551 -223.91C284.437 -237.964 264.585 -250.314 244.624 -260.621C222.223 -272.185 200.134 -280.903 178.957 -286.534C140.762 -296.688 106.071 -296.725 75.8524 -286.644C45.4938 -276.452 19.6779 -261.19 -0.881775 -241.289C-21.3141 -221.508 -35.509 -198.167 -43.0652 -171.938C-53.9854 -134.001 -50.0734 -91.6824 -31.801 -49.5523C-22.0531 -27.0887 -8.22772 -4.6114 9.32477 17.2459C22.7807 33.9141 37.8877 49.8605 54.5281 64.9609ZM479.707 -40.284C486.731 -33.8821 492.649 -26.8879 497.329 -19.4555C526.133 25.5543 538.946 56.5376 530.765 61.3785C523.222 66.008 517.386 64.5016 507.67 62.0123C491.239 57.8236 463.785 50.769 399.494 65.8106C379.151 70.3621 357.489 82.0646 334.559 94.4561C301.913 112.097 264.91 132.117 222.835 136.173C174.497 140.876 127.166 123.712 78.1459 83.7226C51.7375 62.2695 28.9989 39.7324 10.548 16.7407C-6.94073 -5.05693 -20.7343 -27.4654 -30.4567 -49.8555C-48.6782 -91.8248 -52.5582 -133.973 -41.689 -171.745C-34.171 -197.855 -20.0271 -221.063 0.252258 -240.725C20.64 -260.474 46.3157 -275.63 76.4576 -285.771C106.332 -295.738 140.666 -295.687 178.504 -285.629C206.448 -278.193 250.709 -261.342 302.589 -223.249C335.954 -198.737 365.09 -170.367 378.597 -149.162C391.849 -128.398 398.054 -116.553 402.584 -107.936C409.21 -95.3062 411.701 -90.5755 427.221 -76.4893C432.159 -71.9975 439.021 -67.9099 446.972 -63.1701C457.159 -57.1121 468.939 -50.1126 479.707 -40.284Z" fill="url(#paint19_linear_130_24090)"/>
<path d="M70.7431 48.6479C76.2945 53.7122 82.0816 58.7352 88.1045 63.7169C131.6 100.028 173.86 116.291 217.28 113.43C255.124 110.931 288.789 94.2501 318.485 79.5301C340.185 68.7782 360.681 58.6235 380.107 55.1513C438.403 43.4487 464.69 49.989 480.408 53.8699C490.404 56.3592 497.011 58.0034 505.026 53.2315C516.252 46.976 500.91 10.1966 481.899 -21.324C469.838 -41.8218 452.165 -53.2121 437.938 -62.3656C431.497 -66.4991 425.935 -70.1045 421.653 -73.9625C404.037 -89.7572 401.864 -93.2524 389.766 -112.657C385.21 -119.96 379.54 -129.054 371.168 -141.858C362.618 -154.953 347.595 -171.253 328.896 -187.722C307.871 -206.268 283.96 -223.418 259.82 -237.325C231.258 -253.772 203.371 -265.181 176.944 -271.234C146.158 -278.279 117.985 -277.834 93.2142 -269.897C65.4232 -260.868 41.7098 -247.218 22.7174 -229.329C3.84607 -211.509 -9.36768 -190.469 -16.5416 -166.747C-26.8438 -132.783 -23.8875 -94.8324 -8.00427 -56.9782C7.25464 -20.5708 33.714 14.8905 70.7431 48.6479ZM462.696 -42.8506C470.043 -36.1635 476.097 -28.7891 480.695 -20.929C503.331 16.6082 513.219 47.5042 504.198 52.5242C496.724 56.9701 490.736 55.482 480.816 53.0156C464.964 49.0704 438.441 42.4751 379.782 54.2511C360.146 57.76 339.561 67.9607 317.759 78.7631C288.19 93.4188 254.685 110.027 217.171 112.497C174.185 115.336 132.288 99.1782 89.0793 63.1061C42.984 24.9855 10.7142 -15.5049 -6.78735 -57.2538C-22.6069 -94.9472 -25.5504 -132.742 -15.2993 -166.563C-8.15082 -190.143 4.99286 -211.063 23.7495 -228.746C42.6081 -246.511 66.1559 -260.064 93.7493 -269.029C118.221 -276.865 146.082 -277.297 176.574 -270.325C202.849 -264.308 230.595 -252.955 259.036 -236.576C283.1 -222.72 306.922 -205.621 327.915 -187.125C346.55 -170.701 361.51 -154.48 370.021 -141.45C378.387 -128.654 384.038 -119.565 388.606 -112.262C400.762 -92.7702 402.954 -89.2613 420.666 -73.3701C425.011 -69.4524 430.611 -65.8424 437.097 -61.6629C445.061 -56.5052 454.152 -50.6493 462.696 -42.8506Z" fill="url(#paint20_linear_130_24090)"/>
<path d="M87.2184 32.6323C91.0411 36.126 94.9976 39.5997 99.0879 43.0535C136.799 75.4468 173.63 90.672 211.666 89.5973C244.936 88.6787 273.791 75.8923 301.703 63.5513C322.205 54.4805 341.574 45.9148 360.286 43.5265C412.95 35.0114 437.288 40.8903 453.394 44.7804C464.014 47.3478 470.43 48.914 478.362 44.3211C488.849 38.8097 483.064 9.35585 465.174 -22.7343C455.101 -41.6843 439.893 -52.4684 427.68 -61.135C423.003 -64.4511 418.588 -67.565 415.014 -70.78L413.198 -72.3875C392.282 -90.8828 390.574 -92.3939 362.497 -134.097C354.615 -145.822 340.523 -161.029 323.843 -175.814C304.647 -192.807 282.991 -208.583 261.214 -221.393C235.341 -236.613 210.118 -247.283 186.258 -253.083C158.422 -259.867 132.951 -259.853 110.556 -253.042C85.3326 -245.179 63.7089 -233.141 46.2902 -217.264C28.9543 -201.465 16.7089 -182.712 9.87903 -161.53C0.207611 -131.539 2.23367 -97.9466 15.7086 -64.3867C29.1199 -31.0198 53.1455 1.57098 87.2184 32.6323ZM445.328 -46.1348C453.226 -38.9728 459.542 -30.9742 464.053 -22.422C481.459 8.8093 487.549 38.4561 477.636 43.6506C470.194 47.9265 464.014 46.4338 453.776 43.9583C438.53 40.284 413.001 34.1112 360.05 42.6723C341.134 45.0881 321.677 53.6951 301.072 62.8073C273.294 75.0977 244.573 87.8015 211.621 88.7338C173.955 89.7948 137.468 74.6706 100.005 42.4931C59.7078 8.40052 31.7385 -27.6257 16.8682 -64.6256C3.43781 -98.0431 1.42453 -131.484 11.0513 -161.328C17.8366 -182.386 30.0118 -201.024 47.2331 -216.717C64.5307 -232.485 85.9951 -244.435 111.034 -252.238C133.142 -258.967 158.32 -258.971 185.869 -252.238C209.595 -246.456 234.691 -235.842 260.456 -220.686C282.169 -207.913 303.78 -192.21 322.894 -175.216C339.522 -160.483 353.558 -145.335 361.401 -133.67C389.542 -91.8749 391.256 -90.3546 412.249 -71.7904L414.065 -70.1829C417.683 -66.9679 422.124 -63.808 426.807 -60.4736C432.624 -56.4182 439.071 -51.8391 445.328 -46.1348Z" fill="url(#paint21_linear_130_24090)"/>
<path d="M103.662 16.6676C105.761 18.5782 107.899 20.4812 110.078 22.3765C181.785 86.2904 236.666 65.5491 285.087 47.2559C304.315 39.99 322.473 33.1283 340.459 31.8883C387.357 26.4733 410.675 31.9709 426.106 35.6084C437.154 38.2126 443.824 39.7833 451.725 35.4156C456.93 32.8527 459.72 25.1552 459.37 14.3207C458.981 2.83857 455.12 -10.8573 448.494 -24.1857C440.269 -42.1299 427.712 -52.078 416.639 -60.8549C413.702 -63.1835 410.905 -65.3834 408.394 -67.6156C404.572 -70.9591 401.131 -73.8205 398.099 -76.3419C384.114 -88.0032 375.679 -95.044 353.838 -126.358C339.943 -146.346 305.468 -179.635 262.629 -205.492C239.438 -219.487 216.884 -229.412 195.592 -234.988C170.706 -241.51 147.942 -241.932 127.924 -236.242C105.285 -229.564 85.3223 -218.911 69.8506 -205.254C54.0501 -191.448 42.7605 -174.982 36.2874 -156.326C27.2595 -130.303 28.3553 -101.074 39.473 -71.818C50.9283 -41.4502 72.5201 -11.7207 103.662 16.6676ZM427.476 -50.5945C436.308 -42.6477 443.065 -33.6109 447.418 -23.9239C461.657 4.72622 460.765 29.9868 451.068 34.7771C443.608 38.9107 437.154 37.3721 426.45 34.8506C410.917 31.1764 387.446 25.6649 340.319 31.0983C322.155 32.3521 303.901 39.2506 284.571 46.5532C260.049 55.8215 234.685 65.3838 206.251 64.874C173.898 64.2723 142.724 50.2091 110.938 21.8759C76.432 -8.13371 52.7314 -39.7324 40.4987 -72.0109C29.4512 -101.152 28.3936 -130.239 37.345 -156.124C43.7735 -174.665 54.9931 -191.03 70.6852 -204.739C86.0364 -218.301 105.849 -228.879 128.319 -235.511C154.001 -242.809 198.032 -243.429 261.883 -204.886C304.608 -179.102 338.974 -145.928 352.819 -126.013C374.716 -94.6077 383.19 -87.5393 397.232 -75.8322C400.258 -73.3107 403.68 -70.4493 407.509 -67.1058C410.057 -64.8599 412.848 -62.6507 415.791 -60.3175C419.595 -57.3 423.564 -54.1494 427.476 -50.5853V-50.5945Z" fill="url(#paint22_linear_130_24090)"/>
<path d="M123.323 3.8082C148.942 27.1674 174.388 39.5589 201.051 41.6532C225.262 43.5592 247.395 36.9731 268.789 30.6028C286.629 25.2935 303.448 20.2781 320.663 20.2643C361.572 17.8072 383.738 22.9511 398.391 26.359C410.089 29.0734 417.154 30.713 425.106 26.5106C436.325 21.3115 441.588 -2.09359 431.795 -25.6135C425.099 -44.2558 413.861 -53.9743 402.991 -63.3712L401.755 -64.4367C396.48 -68.9515 391.714 -72.5247 387.102 -75.9831C374.742 -85.2561 363.063 -94.0146 345.154 -118.614C332.144 -136.553 301.193 -166.416 264.011 -189.582C232.671 -209.106 186.627 -230.133 145.272 -219.436C105.013 -208.413 74.8835 -183.497 62.5936 -151.108C54.2219 -129.063 54.4066 -104.183 63.1287 -79.1935C72.6855 -51.8753 91.7989 -24.9705 120.08 0.795303C120.418 1.09843 120.756 1.40156 121.087 1.71387L123.323 3.8082ZM408.643 -57.203C417.25 -49.3585 425.462 -40.2095 430.782 -25.4114C441.256 -0.270233 434.178 21.4355 424.5 25.9043C416.944 29.8955 410.07 28.2972 398.678 25.6563C383.942 22.2301 361.662 17.0585 320.593 19.5249C303.219 19.5249 286.291 24.577 268.35 29.9185C247.077 36.252 225.083 42.806 201.115 40.9183C173.993 38.7826 148.082 25.8171 121.852 1.26378L120.845 0.345215C92.6718 -25.3425 73.5838 -52.1509 64.078 -79.3727C55.4005 -104.234 55.2094 -128.975 63.5365 -150.911C69.6209 -166.94 79.8912 -181.021 94.067 -192.756C107.976 -204.367 125.68 -213.297 145.578 -218.738C186.461 -229.301 232.162 -208.427 263.298 -189.031C300.39 -165.929 331.239 -136.163 344.211 -118.302C362.184 -93.6104 373.913 -84.8151 386.324 -75.5055C390.924 -72.0562 395.684 -68.4876 400.933 -63.9958L402.163 -62.9303C404.329 -61.0335 406.502 -59.1596 408.643 -57.203Z" fill="url(#paint23_linear_130_24090)"/>
<path d="M138.679 -12.602C157.416 4.48795 176.268 14.3671 196.197 17.5362C216.126 20.7053 234.775 17.0264 252.932 13.4899C268.44 10.4632 284.482 7.3401 300.812 8.63068C335.369 8.89248 356.1 13.7241 369.817 16.8978C382.56 19.8694 390.288 21.6651 398.437 17.5729C409.268 12.8561 421.156 -6.8885 415.065 -27.0648C411.842 -41.8905 405.865 -52.1325 395.085 -61.2907C389.313 -66.1223 383.617 -69.9068 377.578 -73.9118C364.835 -82.3764 351.634 -91.1303 336.452 -110.893C324.232 -126.872 296.785 -153.34 265.375 -173.696C238.158 -191.337 198.236 -210.677 162.589 -202.631C127.281 -193.936 100.369 -173.236 88.7415 -145.886C81.0515 -127.781 80.3571 -107.27 86.7282 -86.5651C93.7811 -63.6698 109.027 -40.926 132.053 -18.9677C134.257 -16.7386 136.466 -14.6167 138.679 -12.602ZM396.251 -59.1826C405.732 -50.5342 411.141 -40.7423 414.148 -26.9179C420.156 -7.01253 408.554 12.4014 397.927 17.031C390.135 20.9441 383.018 19.2861 370.111 16.2778C356.336 13.0628 335.515 8.21734 300.869 7.95555C284.406 6.65578 268.28 9.79266 252.684 12.8377C234.641 16.3558 215.973 19.9888 196.395 16.8748C174.395 13.3751 153.6 1.52558 132.804 -19.3443C109.868 -41.2291 94.6667 -63.8948 87.6457 -86.6891C81.3064 -107.279 81.9944 -127.671 89.6398 -145.666C101.178 -172.823 127.867 -193.344 162.908 -201.965C198.121 -209.919 237.744 -190.698 264.776 -173.177C296.097 -152.872 323.474 -126.477 335.655 -110.549C350.914 -90.6894 364.16 -81.8987 376.966 -73.3974C382.98 -69.4062 388.663 -65.6355 394.404 -60.8314C395.034 -60.2848 395.64 -59.7383 396.251 -59.1826Z" fill="url(#paint24_linear_130_24090)"/>
<path d="M153.944 -28.562C184.136 -1.03251 210.424 -2.52059 238.087 -4.08216C251.728 -4.85375 265.834 -5.64831 280.991 -3.01202C308.476 -0.476773 326.493 3.87723 339.643 7.06007C354.82 10.7343 363.178 12.7552 371.792 8.68132C377.832 6.21038 384.828 0.731133 390.014 -5.60698C396.289 -13.2724 399.252 -21.388 398.36 -28.4609C398.36 -40.5768 397.64 -50.4652 388.446 -58.1031C382.585 -62.8843 375.768 -66.8754 368.556 -71.0962C355.533 -78.7203 340.771 -87.3595 327.78 -103.136C318.816 -114.081 295.88 -137.904 266.777 -157.791C251.632 -168.129 237.074 -175.827 223.504 -180.677C207.474 -186.404 192.82 -188.135 179.951 -185.811C149.503 -179.496 125.726 -163.036 114.704 -140.65C107.695 -126.481 106.192 -110.337 110.244 -93.8951C114.748 -75.735 125.777 -57.4785 143.03 -39.6307C146.731 -35.4926 150.382 -31.8229 153.944 -28.562ZM388.791 -56.8447C396.863 -49.4962 397.519 -39.9936 397.519 -28.4334C399.558 -12.262 381.591 3.98285 371.353 8.16233C363.07 12.08 354.839 10.0913 339.917 6.48137C326.729 3.29394 308.667 -1.07844 281.144 -3.62287C265.904 -6.28213 251.728 -5.46 238.017 -4.70678C222.389 -3.82036 207.627 -2.98906 192.272 -7.18232C174.968 -11.9129 159.544 -22.3387 143.743 -39.9706C126.541 -57.7495 115.564 -75.9279 111.085 -93.9961C107.039 -110.314 108.536 -126.376 115.487 -140.443C126.42 -162.641 149.987 -178.959 180.161 -185.219C192.814 -187.515 207.27 -185.789 223.115 -180.126C236.609 -175.303 251.097 -167.638 266.184 -157.34C295.217 -137.522 318.096 -113.754 327.035 -102.837C340.115 -86.9691 354.934 -78.2932 368.014 -70.6369C375.201 -66.4299 381.992 -62.4571 387.809 -57.7127C388.147 -57.4187 388.478 -57.134 388.791 -56.8447Z" fill="url(#paint25_linear_130_24090)"/>
<path d="M168.858 -43.604C187.092 -26.9734 204.677 -24.5116 225.759 -21.5584C236.768 -20.0152 248.147 -18.4215 261.138 -14.6692C279.92 -10.903 293.994 -7.11396 305.309 -4.06891C324.716 1.15315 335.406 4.02826 345.122 -0.247666C356.425 -4.59249 379.527 -18.1597 381.61 -29.8623C381.909 -30.6522 382.247 -31.4422 382.527 -32.2322C385.758 -40.4993 389.096 -49.0558 381.769 -54.9484C376.003 -59.4953 367.969 -63.6426 359.47 -68.0333C345.709 -75.1385 330.112 -83.1897 319.058 -95.4066C307.144 -108.657 245.299 -174.486 197.267 -168.988C171.509 -165.135 150.707 -152.914 140.182 -135.461C133.9 -125.044 131.663 -113.512 133.53 -101.189C135.569 -87.755 142.45 -73.9994 153.994 -60.3128C158.267 -54.4429 163.241 -48.8522 168.858 -43.604ZM381.846 -54.0252C388.051 -48.3668 384.872 -40.2467 381.801 -32.3654L380.871 -29.9725V-29.9357C378.826 -18.4536 355.966 -5.01963 344.753 -0.711547C335.33 3.42201 324.767 0.592835 305.577 -4.56951C294.255 -7.61456 280.162 -11.4083 261.386 -15.1698C248.37 -18.9451 236.953 -20.5434 225.912 -22.0912C199.382 -25.8114 178.428 -28.7508 154.65 -60.5608C143.182 -74.2015 136.314 -87.879 134.263 -101.235C132.402 -113.461 134.62 -124.902 140.851 -135.222C151.28 -152.514 171.884 -164.616 197.382 -168.437C216.495 -170.628 240.132 -161.548 267.56 -141.477C291.7 -123.804 311.151 -103.155 318.395 -95.0897C329.532 -82.7901 345.154 -74.7067 359.005 -67.5741C367.472 -63.1971 375.475 -59.0681 381.189 -54.5579C381.463 -54.3926 381.655 -54.2089 381.878 -54.0252H381.846Z" fill="url(#paint26_linear_130_24090)"/>
<path d="M293.453 701.732C301.646 709.203 309.78 716.263 317.854 722.914C362.108 759.362 402.164 781.638 436.899 789.129C472.437 796.789 501.554 788.61 523.426 764.823C589.845 692.601 622.625 640.201 644.312 605.53C654.072 589.914 661.788 577.596 669.159 569.086C681.405 554.931 683.271 523.01 674.033 485.79C664.082 445.731 643.7 408.387 618.114 383.329C582.818 348.763 556.161 304.548 540.016 273.56C521.215 237.446 505.612 197.778 498.33 167.493C493.621 147.932 478.579 133.713 454.891 126.382C413.836 113.683 352.112 123.213 293.803 151.253C266.165 164.544 237.584 178.286 211.278 192.707C182.187 208.654 159.098 223.741 140.685 238.838C118.692 256.86 102.618 275.365 91.5256 295.403C79.14 317.78 73.2021 341.561 73.3614 368.112C73.6354 413.458 125.713 509.429 200.013 601.497C230.404 639.14 262.279 673.306 293.453 701.732ZM481.816 142.287C489.397 149.177 494.488 157.724 496.884 167.654C504.191 198.017 519.82 237.74 538.64 273.918C554.816 304.984 581.531 349.296 616.929 383.958C642.413 408.888 662.674 446.076 672.574 485.978C681.749 522.951 679.958 554.582 667.898 568.525C660.488 577.091 652.754 589.45 642.974 605.094C621.312 639.737 588.552 692.087 522.202 764.235C500.725 787.59 472.163 795.623 437.32 788.118C402.852 780.692 363.032 758.522 318.963 722.225C280.315 690.396 239.623 648.459 201.281 600.974C127.102 509.053 75.1326 413.297 74.8331 368.117C74.6738 341.704 80.5672 318.055 92.8954 295.807C103.917 275.879 119.915 257.48 141.788 239.545C182.824 205.893 239.661 178.543 294.619 152.116C352.52 124.274 413.708 114.776 454.286 127.356C465.518 130.805 474.75 135.844 481.816 142.287Z" fill="url(#paint27_linear_130_24090)"/>
<path d="M307.807 686.029C314.289 691.935 320.726 697.557 327.118 702.894C367.409 736.499 403.878 757.089 435.517 764.093C467.5 771.171 493.749 764.029 513.532 742.856C573.936 679.236 606.519 630.175 628.079 597.722C638.202 582.488 646.198 570.45 653.697 561.898C665.802 548.041 668.351 517.986 660.348 483.457C651.76 446.462 633.124 411.529 609.22 387.591C576.874 355.588 552.045 315.024 536.914 286.636C519.138 253.282 504.65 218.019 497.17 189.887C492.443 172.141 478.363 159.258 456.44 152.64C418.398 141.157 361.612 149.93 308.259 175.558C257.889 199.702 205.811 224.669 167.412 256.222C147.19 272.839 132.371 289.901 122.107 308.383C110.639 329 105.103 350.899 105.115 375.328C104.937 417.265 152.109 505.93 219.796 590.939C248.396 626.809 278.443 659.271 307.807 686.029ZM482.103 167.658C488.856 173.813 493.488 181.34 495.813 190.076C503.312 218.262 517.819 253.586 535.627 286.985C550.784 315.442 575.669 356.079 608.099 388.174C631.882 411.992 650.429 446.769 658.985 483.595C666.949 517.889 664.477 547.679 652.531 561.338C644.981 569.958 636.973 582.005 626.83 597.286C605.283 629.72 572.732 678.735 512.385 742.295C492.985 763.064 467.258 770.073 435.931 763.138C404.604 756.203 368.276 735.705 328.137 702.241C292.88 672.847 255.831 634.18 220.994 590.443C153.383 505.572 106.313 417.113 106.466 375.328C106.466 351.027 111.984 329.253 123.362 308.732C133.556 290.36 148.299 273.367 168.419 256.833C206.722 225.427 258.73 200.497 309.024 176.389C362 150.945 418.283 142.195 455.911 153.558C466.172 156.564 475.191 161.419 482.103 167.658Z" fill="url(#paint28_linear_130_24090)"/>
<path d="M322.065 670.298C326.869 674.674 331.643 678.871 336.387 682.892C372.703 713.664 405.597 732.554 434.133 739.071C462.568 745.552 485.95 739.448 503.636 720.893C558.428 665.457 589.526 621.43 612.245 589.28C622.56 574.694 630.722 563.17 638.252 554.655C650.421 540.877 653.543 513.379 646.669 481.069C639.425 447.178 622.535 414.661 600.331 391.857C547.043 338.493 508.752 255.243 496.01 212.323C491.27 196.382 478.12 184.835 457.981 178.929C422.939 168.655 371.11 176.692 322.715 199.904C279.136 220.71 229.741 244.294 194.139 273.642C175.662 288.858 162.124 304.479 152.726 321.408C142.214 340.266 137.04 360.277 136.894 382.584C136.556 401.897 146.559 431.494 165.781 468.144C184.257 503.358 210.481 543.223 239.641 580.407C266.336 614.481 294.58 645.235 322.065 670.298ZM482.427 193.033C488.346 198.425 492.5 204.975 494.742 212.498C507.51 255.496 545.877 338.925 599.274 392.395C621.369 415.083 638.176 447.477 645.388 481.211C652.243 513.301 649.173 540.569 637.137 554.15C629.556 562.706 621.394 574.248 611.067 588.858C588.392 620.98 557.301 664.97 502.579 720.355C485.243 738.543 462.351 744.537 434.535 738.203C406.234 731.736 373.544 712.943 337.381 682.308C305.525 655.33 272.121 619.942 240.775 579.975C211.646 542.828 185.448 503.004 167.004 467.837C147.833 431.273 137.849 401.792 138.155 382.571C138.295 360.378 143.443 340.477 153.892 321.729C163.27 304.906 176.752 289.373 195.107 274.239C230.594 244.983 279.92 221.422 323.428 200.662C371.46 177.62 422.844 169.61 457.471 179.774C467.703 182.768 476.081 187.242 482.427 193.033Z" fill="url(#paint29_linear_130_24090)"/>
<path d="M336.216 654.54C339.371 657.419 342.514 660.209 345.645 662.913C378.004 690.833 407.311 708.047 432.745 714.077C457.631 719.975 478.152 714.876 493.742 698.921C543.437 651.155 574.49 609.953 597.178 579.856C606.958 566.886 615.399 555.689 622.803 547.431C634.857 533.955 638.66 508.263 632.996 478.708C627.078 447.89 611.927 417.789 591.437 396.12C570.515 374.86 549.515 346.058 530.708 312.82C515.608 286.14 502.541 257.673 494.844 234.718C490.092 220.577 477.872 210.376 459.51 205.177C427.469 196.129 380.591 203.423 337.184 224.21C291.496 245.92 251.173 265.936 220.879 291.027C204.186 304.837 191.896 319.015 183.289 334.383C173.732 351.482 168.922 369.605 168.635 389.796C168.106 407.533 176.822 434.553 193.846 467.924C210.13 499.849 233.436 536.068 259.469 569.885C284.272 602.173 310.616 631.19 336.216 654.54ZM482.803 218.414C488.05 223.282 491.761 228.917 493.678 234.925C501.381 257.917 514.474 286.429 529.593 313.146C548.438 346.435 569.482 375.31 590.45 396.616C610.838 418.17 625.905 448.138 631.799 478.828C637.431 508.18 633.71 533.652 621.79 546.962C614.367 555.229 605.913 566.459 596.12 579.443C573.426 609.521 542.399 650.705 492.767 698.416C477.477 714.031 457.446 719.019 433.121 713.251C407.904 707.28 378.781 690.149 346.569 662.357C318.115 637.799 288.349 605.686 260.501 569.486C234.481 535.659 211.226 499.509 194.98 467.621C178.007 434.351 169.317 407.455 169.846 389.809C170.139 369.725 174.904 351.689 184.423 334.695C192.973 319.419 205.199 305.301 221.796 291.587C252.027 266.574 292.242 246.577 337.866 224.917C380.96 204.282 427.412 197.025 459.096 205.967C468.812 208.737 476.795 212.939 482.803 218.414Z" fill="url(#paint30_linear_130_24090)"/>
<path d="M350.201 638.741C351.768 640.174 353.335 641.582 354.903 642.966C383.293 668.043 409.013 683.567 431.357 689.11C452.694 694.406 470.354 690.318 483.848 676.962C529.16 636.32 560.57 597.336 583.506 568.87C592.598 557.581 600.453 547.835 607.366 540.22C619.471 526.827 623.835 503.546 619.318 476.352C614.706 448.588 601.301 420.898 582.544 400.382C543.998 360.511 509.46 298.177 493.686 257.136C488.92 244.786 477.617 235.894 461.008 231.416C431.975 223.608 390.065 230.162 351.628 248.52C312.598 266.978 275.257 285.432 247.594 308.433C232.672 320.834 221.637 333.574 213.865 347.38C205.225 362.721 200.817 378.961 200.371 397.029C199.612 413.173 207.048 437.616 221.867 467.685C235.979 496.331 256.354 528.903 279.252 559.395C302.15 589.887 326.545 617.177 350.201 638.741ZM483.243 243.803C487.589 247.816 490.773 252.417 492.609 257.333C508.441 298.458 543.011 360.893 581.627 400.836C600.281 421.238 613.616 448.799 618.203 476.448C622.663 503.459 618.394 526.542 606.423 539.779C599.498 547.412 591.636 557.167 582.538 568.466C559.601 596.909 528.236 635.861 482.957 676.476C469.775 689.528 452.534 693.52 431.713 688.353C409.574 682.841 384.025 667.418 355.763 642.456C330.712 620.319 304.583 591.476 280.233 559.037C257.36 528.577 237.011 496.046 222.893 467.437C208.143 437.441 200.715 413.099 201.486 397.047C201.925 379.076 206.315 362.932 214.865 347.684C222.593 333.96 233.564 321.293 248.403 308.957C275.983 286.039 313.242 267.621 352.214 249.204C390.352 230.984 431.854 224.462 460.587 232.183C469.947 234.691 477.56 238.622 483.243 243.803Z" fill="url(#paint31_linear_130_24090)"/>
<path d="M363.969 622.895L364.141 623.056C388.561 645.295 410.701 659.133 429.935 664.194C447.775 668.874 462.549 665.783 473.947 655.009C515.901 620.902 548.49 583.062 572.254 555.427C579.702 546.778 586.131 539.306 591.909 533.014C603.912 519.887 608.92 498.379 605.633 474C602.307 449.263 590.629 423.989 573.656 404.648C557.231 387.278 540.698 365.196 524.502 339.003C512.314 319.295 500.655 297.626 492.519 279.544C487.741 268.981 477.343 261.412 462.46 257.668C436.447 251.119 399.494 256.938 366.09 272.857C333.368 288.202 299.333 304.929 274.346 325.835C261.189 336.831 251.409 348.129 244.471 360.378C236.775 373.959 232.742 388.312 232.149 404.263C230.2 433.11 257.092 491.265 299.047 548.965C319.855 577.601 342.319 603.174 363.969 622.895ZM483.784 269.206C487.222 272.366 489.85 275.943 491.544 279.769C499.693 297.874 511.365 319.571 523.566 339.297C539.787 365.54 556.352 387.66 572.789 405.053C589.698 424.287 601.3 449.447 604.613 474.065C607.875 498.278 602.931 519.612 591.055 532.596C585.27 538.897 578.836 546.374 571.381 555.032C547.623 582.639 515.079 620.452 473.151 654.531C462.04 665.049 447.622 668.057 430.286 663.496C411.23 658.485 389.249 644.725 364.943 622.597L364.771 622.441C343.16 602.737 320.753 577.22 299.951 548.62C258.055 491.031 231.207 433.028 233.15 404.304C233.742 388.44 237.743 374.17 245.395 360.672C252.301 348.496 262.017 337.249 275.097 326.331C300.021 305.498 333.992 288.803 366.651 273.491C399.813 257.696 436.396 251.904 462.122 258.38C471.099 260.622 478.401 264.301 483.784 269.206Z" fill="url(#paint32_linear_130_24090)"/>
<path d="M377.514 607.078C396.321 624.232 413.453 635.094 428.483 639.342C442.767 643.393 454.726 641.28 464.028 633.05C503.981 605.144 539.315 566.431 565.144 538.153C569.19 533.716 573.012 529.527 576.491 525.784C588.596 512.727 594.082 493.492 591.986 471.635C589.845 449.589 580.186 427.314 564.762 408.897C553.427 396.56 523.604 361.462 491.353 301.943C486.55 293.139 477.044 286.888 463.849 283.875C440.843 278.612 408.923 283.71 380.546 297.167C353.788 309.59 323.378 324.421 301.047 343.224C277.436 363.101 265.28 385.427 263.878 411.482C262.667 424.457 267.522 443.77 277.894 467.318C287.802 489.744 301.939 514.371 318.778 538.506C336.171 563.459 355.03 585.813 373.315 603.164C374.734 604.515 376.133 605.819 377.514 607.078ZM484.479 294.627C486.989 296.923 489.011 299.476 490.481 302.2C495.641 311.726 506.408 330.906 520.552 352.382C535.391 374.91 550 394.066 563.972 409.273C579.307 427.576 588.921 449.741 591.024 471.681C593.107 493.391 587.66 512.474 575.682 525.417C572.21 529.155 568.381 533.349 564.335 537.785C538.551 566.031 503.248 604.726 463.359 632.568L463.32 632.595C454.286 640.596 442.697 642.649 428.801 638.713C413.052 634.244 394.13 621.825 374.061 602.792C355.807 585.477 336.98 563.156 319.619 538.24C302.799 514.109 288.681 489.519 278.786 467.125C268.427 443.66 263.585 424.411 264.77 411.528C266.165 385.625 278.245 363.432 301.723 343.678C323.977 324.94 354.323 310.151 381.024 297.75C409.166 284.399 440.786 279.337 463.531 284.536C472.285 286.525 479.356 289.942 484.479 294.627Z" fill="url(#paint33_linear_130_24090)"/>
<path d="M390.249 590.878C403.629 603.059 416.161 611.188 426.941 614.596C437.721 618.004 446.895 616.833 454.114 611.101C494.086 589.772 540.985 539.875 561.015 518.569C585.984 491.93 583.869 448.569 555.868 413.177C531.874 386.029 508.396 351.293 494.367 330.543C492.876 328.338 491.481 326.271 490.181 324.365C485.352 317.297 476.681 312.36 465.111 310.082C445.15 306.15 418.283 310.541 395.028 321.509C371.149 332.449 346.473 344.762 327.793 360.644C307.839 377.592 297.326 396.588 295.644 418.725C292.809 441.143 309.661 484.109 338.528 528.172C352.418 549.359 367.619 568.461 382.489 583.415C385.093 586.045 387.68 588.533 390.249 590.878ZM485.428 320.071C486.979 321.486 488.318 323.014 489.423 324.632L493.602 330.818C507.619 351.582 531.128 386.336 555.141 413.489C582.977 448.68 585.086 491.751 560.315 518.206C540.296 539.517 493.437 589.372 453.572 610.628L453.54 610.651C446.596 616.185 437.772 617.319 427.31 614.017C414.606 610.003 399.347 599.293 383.19 583.043C368.352 568.116 353.182 549.056 339.312 527.892C310.489 483.921 293.688 441.088 296.504 418.753C300.276 369.609 347.474 344 395.493 322.005C418.576 311.12 445.188 306.77 464.938 310.656C473.52 312.369 480.51 315.579 485.428 320.071Z" fill="url(#paint34_linear_130_24090)"/>
<path d="M402.31 574.698C410.471 582.143 418.238 587.411 425.163 589.992C432.617 592.776 439.008 592.491 444.168 589.138C457.408 585.464 475.017 574.73 496.507 557.163C512.161 544.362 530.045 527.658 545.565 511.331C570.432 485.138 570.961 450.016 546.973 417.439C537.786 406.467 528.497 394.884 519.526 383.687C507.912 369.201 496.947 355.523 489.009 346.769C482.287 339.421 470.073 335.398 454.604 335.444C439.951 335.48 423.5 339.269 409.452 345.833C376.876 360.465 362.943 370.735 354.482 378.047C338.235 392.059 329.367 407.73 327.372 425.959C324.085 445.249 335.852 480.476 358.081 517.816C372.302 541.685 387.905 561.586 402.31 574.698ZM486.842 345.516C487.384 346.007 487.894 346.517 488.371 347.04C496.304 355.767 507.262 369.453 518.87 383.93C527.847 395.16 537.111 406.743 546.317 417.71C570.151 450.09 569.648 484.986 544.947 511.041C529.433 527.351 511.575 544.036 495.94 556.818C474.495 574.349 456.962 585.064 443.837 588.665H443.767L443.716 588.702C438.804 591.917 432.681 592.183 425.514 589.51C406.547 582.423 380.979 554.866 358.795 517.591C336.611 480.315 324.862 445.244 328.137 426.014C330.125 407.891 338.936 392.321 355.081 378.4C371.225 364.479 392.798 353.962 409.872 346.296C423.8 339.788 440.11 336.031 454.617 335.995C468.697 335.949 480.025 339.329 486.842 345.543V345.516Z" fill="url(#paint35_linear_130_24090)"/>
</g>
</g>
<defs>
<linearGradient id="paint0_linear_130_24090" x1="-305.671" y1="439.288" x2="330.539" y2="439.288" gradientUnits="userSpaceOnUse">
<stop stop-color="#E9CBA3"/>
<stop offset="0.15" stop-color="#EEDEBC"/>
<stop offset="0.39" stop-color="#C9A885"/>
<stop offset="0.63" stop-color="#9A7A5F"/>
<stop offset="0.86" stop-color="#C9A885"/>
<stop offset="1" stop-color="#C9A885"/>
</linearGradient>
<linearGradient id="paint1_linear_130_24090" x1="-279.639" y1="442.388" x2="303.978" y2="442.388" gradientUnits="userSpaceOnUse">
<stop stop-color="#E9CBA3"/>
<stop offset="0.15" stop-color="#EEDEBC"/>
<stop offset="0.39" stop-color="#C9A885"/>
<stop offset="0.63" stop-color="#9A7A5F"/>
<stop offset="0.86" stop-color="#C9A885"/>
<stop offset="1" stop-color="#C9A885"/>
</linearGradient>
<linearGradient id="paint2_linear_130_24090" x1="-253.938" y1="445.461" x2="277.467" y2="445.461" gradientUnits="userSpaceOnUse">
<stop stop-color="#E9CBA3"/>
<stop offset="0.15" stop-color="#EEDEBC"/>
<stop offset="0.39" stop-color="#C9A885"/>
<stop offset="0.63" stop-color="#9A7A5F"/>
<stop offset="0.86" stop-color="#C9A885"/>
<stop offset="1" stop-color="#C9A885"/>
</linearGradient>
<linearGradient id="paint3_linear_130_24090" x1="-228.702" y1="448.51" x2="251.02" y2="448.51" gradientUnits="userSpaceOnUse">
<stop stop-color="#E9CBA3"/>
<stop offset="0.15" stop-color="#EEDEBC"/>
<stop offset="0.39" stop-color="#C9A885"/>
<stop offset="0.63" stop-color="#9A7A5F"/>
<stop offset="0.86" stop-color="#C9A885"/>
<stop offset="1" stop-color="#C9A885"/>
</linearGradient>
<linearGradient id="paint4_linear_130_24090" x1="-204.504" y1="451.518" x2="224.669" y2="451.518" gradientUnits="userSpaceOnUse">
<stop stop-color="#E9CBA3"/>
<stop offset="0.15" stop-color="#EEDEBC"/>
<stop offset="0.39" stop-color="#C9A885"/>
<stop offset="0.63" stop-color="#9A7A5F"/>
<stop offset="0.86" stop-color="#C9A885"/>
<stop offset="1" stop-color="#C9A885"/>
</linearGradient>
<linearGradient id="paint5_linear_130_24090" x1="-182.039" y1="454.416" x2="198.458" y2="454.416" gradientUnits="userSpaceOnUse">
<stop stop-color="#E9CBA3"/>
<stop offset="0.15" stop-color="#EEDEBC"/>
<stop offset="0.39" stop-color="#C9A885"/>
<stop offset="0.63" stop-color="#9A7A5F"/>
<stop offset="0.86" stop-color="#C9A885"/>
<stop offset="1" stop-color="#C9A885"/>
</linearGradient>
<linearGradient id="paint6_linear_130_24090" x1="-161.843" y1="456.5" x2="172.47" y2="456.5" gradientUnits="userSpaceOnUse">
<stop stop-color="#E9CBA3"/>
<stop offset="0.15" stop-color="#EEDEBC"/>
<stop offset="0.39" stop-color="#C9A885"/>
<stop offset="0.63" stop-color="#9A7A5F"/>
<stop offset="0.86" stop-color="#C9A885"/>
<stop offset="1" stop-color="#C9A885"/>
</linearGradient>
<linearGradient id="paint7_linear_130_24090" x1="-143.634" y1="452.179" x2="146.853" y2="452.179" gradientUnits="userSpaceOnUse">
<stop stop-color="#E9CBA3"/>
<stop offset="0.15" stop-color="#EEDEBC"/>
<stop offset="0.39" stop-color="#C9A885"/>
<stop offset="0.63" stop-color="#9A7A5F"/>
<stop offset="0.86" stop-color="#C9A885"/>
<stop offset="1" stop-color="#C9A885"/>
</linearGradient>
<linearGradient id="paint8_linear_130_24090" x1="-131.311" y1="447.986" x2="121.961" y2="447.986" gradientUnits="userSpaceOnUse">
<stop stop-color="#E9CBA3"/>
<stop offset="0.15" stop-color="#EEDEBC"/>
<stop offset="0.39" stop-color="#C9A885"/>
<stop offset="0.63" stop-color="#9A7A5F"/>
<stop offset="0.86" stop-color="#C9A885"/>
<stop offset="1" stop-color="#C9A885"/>
</linearGradient>
<linearGradient id="paint9_linear_130_24090" x1="-122.641" y1="443.934" x2="98.5334" y2="443.934" gradientUnits="userSpaceOnUse">
<stop stop-color="#E9CBA3"/>
<stop offset="0.15" stop-color="#EEDEBC"/>
<stop offset="0.39" stop-color="#C9A885"/>
<stop offset="0.63" stop-color="#9A7A5F"/>
<stop offset="0.86" stop-color="#C9A885"/>
<stop offset="1" stop-color="#C9A885"/>
</linearGradient>
<linearGradient id="paint10_linear_130_24090" x1="-114.97" y1="440.394" x2="79.382" y2="440.394" gradientUnits="userSpaceOnUse">
<stop stop-color="#E9CBA3"/>
<stop offset="0.15" stop-color="#EEDEBC"/>
<stop offset="0.39" stop-color="#C9A885"/>
<stop offset="0.63" stop-color="#9A7A5F"/>
<stop offset="0.86" stop-color="#C9A885"/>
<stop offset="1" stop-color="#C9A885"/>
</linearGradient>
<linearGradient id="paint11_linear_130_24090" x1="-107.752" y1="441.34" x2="78.4642" y2="441.34" gradientUnits="userSpaceOnUse">
<stop stop-color="#E9CBA3"/>
<stop offset="0.15" stop-color="#EEDEBC"/>
<stop offset="0.39" stop-color="#C9A885"/>
<stop offset="0.63" stop-color="#9A7A5F"/>
<stop offset="0.86" stop-color="#C9A885"/>
<stop offset="1" stop-color="#C9A885"/>
</linearGradient>
<linearGradient id="paint12_linear_130_24090" x1="-424.958" y1="-92.123" x2="181.524" y2="-92.123" gradientUnits="userSpaceOnUse">
<stop stop-color="#E9CBA3"/>
<stop offset="0.15" stop-color="#EEDEBC"/>
<stop offset="0.39" stop-color="#C9A885"/>
<stop offset="0.63" stop-color="#9A7A5F"/>
<stop offset="0.86" stop-color="#C9A885"/>
<stop offset="1" stop-color="#C9A885"/>
</linearGradient>
<linearGradient id="paint13_linear_130_24090" x1="-410.082" y1="-92.9541" x2="149.77" y2="-92.9541" gradientUnits="userSpaceOnUse">
<stop stop-color="#E9CBA3"/>
<stop offset="0.15" stop-color="#EEDEBC"/>
<stop offset="0.39" stop-color="#C9A885"/>
<stop offset="0.63" stop-color="#9A7A5F"/>
<stop offset="0.86" stop-color="#C9A885"/>
<stop offset="1" stop-color="#C9A885"/>
</linearGradient>
<linearGradient id="paint14_linear_130_24090" x1="-395.384" y1="-93.799" x2="118.023" y2="-93.799" gradientUnits="userSpaceOnUse">
<stop stop-color="#E9CBA3"/>
<stop offset="0.15" stop-color="#EEDEBC"/>
<stop offset="0.39" stop-color="#C9A885"/>
<stop offset="0.63" stop-color="#9A7A5F"/>
<stop offset="0.86" stop-color="#C9A885"/>
<stop offset="1" stop-color="#C9A885"/>
</linearGradient>
<linearGradient id="paint15_linear_130_24090" x1="-380.691" y1="-94.6537" x2="86.2884" y2="-94.6537" gradientUnits="userSpaceOnUse">
<stop stop-color="#E9CBA3"/>
<stop offset="0.15" stop-color="#EEDEBC"/>
<stop offset="0.39" stop-color="#C9A885"/>
<stop offset="0.63" stop-color="#9A7A5F"/>
<stop offset="0.86" stop-color="#C9A885"/>
<stop offset="1" stop-color="#C9A885"/>
</linearGradient>
<linearGradient id="paint16_linear_130_24090" x1="-366.171" y1="-95.5265" x2="54.5667" y2="-95.5265" gradientUnits="userSpaceOnUse">
<stop stop-color="#E9CBA3"/>
<stop offset="0.15" stop-color="#EEDEBC"/>
<stop offset="0.39" stop-color="#C9A885"/>
<stop offset="0.63" stop-color="#9A7A5F"/>
<stop offset="0.86" stop-color="#C9A885"/>
<stop offset="1" stop-color="#C9A885"/>
</linearGradient>
<linearGradient id="paint17_linear_130_24090" x1="-351.741" y1="-96.417" x2="22.8571" y2="-96.417" gradientUnits="userSpaceOnUse">
<stop stop-color="#E9CBA3"/>
<stop offset="0.15" stop-color="#EEDEBC"/>
<stop offset="0.39" stop-color="#C9A885"/>
<stop offset="0.63" stop-color="#9A7A5F"/>
<stop offset="0.86" stop-color="#C9A885"/>
<stop offset="1" stop-color="#C9A885"/>
</linearGradient>
<linearGradient id="paint18_linear_130_24090" x1="560.551" y1="-75.0371" x2="-75.6597" y2="-75.0371" gradientUnits="userSpaceOnUse">
<stop stop-color="#E9CBA3"/>
<stop offset="0.15" stop-color="#EEDEBC"/>
<stop offset="0.39" stop-color="#C9A885"/>
<stop offset="0.63" stop-color="#9A7A5F"/>
<stop offset="0.86" stop-color="#C9A885"/>
<stop offset="1" stop-color="#C9A885"/>
</linearGradient>
<linearGradient id="paint19_linear_130_24090" x1="534.518" y1="-78.1335" x2="-49.0987" y2="-78.1335" gradientUnits="userSpaceOnUse">
<stop stop-color="#E9CBA3"/>
<stop offset="0.15" stop-color="#EEDEBC"/>
<stop offset="0.39" stop-color="#C9A885"/>
<stop offset="0.63" stop-color="#9A7A5F"/>
<stop offset="0.86" stop-color="#C9A885"/>
<stop offset="1" stop-color="#C9A885"/>
</linearGradient>
<linearGradient id="paint20_linear_130_24090" x1="508.817" y1="-81.21" x2="-22.5878" y2="-81.21" gradientUnits="userSpaceOnUse">
<stop stop-color="#E9CBA3"/>
<stop offset="0.15" stop-color="#EEDEBC"/>
<stop offset="0.39" stop-color="#C9A885"/>
<stop offset="0.63" stop-color="#9A7A5F"/>
<stop offset="0.86" stop-color="#C9A885"/>
<stop offset="1" stop-color="#C9A885"/>
</linearGradient>
<linearGradient id="paint21_linear_130_24090" x1="483.58" y1="-84.2553" x2="3.85826" y2="-84.2553" gradientUnits="userSpaceOnUse">
<stop stop-color="#E9CBA3"/>
<stop offset="0.15" stop-color="#EEDEBC"/>
<stop offset="0.39" stop-color="#C9A885"/>
<stop offset="0.63" stop-color="#9A7A5F"/>
<stop offset="0.86" stop-color="#C9A885"/>
<stop offset="1" stop-color="#C9A885"/>
</linearGradient>
<linearGradient id="paint22_linear_130_24090" x1="459.383" y1="-87.2683" x2="30.2093" y2="-87.2683" gradientUnits="userSpaceOnUse">
<stop stop-color="#E9CBA3"/>
<stop offset="0.15" stop-color="#EEDEBC"/>
<stop offset="0.39" stop-color="#C9A885"/>
<stop offset="0.63" stop-color="#9A7A5F"/>
<stop offset="0.86" stop-color="#C9A885"/>
<stop offset="1" stop-color="#C9A885"/>
</linearGradient>
<linearGradient id="paint23_linear_130_24090" x1="436.918" y1="-90.1612" x2="56.4199" y2="-90.1612" gradientUnits="userSpaceOnUse">
<stop stop-color="#E9CBA3"/>
<stop offset="0.15" stop-color="#EEDEBC"/>
<stop offset="0.39" stop-color="#C9A885"/>
<stop offset="0.63" stop-color="#9A7A5F"/>
<stop offset="0.86" stop-color="#C9A885"/>
<stop offset="1" stop-color="#C9A885"/>
</linearGradient>
<linearGradient id="paint24_linear_130_24090" x1="416.722" y1="-92.251" x2="82.4085" y2="-92.251" gradientUnits="userSpaceOnUse">
<stop stop-color="#E9CBA3"/>
<stop offset="0.15" stop-color="#EEDEBC"/>
<stop offset="0.39" stop-color="#C9A885"/>
<stop offset="0.63" stop-color="#9A7A5F"/>
<stop offset="0.86" stop-color="#C9A885"/>
<stop offset="1" stop-color="#C9A885"/>
</linearGradient>
<linearGradient id="paint25_linear_130_24090" x1="398.519" y1="-87.929" x2="108.027" y2="-87.929" gradientUnits="userSpaceOnUse">
<stop stop-color="#E9CBA3"/>
<stop offset="0.15" stop-color="#EEDEBC"/>
<stop offset="0.39" stop-color="#C9A885"/>
<stop offset="0.63" stop-color="#9A7A5F"/>
<stop offset="0.86" stop-color="#C9A885"/>
<stop offset="1" stop-color="#C9A885"/>
</linearGradient>
<linearGradient id="paint26_linear_130_24090" x1="386.197" y1="-83.7316" x2="132.918" y2="-83.7316" gradientUnits="userSpaceOnUse">
<stop stop-color="#E9CBA3"/>
<stop offset="0.15" stop-color="#EEDEBC"/>
<stop offset="0.39" stop-color="#C9A885"/>
<stop offset="0.63" stop-color="#9A7A5F"/>
<stop offset="0.86" stop-color="#C9A885"/>
<stop offset="1" stop-color="#C9A885"/>
</linearGradient>
<linearGradient id="paint27_linear_130_24090" x1="679.837" y1="456.373" x2="73.355" y2="456.373" gradientUnits="userSpaceOnUse">
<stop stop-color="#E9CBA3"/>
<stop offset="0.15" stop-color="#EEDEBC"/>
<stop offset="0.39" stop-color="#C9A885"/>
<stop offset="0.63" stop-color="#9A7A5F"/>
<stop offset="0.86" stop-color="#C9A885"/>
<stop offset="1" stop-color="#C9A885"/>
</linearGradient>
<linearGradient id="paint28_linear_130_24090" x1="664.961" y1="457.209" x2="105.109" y2="457.209" gradientUnits="userSpaceOnUse">
<stop stop-color="#E9CBA3"/>
<stop offset="0.15" stop-color="#EEDEBC"/>
<stop offset="0.39" stop-color="#C9A885"/>
<stop offset="0.63" stop-color="#9A7A5F"/>
<stop offset="0.86" stop-color="#C9A885"/>
<stop offset="1" stop-color="#C9A885"/>
</linearGradient>
<linearGradient id="paint29_linear_130_24090" x1="650.262" y1="458.049" x2="136.856" y2="458.049" gradientUnits="userSpaceOnUse">
<stop stop-color="#E9CBA3"/>
<stop offset="0.15" stop-color="#EEDEBC"/>
<stop offset="0.39" stop-color="#C9A885"/>
<stop offset="0.63" stop-color="#9A7A5F"/>
<stop offset="0.86" stop-color="#C9A885"/>
<stop offset="1" stop-color="#C9A885"/>
</linearGradient>
<linearGradient id="paint30_linear_130_24090" x1="635.57" y1="458.904" x2="168.591" y2="458.904" gradientUnits="userSpaceOnUse">
<stop stop-color="#E9CBA3"/>
<stop offset="0.15" stop-color="#EEDEBC"/>
<stop offset="0.39" stop-color="#C9A885"/>
<stop offset="0.63" stop-color="#9A7A5F"/>
<stop offset="0.86" stop-color="#C9A885"/>
<stop offset="1" stop-color="#C9A885"/>
</linearGradient>
<linearGradient id="paint31_linear_130_24090" x1="621.051" y1="459.776" x2="200.32" y2="459.776" gradientUnits="userSpaceOnUse">
<stop stop-color="#E9CBA3"/>
<stop offset="0.15" stop-color="#EEDEBC"/>
<stop offset="0.39" stop-color="#C9A885"/>
<stop offset="0.63" stop-color="#9A7A5F"/>
<stop offset="0.86" stop-color="#C9A885"/>
<stop offset="1" stop-color="#C9A885"/>
</linearGradient>
<linearGradient id="paint32_linear_130_24090" x1="606.62" y1="460.667" x2="232.022" y2="460.667" gradientUnits="userSpaceOnUse">
<stop stop-color="#E9CBA3"/>
<stop offset="0.15" stop-color="#EEDEBC"/>
<stop offset="0.39" stop-color="#C9A885"/>
<stop offset="0.63" stop-color="#9A7A5F"/>
<stop offset="0.86" stop-color="#C9A885"/>
<stop offset="1" stop-color="#C9A885"/>
</linearGradient>
<linearGradient id="paint33_linear_130_24090" x1="592.393" y1="461.599" x2="263.693" y2="461.599" gradientUnits="userSpaceOnUse">
<stop stop-color="#E9CBA3"/>
<stop offset="0.15" stop-color="#EEDEBC"/>
<stop offset="0.39" stop-color="#C9A885"/>
<stop offset="0.63" stop-color="#9A7A5F"/>
<stop offset="0.86" stop-color="#C9A885"/>
<stop offset="1" stop-color="#C9A885"/>
</linearGradient>
<linearGradient id="paint34_linear_130_24090" x1="578.396" y1="462.582" x2="295.319" y2="462.582" gradientUnits="userSpaceOnUse">
<stop stop-color="#E9CBA3"/>
<stop offset="0.15" stop-color="#EEDEBC"/>
<stop offset="0.39" stop-color="#C9A885"/>
<stop offset="0.63" stop-color="#9A7A5F"/>
<stop offset="0.86" stop-color="#C9A885"/>
<stop offset="1" stop-color="#C9A885"/>
</linearGradient>
<linearGradient id="paint35_linear_130_24090" x1="564.596" y1="463.676" x2="326.837" y2="463.676" gradientUnits="userSpaceOnUse">
<stop stop-color="#E9CBA3"/>
<stop offset="0.15" stop-color="#EEDEBC"/>
<stop offset="0.39" stop-color="#C9A885"/>
<stop offset="0.63" stop-color="#9A7A5F"/>
<stop offset="0.86" stop-color="#C9A885"/>
<stop offset="1" stop-color="#C9A885"/>
</linearGradient>
</defs>
</svg>
