<svg width="1177" height="687" viewBox="0 0 1177 687" fill="none" xmlns="http://www.w3.org/2000/svg">
<g opacity="0.06">
<path opacity="0.0526316" d="M-100.459 757.104C-71.254 795.959 22.0891 860.978 161.82 810.214C336.483 746.76 404.035 578.559 559.924 491.344C674.982 426.973 984.148 330.349 1161.92 437.12" stroke="url(#paint0_linear_326_15041)" stroke-width="3"/>
<path opacity="0.105263" d="M-129.266 675.647C-104.282 717.342 -18.2467 791.763 126.025 755.883C306.364 711.033 391.127 550.814 555.279 480.372C676.435 428.381 994.007 364.602 1159.65 489.371" stroke="url(#paint1_linear_326_15041)" stroke-width="3"/>
<path opacity="0.157895" d="M-151.028 593.094C-130.54 637.172 -52.7546 720.178 94.4768 699.575C278.516 673.821 379.563 523.34 550.179 470.443C676.106 431.401 998.605 401.167 1150.3 542.566" stroke="url(#paint2_linear_326_15041)" stroke-width="3"/>
<path opacity="0.210526" d="M-165.671 510.182C-149.902 556.16 -81.2195 646.842 67.3589 641.742C253.082 635.367 369.305 496.273 544.515 461.499C673.833 435.834 997.726 439.476 1133.81 595.957" stroke="url(#paint3_linear_326_15041)" stroke-width="3"/>
<path opacity="0.263158" d="M-173.194 427.659C-162.318 475.034 -103.491 572.398 44.807 582.857C230.179 595.93 360.304 469.746 538.19 453.478C669.483 441.47 991.22 478.948 1110.2 648.796" stroke="url(#paint4_linear_326_15041)" stroke-width="3"/>
<path opacity="0.315789" d="M-173.679 346.269C-167.815 394.522 -119.487 497.501 26.9053 523.404C209.895 555.782 352.498 443.892 531.109 446.306C662.938 448.088 978.995 518.992 1079.57 700.346" stroke="url(#paint5_linear_326_15041)" stroke-width="3"/>
<path opacity="0.368421" d="M-167.282 266.74C-166.493 315.341 -129.194 422.808 13.6883 463.871C192.291 515.199 345.808 418.828 523.189 439.899C654.109 455.452 961.024 559.004 1042.09 749.877" stroke="url(#paint6_linear_326_15041)" stroke-width="3"/>
<path opacity="0.421053" d="M-154.235 189.783C-158.53 238.2 -132.669 348.977 5.13815 404.75C177.398 474.467 340.147 394.67 514.353 434.167C642.931 463.319 937.34 598.386 998.009 796.687" stroke="url(#paint7_linear_326_15041)" stroke-width="3"/>
<path opacity="0.473684" d="M-134.842 116.075C-144.175 163.777 -130.035 276.651 1.18733 346.524C165.216 433.864 335.415 371.517 504.538 429.007C629.364 471.439 908.042 636.54 947.65 840.096" stroke="url(#paint8_linear_326_15041)" stroke-width="3"/>
<path opacity="0.526316" d="M-109.48 46.2651C-123.748 92.7311 -121.484 206.465 1.71572 289.671C155.716 393.678 331.5 349.463 493.687 424.317C613.394 479.564 873.287 672.89 891.401 879.472" stroke="url(#paint9_linear_326_15041)" stroke-width="3"/>
<path opacity="0.578947" d="M-78.588 -19.0474C-97.6349 25.6727 -107.272 139.02 6.55616 234.648C148.841 354.183 328.284 328.585 481.758 419.981C595.034 487.439 833.296 706.872 829.717 914.215" stroke="url(#paint10_linear_326_15041)" stroke-width="3"/>
<path opacity="0.631579" d="M-42.6665 -79.3055C-66.2836 -36.8214 -87.7156 74.8974 15.4929 181.9C144.503 315.653 325.639 308.952 468.719 415.89C574.323 494.819 788.343 737.955 763.11 943.788" stroke="url(#paint11_linear_326_15041)" stroke-width="3"/>
<path opacity="0.684211" d="M-2.27096 -134.012C-30.1995 -94.2295 -63.1919 14.6371 28.2664 131.842C142.589 278.348 323.433 290.616 454.551 411.925C551.326 501.46 738.759 765.636 692.149 967.704" stroke="url(#paint12_linear_326_15041)" stroke-width="3"/>
<path opacity="0.736842" d="M41.9928 -182.732C10.0588 -146.086 -34.1325 -41.2647 44.5735 84.8579C142.956 242.511 321.527 273.616 439.246 407.966C526.133 507.126 684.925 789.446 617.448 985.536" stroke="url(#paint13_linear_326_15041)" stroke-width="3"/>
<path opacity="0.789474" d="M89.4799 -225.09C53.8904 -191.984 -1.01568 -92.3555 64.0758 41.3033C145.44 208.377 319.781 257.977 422.813 403.896C498.858 511.595 627.269 808.967 539.666 996.929" stroke="url(#paint14_linear_326_15041)" stroke-width="3"/>
<path opacity="0.842105" d="M139.506 -260.787C100.65 -231.582 35.6312 -138.239 86.3949 1.49139C149.85 176.154 318.051 243.707 405.265 399.596C469.636 514.654 566.261 823.819 459.49 1001.59" stroke="url(#paint15_linear_326_15041)" stroke-width="3"/>
<path opacity="0.894737" d="M191.36 -289.596C149.665 -264.612 75.2453 -178.577 111.125 -34.3056C155.975 146.033 316.194 230.797 386.636 394.949C438.627 516.105 502.405 833.677 377.637 999.318" stroke="url(#paint16_linear_326_15041)" stroke-width="3"/>
<path opacity="0.947368" d="M244.314 -311.358C200.236 -290.869 117.23 -213.084 137.833 -65.8528C163.587 118.186 314.067 219.233 366.965 389.849C406.007 515.776 436.241 838.275 294.841 989.966" stroke="url(#paint17_linear_326_15041)" stroke-width="3"/>
<path d="M297.625 -326C251.646 -310.231 160.965 -241.549 166.065 -92.9702C172.44 92.7528 311.534 208.976 346.308 384.186C371.973 513.504 368.331 837.397 211.85 973.477" stroke="url(#paint18_linear_326_15041)" stroke-width="3"/>
</g>
<defs>
<linearGradient id="paint0_linear_326_15041" x1="105.032" y1="634.231" x2="164.918" y2="810.326" gradientUnits="userSpaceOnUse">
<stop stop-color="#CC966A"/>
<stop offset="1" stop-color="#D39A6B"/>
</linearGradient>
<linearGradient id="paint1_linear_326_15041" x1="87.943" y1="574.927" x2="129.094" y2="756.318" gradientUnits="userSpaceOnUse">
<stop stop-color="#CC966A"/>
<stop offset="1" stop-color="#D39A6B"/>
</linearGradient>
<linearGradient id="paint2_linear_326_15041" x1="75.5189" y1="515.63" x2="97.4839" y2="700.328" gradientUnits="userSpaceOnUse">
<stop stop-color="#CC966A"/>
<stop offset="1" stop-color="#D39A6B"/>
</linearGradient>
<linearGradient id="paint3_linear_326_15041" x1="67.7323" y1="456.823" x2="70.2708" y2="642.806" gradientUnits="userSpaceOnUse">
<stop stop-color="#CC966A"/>
<stop offset="1" stop-color="#D39A6B"/>
</linearGradient>
<linearGradient id="paint4_linear_326_15041" x1="64.5077" y1="398.99" x2="47.5918" y2="584.219" gradientUnits="userSpaceOnUse">
<stop stop-color="#CC966A"/>
<stop offset="1" stop-color="#D39A6B"/>
</linearGradient>
<linearGradient id="paint5_linear_326_15041" x1="65.7173" y1="342.604" x2="29.5323" y2="525.05" gradientUnits="userSpaceOnUse">
<stop stop-color="#CC966A"/>
<stop offset="1" stop-color="#D39A6B"/>
</linearGradient>
<linearGradient id="paint6_linear_326_15041" x1="71.1865" y1="288.118" x2="16.1289" y2="465.783" gradientUnits="userSpaceOnUse">
<stop stop-color="#CC966A"/>
<stop offset="1" stop-color="#D39A6B"/>
</linearGradient>
<linearGradient id="paint7_linear_326_15041" x1="80.6926" y1="235.971" x2="7.36559" y2="406.907" gradientUnits="userSpaceOnUse">
<stop stop-color="#CC966A"/>
<stop offset="1" stop-color="#D39A6B"/>
</linearGradient>
<linearGradient id="paint8_linear_326_15041" x1="93.9702" y1="186.566" x2="3.17718" y2="348.901" gradientUnits="userSpaceOnUse">
<stop stop-color="#CC966A"/>
<stop offset="1" stop-color="#D39A6B"/>
</linearGradient>
<linearGradient id="paint9_linear_326_15041" x1="110.71" y1="140.288" x2="3.44617" y2="292.243" gradientUnits="userSpaceOnUse">
<stop stop-color="#CC966A"/>
<stop offset="1" stop-color="#D39A6B"/>
</linearGradient>
<linearGradient id="paint10_linear_326_15041" x1="130.569" y1="97.4764" x2="8.00825" y2="237.387" gradientUnits="userSpaceOnUse">
<stop stop-color="#CC966A"/>
<stop offset="1" stop-color="#D39A6B"/>
</linearGradient>
<linearGradient id="paint11_linear_326_15041" x1="153.164" y1="58.4427" x2="16.6507" y2="184.776" gradientUnits="userSpaceOnUse">
<stop stop-color="#CC966A"/>
<stop offset="1" stop-color="#D39A6B"/>
</linearGradient>
<linearGradient id="paint12_linear_326_15041" x1="178.088" y1="23.4513" x2="29.1173" y2="134.823" gradientUnits="userSpaceOnUse">
<stop stop-color="#CC966A"/>
<stop offset="1" stop-color="#D39A6B"/>
</linearGradient>
<linearGradient id="paint13_linear_326_15041" x1="204.905" y1="-7.27815" x2="45.1081" y2="87.9116" gradientUnits="userSpaceOnUse">
<stop stop-color="#CC966A"/>
<stop offset="1" stop-color="#D39A6B"/>
</linearGradient>
<linearGradient id="paint14_linear_326_15041" x1="233.159" y1="-33.5689" x2="64.2883" y2="44.3961" gradientUnits="userSpaceOnUse">
<stop stop-color="#CC966A"/>
<stop offset="1" stop-color="#D39A6B"/>
</linearGradient>
<linearGradient id="paint15_linear_326_15041" x1="262.379" y1="-55.2965" x2="86.283" y2="4.58953" gradientUnits="userSpaceOnUse">
<stop stop-color="#CC966A"/>
<stop offset="1" stop-color="#D39A6B"/>
</linearGradient>
<linearGradient id="paint16_linear_326_15041" x1="292.081" y1="-72.3871" x2="110.69" y2="-31.2361" gradientUnits="userSpaceOnUse">
<stop stop-color="#CC966A"/>
<stop offset="1" stop-color="#D39A6B"/>
</linearGradient>
<linearGradient id="paint17_linear_326_15041" x1="321.778" y1="-84.8107" x2="137.079" y2="-62.8457" gradientUnits="userSpaceOnUse">
<stop stop-color="#CC966A"/>
<stop offset="1" stop-color="#D39A6B"/>
</linearGradient>
<linearGradient id="paint18_linear_326_15041" x1="350.984" y1="-92.5968" x2="165.001" y2="-90.0583" gradientUnits="userSpaceOnUse">
<stop stop-color="#CC966A"/>
<stop offset="1" stop-color="#D39A6B"/>
</linearGradient>
</defs>
</svg>
