<svg width="64" height="64" viewBox="0 0 64 64" fill="none" xmlns="http://www.w3.org/2000/svg">
<rect width="64" height="64" rx="32" fill="white"/>
<path d="M48.6964 33.8591L48.6943 34.6092L30.3555 45.2665L30.3576 44.5165L48.6964 33.8591Z" fill="#DEDFFB"/>
<path d="M30.3572 44.5165L30.3551 45.2666L15.3047 36.5772L15.3068 35.8271L30.3572 44.5165Z" fill="#D3D5F2"/>
<path d="M48.6958 33.8591L30.357 44.5165L15.3066 35.8271L33.6454 25.1698L48.6958 33.8591Z" fill="#E9E7FC"/>
<path d="M48.5262 30.1128L48.5237 30.9879L34.0039 45.5315L34.0064 44.6564L48.5262 30.1128Z" fill="#DEDFFB"/>
<path d="M34.0064 44.6564L34.0039 45.5315L15.6289 39.3538L15.6314 38.4788L34.0064 44.6564Z" fill="#D3D5F2"/>
<path d="M48.5257 30.1128L34.0059 44.6564L15.6309 38.4788L30.1517 23.9346L48.5257 30.1128Z" fill="#F3F1FC"/>
<path d="M28.6582 40.2843L34.8183 34.1145L39.5072 35.6915L33.3485 41.8608L28.6582 40.2843Z" fill="#E9E7FC"/>
<path d="M45.4198 29.8043L32.157 25.3445L29.4863 28.0195L42.7498 32.4787L45.4198 29.8043Z" fill="#4C5C75"/>
<path d="M41.9652 33.2654L28.7025 28.8055L28.1055 29.4035L41.3689 33.8627L41.9652 33.2654Z" fill="#E9E7FC"/>
<path d="M40.773 34.46L27.5102 30.0001L27.2598 30.251L40.5232 34.7101L40.773 34.46Z" fill="#E9E7FC"/>
<path d="M39.2265 29.1424C39.1658 29.2113 39.0666 29.174 39.0043 29.1614C38.7727 29.0989 38.5116 29.0999 38.3416 29.2717L37.9339 29.6842C37.8727 29.7466 37.7693 29.7367 37.7033 29.6986C37.6581 29.6725 37.6583 29.6379 37.6923 29.6032C38.4214 28.8797 38.3923 28.865 38.4771 28.8505C38.5561 28.8362 38.7109 28.8908 38.6279 28.9701L38.5381 29.0611C38.7382 28.9762 38.9734 28.99 39.18 29.0549C39.2353 29.0694 39.2643 29.0971 39.2265 29.1424Z" fill="white"/>
<path d="M42.727 30.259C43.0327 30.3619 43.1003 30.3785 43.1355 30.3989C43.1481 30.4062 43.157 30.414 43.1624 30.4226C43.1709 30.4373 43.1663 30.453 43.1495 30.4704C43.1337 30.4873 43.1102 30.4976 43.083 30.5014C43.0154 30.5108 42.9848 30.4826 42.6207 30.3666L42.2046 30.7872C42.1076 30.8848 42.09 30.9734 42.2078 31.0414C42.2598 31.0714 42.3515 31.1032 42.4119 31.1106C42.4959 31.122 42.5551 31.1365 42.4969 31.1975C42.4668 31.2267 42.426 31.2444 42.3761 31.2394C42.1729 31.211 41.8199 31.1068 41.845 30.9046C41.8657 30.7596 42.0287 30.6616 42.3819 30.2873L42.1846 30.221C42.0502 30.1778 42.1444 30.0663 42.2909 30.1134L42.4883 30.1797C42.6729 30.0041 42.6859 29.9531 42.7666 29.9427C42.7994 29.9378 42.836 29.9416 42.8726 29.9541C43.0388 30.0109 42.8905 30.0845 42.727 30.259Z" fill="white"/>
<path d="M42.0248 30.1161C42.0745 30.1756 41.9681 30.2252 41.8808 30.2042C41.8114 30.185 41.8362 30.1382 41.7076 30.0639C41.1807 29.7597 40.6203 30.182 40.6934 30.4395C40.7235 30.5456 40.8482 30.6057 40.9535 30.6405C41.0735 30.6806 41.1981 30.6905 41.3243 30.6824C41.4721 30.6717 41.481 30.7975 41.3344 30.8063C41.0607 30.8322 40.6782 30.7483 40.5102 30.5699C40.2353 30.2857 40.6374 29.9053 41.0549 29.8324C41.1524 29.8161 41.2537 29.8118 41.3589 29.8216C41.5721 29.8405 41.9104 29.9346 42.0248 30.1161Z" fill="white"/>
<path d="M39.7719 30.3667C39.7261 30.3772 39.6707 30.3631 39.6357 30.343C39.5488 30.2928 39.653 30.2306 39.7108 30.1657C39.561 30.2329 39.3314 30.2504 39.1085 30.1754C38.6522 30.0232 38.7213 29.7015 39.0689 29.6315C39.3358 29.5809 39.7868 29.7433 40.0388 29.8261C40.0672 29.791 40.2028 29.688 40.1682 29.5956C40.1437 29.5315 40.0387 29.4902 39.9733 29.469C39.8156 29.4153 39.6513 29.3964 39.485 29.3918C39.3136 29.3866 39.3573 29.2573 39.5134 29.263C39.7567 29.2713 40.1707 29.3336 40.3544 29.495C40.4871 29.6086 40.4326 29.7363 40.3095 29.8613C39.8411 30.3231 39.8532 30.351 39.7719 30.3667ZM39.7197 30.0798C39.7908 30.0537 39.8497 30.0162 39.8982 29.9673L39.9491 29.9162C39.776 29.8584 39.4126 29.7278 39.2347 29.7532C39.0434 29.7804 38.9347 29.9775 39.2497 30.0847C39.4102 30.1377 39.578 30.1317 39.7197 30.0798Z" fill="white"/>
<path d="M36.7356 28.2897C36.7875 28.3392 36.8075 28.3941 36.7976 28.4544C36.7707 28.6042 36.6012 28.7113 36.2205 29.1136C36.1972 29.1359 36.1701 29.1505 36.1373 29.1554C36.0531 29.1707 35.8989 29.1172 35.9808 29.0337C36.3398 28.6489 36.5558 28.5169 36.5148 28.3897C36.4633 28.23 35.911 28.0898 35.6318 28.3685L35.2242 28.781C35.1611 28.8451 35.0613 28.8348 34.9928 28.7953C34.8952 28.7389 34.9935 28.7062 35.6888 27.9908C35.7731 27.9049 35.9199 27.9626 35.9422 28.0061C35.9615 28.0491 35.8987 28.0839 35.8384 28.1521C36.1686 28.0307 36.5907 28.1555 36.7356 28.2897Z" fill="white"/>
<path d="M37.9117 28.3047C37.927 28.3135 37.9373 28.3236 37.9424 28.3349C37.9509 28.3539 37.9444 28.374 37.9221 28.3968L37.7271 28.593C38.0293 28.6947 38.1023 28.7133 38.1371 28.7334C38.1696 28.7521 38.1769 28.7758 38.1505 28.8038C38.0688 28.8884 37.9386 28.7945 37.6217 28.7001C37.2751 29.0716 37.0953 29.1741 37.1296 29.2924C37.1384 29.3227 37.1645 29.3504 37.2078 29.3754C37.3284 29.445 37.4269 29.4403 37.4852 29.4598C37.5541 29.4769 37.5088 29.5392 37.4473 29.5647C37.4029 29.5834 37.3555 29.5716 37.2718 29.5554C36.9322 29.4812 36.7 29.3145 36.9519 29.0555L37.3829 28.6207C37.2346 28.5698 37.1409 28.5504 37.1234 28.5153C37.1017 28.4753 37.1707 28.4081 37.2919 28.4479L37.4883 28.5137C37.6814 28.3299 37.6873 28.2869 37.7666 28.2767C37.8003 28.2713 37.836 28.2756 37.8727 28.2881C37.888 28.293 37.9011 28.2985 37.9117 28.3047Z" fill="white"/>
<path d="M34.4809 28.4777C34.2754 28.5159 34.0604 28.4938 33.867 28.4288C32.8415 28.0907 34.0058 27.1323 34.908 27.6531C35.3836 27.9278 34.9618 28.3919 34.4809 28.4777ZM34.5099 28.3005C34.6697 28.2328 34.9009 28.0331 34.849 27.8701C34.7827 27.6619 34.2146 27.4845 33.8497 27.8522C33.6504 28.0514 33.7031 28.2277 33.9771 28.3179C34.1576 28.3778 34.3444 28.371 34.5099 28.3005Z" fill="white"/>
<path d="M34.0583 27.0104C34.1333 27.1075 33.9278 27.1831 33.8316 27.0778C33.6606 26.8225 33.0362 26.6179 32.5599 26.8213C32.3533 26.9095 32.0771 27.1359 32.0365 27.3512C31.9653 27.7242 32.6595 27.8952 33.0658 27.8598C33.2205 27.8536 33.2516 27.9383 33.1725 27.9843C33.1044 28.0202 32.7222 28.0483 32.3221 27.9136C31.7552 27.7249 31.5511 27.3824 31.9565 26.9713C32.6087 26.313 33.8097 26.621 34.0583 27.0104Z" fill="white"/>
<path d="M24.205 39.9862C18.4386 36.6436 18.6931 36.8561 18.6931 36.76C18.6931 36.6635 18.1517 37.0448 27.7501 31.4445C27.7773 31.4288 27.8103 31.4288 27.8374 31.4445C33.6044 34.7957 33.3439 34.5796 33.3439 34.6753C33.3439 34.7717 33.879 34.3942 24.2922 39.9861C24.2662 40.0011 24.2334 40.0022 24.205 39.9862ZM18.9536 36.7595L24.2481 39.8103L33.0833 34.6756L27.7939 31.6202L18.9536 36.7595Z" fill="#F45170"/>
<path d="M21.6424 37.5837L20.3384 36.8321C20.2799 36.7981 20.2811 36.7146 20.338 36.6815L25.5585 33.6465C25.5999 33.6226 25.6532 33.6363 25.6774 33.6781C25.7015 33.7195 25.6875 33.7729 25.6461 33.797L20.5554 36.7564L21.7293 37.4329C21.7708 37.457 21.785 37.5101 21.7612 37.5517C21.7367 37.5937 21.6835 37.6073 21.6424 37.5837Z" fill="#F45170"/>
<path d="M22.2661 37.9431C22.2246 37.919 22.2104 37.8658 22.2342 37.8242C22.2583 37.7822 22.3123 37.7685 22.353 37.7923L24.2474 38.884L25.0738 38.4037C25.1739 38.3455 25.2603 38.4966 25.1615 38.5541L24.2916 39.0597C24.2219 39.0998 24.3044 39.1125 22.2661 37.9431Z" fill="#F45170"/>
<path d="M26.5631 37.5371L31.4833 34.6778L30.9521 34.3707C30.9106 34.3468 30.8964 34.2936 30.9201 34.252C30.9443 34.21 30.9979 34.1963 31.039 34.2202L31.7004 34.6024C31.7586 34.6359 31.7578 34.7196 31.7007 34.7528L26.6508 37.6876C26.5501 37.7453 26.4646 37.5945 26.5631 37.5371Z" fill="#F45170"/>
<path d="M30.1369 33.8862C30.122 33.8862 30.107 33.8824 30.0934 33.8744L27.7949 32.547L26.7772 33.1389C26.7351 33.1625 26.6821 33.1489 26.6583 33.1073C26.6342 33.0658 26.6481 33.0127 26.6896 32.9884L27.751 32.3712C27.7782 32.3556 27.8112 32.3556 27.8383 32.3712L30.1804 33.724C30.2218 33.7479 30.2361 33.8011 30.2123 33.8427C30.196 33.8705 30.1668 33.8862 30.1369 33.8862Z" fill="#F45170"/>
<path d="M30.1965 34.68L24.2457 38.1382L21.8438 36.7542L27.7981 33.2925L30.1965 34.68Z" fill="#F45170"/>
<path d="M18.1104 32.6067L15.6207 31.1598L15.6113 26.3013L18.101 27.7481L18.1104 32.6067Z" fill="#9EA9C9"/>
<path d="M17.0569 27.0279L17.0494 31.6181L16.766 31.8257L16.6641 31.7672L16.6716 26.806L16.775 26.8645V26.866L17.0569 27.0279Z" fill="#1D2943"/>
<path d="M17.0565 27.0279L17.049 31.9891L16.7656 31.8257L16.7746 26.866V26.8645L17.0565 27.0279Z" fill="#4C5C75"/>
<path d="M23.5626 25.1949L21.4492 23.9668L21.79 23.77L23.9033 24.9982L23.5626 25.1949Z" fill="#CAD0DB"/>
<path d="M23.8355 25.0375L21.1938 23.5023L21.1875 21.2727L23.8292 22.8079L23.8355 25.0375Z" fill="#7E5AF2"/>
<path d="M18.101 27.7481L15.6113 26.3012L15.9531 26.1039L18.4428 27.5507L18.101 27.7481Z" fill="#CAD0DB"/>
<path d="M18.4433 27.5507L15.9536 26.1039L15.9473 24.474L18.437 25.9209L18.4433 27.5507Z" fill="#7E8188"/>
<path d="M18.437 25.9209L15.9473 24.4741L21.0665 21.5184L23.5563 22.9653L18.437 25.9209Z" fill="#CAD0DB"/>
<path d="M23.9023 24.9995L23.7043 25.1118L23.6983 22.8826L18.4356 25.9219L18.4415 27.551L18.1016 27.7491L18.1104 32.6076L23.9112 29.2578L23.9023 24.9995ZM23.3997 28.8823L19.0477 31.3954L19.0417 28.9089L23.3997 26.3899V28.8823Z" fill="#B0B8CF"/>
<path d="M18.1442 28.323L15.5025 26.7878L15.4902 22.4464L18.1319 23.9816L18.1442 28.323Z" fill="#7E5AF2"/>
<path d="M24.2385 20.0713C23.2781 19.511 18.1292 22.6091 18.132 23.9814L15.4902 22.4461C15.4876 21.0807 20.631 17.9727 21.5968 18.536L24.2385 20.0713Z" fill="#B28AFD"/>
<path d="M24.3941 20.3667L24.4064 24.7081L23.8359 25.0375L23.8296 23.1603L18.7103 26.116L18.7166 27.9931L18.1451 28.323L18.1328 23.9816C18.1285 22.4692 24.3898 18.8543 24.3941 20.3667Z" fill="#986FF9"/>
<path d="M17.0602 24.8761L17.0539 26.8645L16.575 26.5858L16.4707 26.5273L16.477 24.5405L17.0602 24.8761Z" fill="#986FF9"/>
<path d="M17.061 24.876L17.0547 26.8644L16.7154 26.6669L16.7216 24.6817L16.582 24.5989L17.061 24.876Z" fill="#B28AFD"/>
</svg>
