<svg width="64" height="64" viewBox="0 0 64 64" fill="none" xmlns="http://www.w3.org/2000/svg">
<rect width="64" height="64" rx="32" fill="white"/>
<path d="M27.5403 22.8663L26.8207 23.6679C26.3035 24.2439 26.163 25.1588 26.5216 26.2787C27.243 28.5315 29.7111 30.7602 32.0328 31.2571C33.2034 31.5077 34.1139 31.2718 34.6376 30.6886L35.3572 29.887C34.8335 30.4703 33.9231 30.7061 32.7525 30.4556C30.4308 29.9586 27.9627 27.73 27.2413 25.4772C26.8826 24.3573 27.0231 23.4424 27.5403 22.8663Z" fill="#DBE6FA"/>
<path d="M27.2413 25.4772C27.7239 26.9844 28.9896 28.478 30.4691 29.4522L29.7468 30.252C28.2685 29.2778 27.004 27.785 26.5216 26.2787C26.163 25.1588 26.3035 24.2439 26.8207 23.6678L27.5403 22.8663C27.0231 23.4423 26.8826 24.3573 27.2413 25.4772Z" fill="#CBDBF4"/>
<path d="M30.1392 22.2977C27.8174 21.8007 26.5189 23.2244 27.2404 25.4772C27.9618 27.73 30.4299 29.9587 32.7516 30.4556C35.0774 30.9534 36.3764 29.5311 35.655 27.2783C34.9335 25.0254 32.465 22.7955 30.1392 22.2977Z" fill="#EBF2FF"/>
<path d="M33.4736 16.8717L27.9696 22.9713C27.4904 23.505 27.3603 24.3526 27.6925 25.3901C28.3608 27.4772 30.6474 29.5419 32.7983 30.0023C33.8828 30.2344 34.7263 30.016 35.2115 29.4756L40.7155 23.376C40.2303 23.9164 39.3868 24.1348 38.3024 23.9027C36.1514 23.4423 33.8649 21.3776 33.1965 19.2905C32.8643 18.253 32.9944 17.4054 33.4736 16.8717Z" fill="#804F59"/>
<path d="M29.1959 21.6127L28.7746 22.0792C28.2952 22.614 28.1652 23.4608 28.4964 24.4997C29.1647 26.5862 31.4515 28.6511 33.603 29.1107C34.6871 29.3428 35.5308 29.123 36.0174 28.5841L36.43 28.1272C35.943 28.6587 35.1028 28.8747 34.0243 28.6441C31.8746 28.1826 29.5878 26.1177 28.9195 24.0312C28.5865 22.9943 28.7165 22.1475 29.1959 21.6127Z" fill="#FFCA6C"/>
<path d="M28.9195 24.0312C29.1332 24.6984 29.5136 25.3627 30.0009 25.9738L29.5779 26.4422C29.0906 25.8312 28.7102 25.1669 28.4964 24.4996C28.1652 23.4608 28.2952 22.614 28.7746 22.0792L29.1959 21.6127C28.7165 22.1475 28.5865 22.9943 28.9195 24.0312Z" fill="#FFCA6C"/>
<path d="M31.8424 18.6819L31.4211 19.1484C30.9417 19.6832 30.8117 20.53 31.1429 21.5689C31.8112 23.6554 34.098 25.7203 36.2495 26.1799C37.3336 26.4121 38.1773 26.1922 38.6639 25.6534L39.0765 25.1964C38.5895 25.7279 37.7493 25.9439 36.6708 25.7134C34.521 25.2518 32.2343 23.1869 31.566 21.1004C31.233 20.0635 31.363 19.2167 31.8424 18.6819Z" fill="#FFCA6C"/>
<path d="M31.566 21.1004C31.7797 21.7676 32.1601 22.4319 32.6474 23.043L32.2244 23.5114C31.7371 22.9004 31.3566 22.2361 31.1429 21.5689C30.8117 20.53 30.9417 19.6832 31.4211 19.1485L31.8424 18.6819C31.363 19.2167 31.233 20.0635 31.566 21.1004Z" fill="#FFCA6C"/>
<path d="M33.5931 16.1626L32.8734 16.9641C32.3562 17.5402 32.2157 18.4551 32.5743 19.575C33.2958 21.8278 35.7638 24.0564 38.0856 24.5534C39.2561 24.8039 40.1666 24.5681 40.6903 23.9848L41.4099 23.1833C40.8863 23.7666 39.9758 24.0024 38.8052 23.7518C36.4835 23.2549 34.0154 21.0263 33.294 18.7734C32.9354 17.6536 33.0759 16.7386 33.5931 16.1626Z" fill="#DBE6FA"/>
<path d="M33.294 18.7734C33.7766 20.2807 35.0423 21.7743 36.5218 22.7485L35.7996 23.5483C34.3213 22.574 33.0567 21.0813 32.5743 19.575C32.2157 18.4551 32.3562 17.5401 32.8734 16.9641L33.5931 16.1626C33.0759 16.7386 32.9354 17.6536 33.294 18.7734Z" fill="#CBDBF4"/>
<path d="M36.1938 15.5939C33.8721 15.097 32.5736 16.5206 33.295 18.7735C34.0165 21.0263 36.4845 23.2549 38.8063 23.7519C41.1321 24.2497 42.4311 22.8274 41.7096 20.5746C40.9882 18.3217 38.5197 16.0918 36.1938 15.5939Z" fill="#EBF2FF"/>
<path d="M36.7982 17.4806C35.5502 17.2134 34.8522 17.9787 35.24 19.1897C35.6278 20.4007 36.9545 21.5988 38.2026 21.8659C39.4528 22.1335 40.1511 21.3689 39.7633 20.1579C39.3755 18.9469 38.0485 17.7482 36.7982 17.4806Z" fill="#CBDBF4"/>
<path d="M39.6924 29.0856C39.6054 28.9937 39.3733 29.0373 39.0349 29.2307C38.4643 29.5595 37.8116 30.1977 37.5747 30.6474C37.478 30.8359 37.4635 30.9617 37.5215 31.0245L35.3895 28.6397C35.3364 28.5769 35.346 28.4512 35.4427 28.2674C35.848 27.4899 37.3025 26.4127 37.5605 26.7009L39.6924 29.0856Z" fill="#FFDE9B"/>
<path d="M39.6929 29.0878C39.6038 28.9941 39.3741 29.0362 39.0366 29.2285L36.9082 26.8516C37.2458 26.6547 37.4802 26.6078 37.5599 26.7015L39.6929 29.0878Z" fill="#FFCA6C"/>
<path d="M39.0356 29.2309C38.4652 29.5602 37.8101 30.1958 37.5728 30.6497C37.335 31.1045 37.6046 31.2063 38.175 30.877C38.7441 30.5484 39.3993 29.9127 39.6371 29.4579C39.8744 29.004 39.6048 28.9023 39.0356 29.2309Z" fill="#FFB63C"/>
<path d="M49.4378 40.5079C49.3718 40.4382 49.1957 40.4713 48.9389 40.618C48.5061 40.8674 48.011 41.3515 47.8313 41.6927C47.7579 41.8357 47.7469 41.9311 47.7909 41.9788L37.9638 30.9587C37.9235 30.9111 37.9308 30.8157 38.0042 30.6763C38.1839 30.3315 38.6828 29.851 39.1155 29.6016C39.3723 29.4513 39.5483 29.4182 39.6107 29.4879L49.4378 40.5079Z" fill="#70444D"/>
<path d="M49.4372 40.508C49.3712 40.4383 49.1951 40.4713 48.9384 40.618C48.5055 40.8674 48.0104 41.3516 47.8307 41.6927C47.7573 41.8358 47.7463 41.9311 47.7903 41.9788L44.1455 37.8915C44.1051 37.8438 44.1125 37.7485 44.1858 37.609C44.3655 37.2643 44.8644 36.7838 45.2972 36.5344C45.5539 36.384 45.73 36.351 45.7923 36.4206L49.4372 40.508Z" fill="#FFDE9B"/>
<path d="M49.4365 40.5079C49.3708 40.4376 49.1927 40.4705 48.9395 40.6158L45.2969 36.5325C45.5547 36.3825 45.7281 36.3496 45.7938 36.4199L49.4365 40.5079Z" fill="#FFCA6C"/>
<path d="M48.939 40.6182C48.5063 40.868 48.0093 41.3502 47.8293 41.6945C47.6489 42.0395 47.8534 42.1167 48.2861 41.8669C48.7179 41.6176 49.2149 41.1354 49.3953 40.7904C49.5753 40.4461 49.3707 40.3689 48.939 40.6182Z" fill="#FFB63C"/>
<path d="M17.8088 46.6198C13.4445 44.0838 13.4493 39.9229 17.8223 37.3982C22.1657 34.8901 29.2108 34.8897 33.5272 37.3982C37.904 39.9418 37.8888 44.0877 33.4708 46.6383C29.1482 49.1342 22.1219 49.1266 17.8088 46.6198ZM25.6849 35.7679C22.887 35.7679 20.0865 36.3847 17.9495 37.6184C13.7496 40.0433 13.741 43.9619 17.9367 46.3996C22.1792 48.8652 29.0905 48.8737 33.3436 46.4181C37.5892 43.9669 37.6075 40.0637 33.3994 37.6184C31.2769 36.3847 28.4821 35.7679 25.6849 35.7679Z" fill="#CBDBF4"/>
<path d="M14.9023 38.1694L14.9062 40.453C14.9108 42.0797 15.9803 43.7058 18.1094 44.9432C22.4046 47.4393 29.3529 47.4393 33.6439 44.9618C35.8208 43.7051 36.9086 42.0599 36.904 40.4175L36.9001 38.1339C36.9047 39.7763 35.8169 41.4215 33.64 42.6782C29.349 45.1557 22.4007 45.1556 18.1056 42.6596C15.9764 41.4222 14.907 39.7961 14.9023 38.1694Z" fill="#DBE6FA"/>
<path d="M36.8994 38.1339C36.904 39.7763 35.8161 41.4214 33.6393 42.6782C30.637 44.4116 26.3359 44.9276 22.5508 44.229V46.5118C26.3368 47.2115 30.6398 46.6958 33.6432 44.9618C35.82 43.705 36.9079 42.0599 36.9032 40.4175L36.8994 38.1339Z" fill="#CBDBF4"/>
<path d="M36.9007 38.1339C36.9053 39.7763 35.8175 41.4214 33.6406 42.6783C33.1566 42.9577 32.6358 43.2021 32.0918 43.4183V45.7034C32.6372 45.4869 33.1593 45.242 33.6445 44.9619C35.8213 43.705 36.9092 42.0599 36.9045 40.4175L36.9007 38.1339Z" fill="#BBCFEF"/>
<path d="M18.1188 33.6582C13.8277 36.1356 13.8371 40.1789 18.1056 42.6595C22.4007 45.1556 29.349 45.1556 33.6401 42.6782C37.9633 40.1821 37.9914 36.1543 33.6962 33.6583C29.4277 31.1777 22.442 31.1622 18.1188 33.6582Z" fill="#EBF2FF"/>
<path d="M17.3145 37.3238L17.3182 38.7262C17.3218 39.9961 18.156 41.2651 19.8163 42.23C23.1711 44.1796 28.5974 44.1796 31.9484 42.2449C33.6476 41.2639 34.4962 39.9806 34.4926 38.6993L34.4889 37.2969C34.4925 38.5782 33.6438 39.8614 31.9447 40.8425C28.5937 42.7771 23.1674 42.7771 19.8126 40.8275C18.1523 39.8627 17.3181 38.5936 17.3145 37.3238Z" fill="#70444D"/>
<path d="M34.4881 37.2969C34.4918 38.5782 33.6431 39.8614 31.9439 40.8425C30.7165 41.5512 29.2096 41.9975 27.6289 42.1863V43.5893C29.2109 43.4008 30.7192 42.9542 31.9477 42.2449C33.6469 41.2639 34.4955 39.9806 34.4918 38.6993L34.4881 37.2969Z" fill="#512E35"/>
<path d="M19.8178 40.8224C23.1726 42.7813 28.5918 42.7813 31.9466 40.8459C35.3248 38.8987 35.3365 35.7551 31.9818 33.7962C28.6504 31.8608 23.2077 31.849 19.8295 33.7962C16.4748 35.7317 16.4865 38.887 19.8178 40.8224Z" fill="#804F59"/>
<path d="M32.2294 36.0159L32.2295 37.6074C32.2294 38.2723 31.9172 38.9373 31.2918 39.5118C28.7941 41.8069 23.1464 41.8333 20.5994 39.5425C19.954 38.9611 19.6309 38.2846 19.631 37.608L19.6309 36.0165C19.6307 36.6931 19.9538 37.3696 20.5993 37.951C23.1506 40.2457 28.7971 40.2124 31.2916 37.9203C31.917 37.3458 32.2293 36.6808 32.2294 36.0159Z" fill="#FFCA6C"/>
<path d="M31.2907 37.9203C29.1396 39.8969 24.6685 40.1861 21.8398 38.7786L21.8448 40.3724C24.6737 41.7772 29.141 41.4873 31.2909 39.5118C31.9162 38.9373 32.2285 38.2723 32.2286 37.6074L32.2284 36.0159C32.2283 36.6808 31.9161 37.3458 31.2907 37.9203Z" fill="#FFB63C"/>
<path d="M31.2611 34.0826C32.5406 35.2336 32.5533 36.7613 31.2916 37.9204C28.7939 40.2154 23.1463 40.2418 20.5993 37.951C19.3198 36.7985 19.3071 35.2723 20.5674 34.1125C23.0757 31.8078 28.7238 31.7991 31.2611 34.0826Z" fill="#FFDE9B"/>
<path d="M29.904 37.6663C27.9668 39.2095 24.0252 39.2659 21.9824 37.689C20.7472 36.7264 20.7271 35.3448 21.9549 34.368C23.9298 32.7947 27.9027 32.796 29.8765 34.3453C31.0995 35.2974 31.1429 36.6764 29.904 37.6663Z" fill="#FFB63C"/>
<path d="M30.797 36.2532C30.4526 38.7531 24.8062 39.8683 21.983 37.6891C21.4447 37.2695 21.1384 36.7725 21.0645 36.2645C21.1337 35.7623 21.431 35.2698 21.9568 34.8514C23.9318 33.2781 27.9047 33.2794 29.8784 34.8287C30.4168 35.2483 30.723 35.7452 30.797 36.2532Z" fill="#FFCA6C"/>
<path d="M26.6322 35.2833L26.6317 35.4753L26.1621 35.9278L26.1626 35.7358L26.6322 35.2833Z" fill="#FFB63C"/>
<path d="M24.9219 36.3027L24.9213 36.4948L23.4746 35.2144L23.4751 35.0223L24.9219 36.3027Z" fill="#FFA20D"/>
<path d="M25.255 36.5955L25.2544 36.7875L24.9141 37.1111L24.9146 36.9191L25.255 36.5955Z" fill="#FFB63C"/>
<path d="M24.9155 36.9191L24.915 37.1111L24.5195 36.8828L24.5201 36.6908L24.9155 36.9191Z" fill="#FFA20D"/>
<path d="M26.4056 37.6007L26.405 37.7927L25.2559 36.7875L25.2564 36.5955L26.4056 37.6007Z" fill="#FFA20D"/>
<path d="M29.155 36.0026L29.1545 36.1946L26.4043 37.7928L26.4048 37.6008L29.155 36.0026Z" fill="#FFB63C"/>
<path d="M28.5566 35.469L29.1544 36.0025L26.4042 37.6008L25.2551 36.5955L24.9147 36.9192L24.5192 36.6909L24.9213 36.3028L23.4746 35.0224L24.6029 34.3667L25.829 35.443L26.2354 35.0542L26.6323 35.2833L26.1627 35.7357L26.9246 36.4174L28.5566 35.469Z" fill="#FFDE9B"/>
<path d="M27.8661 21.232L25.5202 20.7085C25.3732 20.6757 25.2805 20.5299 25.3132 20.3829C25.3459 20.2357 25.4943 20.1441 25.6388 20.1762L27.9847 20.6997C28.1317 20.7323 28.2244 20.8781 28.1917 21.0251C28.1586 21.1736 28.0117 21.2645 27.8661 21.232Z" fill="#FF444D"/>
<path d="M28.7342 19.3371L27.035 17.6377C26.9284 17.5311 26.9284 17.3586 27.035 17.252C27.1415 17.1455 27.3141 17.1455 27.4206 17.252L29.1199 18.9514C29.2264 19.058 29.2264 19.2305 29.1199 19.3371C29.0133 19.4436 28.8407 19.4436 28.7342 19.3371Z" fill="#FF444D"/>
<path d="M30.4812 18.2028L29.9577 15.8567C29.9251 15.7097 30.0177 15.5639 30.1648 15.5313C30.31 15.4981 30.4574 15.5908 30.4904 15.7381L31.0138 18.0838C31.0465 18.2309 30.9538 18.3766 30.8068 18.4095C30.6607 18.4421 30.5142 18.3503 30.4812 18.2028Z" fill="#FF444D"/>
</svg>
