<svg width="64" height="64" viewBox="0 0 64 64" fill="none" xmlns="http://www.w3.org/2000/svg">
<rect width="64" height="64" rx="32" fill="white"/>
<path d="M47.3923 22.546L47.3576 36.2351L26.8594 48.1474L26.894 34.4583L47.3923 22.546Z" fill="#BF7D5A"/>
<path d="M47.3916 22.546L47.3811 26.2208L26.8828 38.1331L26.8933 34.4583L47.3916 22.546Z" fill="#AA6256"/>
<path d="M16.6094 42.2295L16.644 28.5404L26.8941 34.4583L26.8595 48.1473L16.6094 42.2295Z" fill="#AA6256"/>
<path d="M16.6328 32.2152L16.6433 28.5404L26.8934 34.4583L26.8829 38.1331L16.6328 32.2152Z" fill="#8A4852"/>
<path d="M47.3928 22.546L26.8945 34.4583L16.6445 28.5405L37.1428 16.6282L47.3928 22.546Z" fill="#CDCCD8"/>
<path d="M48.6956 22.6266L48.6895 24.7772L27.0371 37.3602L27.0432 35.2096L48.6956 22.6266Z" fill="#BF7D5A"/>
<path d="M27.0436 35.2096L27.0375 37.3603L15.3047 30.5863L15.3108 28.4357L27.0436 35.2096Z" fill="#AA6256"/>
<path d="M48.6958 22.6266L27.0434 35.2096L15.3105 28.4356L36.9629 15.8527L48.6958 22.6266Z" fill="#DBA660"/>
<path d="M31.2075 21.9655L31.5719 22.1759L29.9785 22.4037L30.7339 21.9648C30.8637 21.8893 31.0769 21.8901 31.2075 21.9655Z" fill="#DEDFFB"/>
<path d="M33.8721 22.0469C34.3583 23.1716 35.4532 25.7044 35.912 26.7656C35.956 26.8692 35.8481 26.9749 35.6695 27.0001L31.146 27.6479C31.0019 27.6683 30.7915 27.6288 30.7392 27.5059C30.2524 26.3798 29.1581 23.8484 28.6993 22.7872C28.6554 22.6836 28.762 22.5786 28.9432 22.552L29.9795 22.4038L31.5728 22.1759L33.4679 21.9049C33.6115 21.8835 33.8191 21.9249 33.8721 22.0469Z" fill="#F3F1FC"/>
<path d="M37.1616 25.4027C37.2923 25.4781 37.293 25.6009 37.1632 25.6763L35.7867 26.4763L34.7109 23.9878L37.1616 25.4027Z" fill="#DEDFFB"/>
<path d="M33.4015 27.5872L33.0371 27.3769L34.6279 27.149L33.8751 27.5865C33.7428 27.6634 33.5321 27.6627 33.4015 27.5872Z" fill="#DEDFFB"/>
<path d="M27.4474 23.875L28.8234 23.0753L29.8997 25.5649L27.449 24.15C27.3184 24.0746 27.3151 23.9519 27.4474 23.875Z" fill="#DEDFFB"/>
<path d="M18.9423 40.3866L25.2084 44.0043V44.7496L18.2969 40.7592L18.9423 40.3866Z" fill="#BF7D5A"/>
<path d="M18.2969 34.3188L18.9423 34.6915V40.3866L18.2969 40.7592V34.3188Z" fill="#8A4852"/>
<path d="M18.9414 34.6915L25.2075 38.3093V44.0043L18.9414 40.3866V34.6915Z" fill="#DBA660"/>
<path d="M26.2786 25.7859L25.125 25.0886C24.9754 24.9992 24.7337 25.2689 24.7305 25.4892C24.7293 25.5606 24.7537 25.6112 24.7941 25.6356L26.2658 26.5251L26.2786 25.7859Z" fill="#F45170"/>
<path d="M31.3284 28.7356C31.2752 28.7039 31.2007 28.7068 31.1179 28.7527C30.8644 28.893 30.7081 29.3343 30.8973 29.4484L25.2197 26.0072C25.167 25.9755 25.1352 25.9095 25.1368 25.8164C25.141 25.5221 25.4627 25.1821 25.6508 25.2945L31.3284 28.7356Z" fill="#4C5C75"/>
<path d="M31.3286 28.7356C31.2754 28.7039 31.2008 28.7068 31.1181 28.7527C30.8646 28.893 30.7083 29.3343 30.8975 29.4484L26.9697 27.0649C26.917 27.0331 26.8852 26.9671 26.8868 26.874C26.891 26.5797 27.2127 26.2397 27.4008 26.3521L31.3286 28.7356Z" fill="#1D2943"/>
<path d="M31.3273 28.7364C31.275 28.7026 31.2014 28.7057 31.1185 28.7517C30.8695 28.8901 30.7059 29.3356 30.8975 29.4484L27.2393 27.2295C27.1871 27.1957 27.1534 27.1313 27.1564 27.0361C27.1613 26.7428 27.4827 26.4049 27.6689 26.5144L31.3273 28.7364Z" fill="#57B3FE"/>
<path d="M31.1179 28.7528C31.2829 28.6613 31.4145 28.7393 31.4118 28.9266C31.4091 29.1139 31.2731 29.3398 31.1081 29.4313C30.9434 29.5225 30.8118 29.4449 30.8145 29.2576C30.8172 29.0703 30.9532 28.844 31.1179 28.7528Z" fill="#4C5C75"/>
<path d="M31.9054 29.4327L31.7875 29.6379L30.9258 29.4609L31.3579 28.7593L31.9054 29.4327Z" fill="#4C5C75"/>
<path d="M31.8461 29.4372C31.8931 29.4111 31.9306 29.4333 31.9298 29.4867C31.9279 29.6156 31.758 29.7077 31.7598 29.5809C31.7605 29.5276 31.7993 29.4631 31.8461 29.4372Z" fill="#1D2943"/>
<path d="M25.2591 25.8198L25.1973 25.7824L25.2056 25.2616L25.2675 25.299L25.2591 25.8198Z" fill="#B0B8CF"/>
<path d="M25.3844 25.3554L25.3242 25.319L25.5754 25.1798L25.6356 25.2162L25.3844 25.3554Z" fill="#BFC0D8"/>
<path d="M25.5252 25.1558L25.5202 25.4854L25.2617 25.6286L25.2667 25.299L25.5252 25.1558Z" fill="white"/>
<path d="M26.4399 25.7714L25.6508 25.2945C25.4558 25.178 25.1409 25.5295 25.1368 25.8165C25.1352 25.9095 25.167 25.9755 25.2197 26.0073L26.4233 26.7347L26.4399 25.7714Z" fill="#4C5C75"/>
<path d="M27.127 26.1363C27.1188 26.1985 27.1471 26.2381 27.0841 26.2754C27.0288 26.3059 26.9396 26.3043 26.8844 26.2709L25.2051 25.2624L25.2075 25.1803L26.8858 26.1888C26.941 26.2212 27.0302 26.2228 27.0855 26.1923C27.1131 26.1776 27.1267 26.1575 27.127 26.1363Z" fill="#B0B8CF"/>
<path d="M27.0855 26.0773C27.1406 26.1104 27.1407 26.1616 27.0855 26.1924C27.0302 26.2232 26.9412 26.2216 26.8861 26.1885L25.207 25.1802L25.4064 25.069L27.0855 26.0773Z" fill="white"/>
<path d="M32.0449 29.7177L31.8125 29.6125L31.9022 29.4725L32.1011 29.6249C32.1523 29.662 32.1117 29.7477 32.0449 29.7177Z" fill="#DBE6FA"/>
<path d="M31.8553 29.472C31.934 29.4284 31.9332 29.5638 31.8533 29.6081C31.7743 29.6518 31.776 29.516 31.8553 29.472Z" fill="#DBE6FA"/>
<path d="M32.7894 41.1947L27.6484 44.1629V44.9319L33.4554 41.5792L32.7894 41.1947Z" fill="#AA6256"/>
<path d="M33.4551 35.3297L32.7891 35.7142V41.1947L33.4551 41.5792V35.3297Z" fill="#8A4852"/>
<path d="M32.7894 35.7142L27.6484 38.6824V44.1628L32.7894 41.1947V35.7142Z" fill="#DBA660"/>
<path d="M39.3637 37.3997L34.2227 40.3678V41.1368L40.0297 37.7842L39.3637 37.3997Z" fill="#AA6256"/>
<path d="M40.0293 31.5347L39.3633 31.9192V37.3997L40.0293 37.7842V31.5347Z" fill="#8A4852"/>
<path d="M39.3637 31.9192L34.2227 34.8873V40.3678L39.3637 37.3997V31.9192Z" fill="#DBA660"/>
<path d="M45.9359 33.6045L40.7949 36.5726V37.3417L46.6019 33.989L45.9359 33.6045Z" fill="#AA6256"/>
<path d="M46.6016 27.7395L45.9355 28.124V33.6045L46.6016 33.989V27.7395Z" fill="#8A4852"/>
<path d="M45.9359 28.124L40.7949 31.0922V36.5726L45.9359 33.6045V28.124Z" fill="#DBA660"/>
<path d="M35.4201 26.4261L30.8966 27.0739L30.707 26.6352L35.2305 25.9874L35.4201 26.4261Z" fill="#4F575F"/>
<path d="M30.8973 27.1088C30.854 27.1088 30.8683 27.0747 30.6759 26.649C30.6423 26.5741 30.5963 26.6212 35.2262 25.953C35.2754 25.9458 35.262 25.9936 35.4527 26.4123C35.4618 26.4326 35.4484 26.4572 35.4259 26.4605C32.7671 26.8413 33.4676 26.7413 30.8973 27.1088ZM30.7577 26.6633L30.9187 27.0357L35.3709 26.398L35.2098 26.0257L30.7577 26.6633Z" fill="#4F575F"/>
<path d="M30.5179 26.2314C30.5009 26.2314 30.486 26.2189 30.4836 26.2015C30.4739 26.1335 30.2899 26.2105 35.0363 25.5144C35.0839 25.5098 35.0901 25.5771 35.0464 25.5833L30.523 26.2311C30.5213 26.2313 30.5196 26.2314 30.5179 26.2314Z" fill="#4F575F"/>
<path d="M30.2942 25.763C30.2844 25.6949 30.1005 25.772 34.8468 25.0756C34.8933 25.07 34.9014 25.1382 34.857 25.1446C30.1498 25.8007 30.3046 25.8393 30.2942 25.763Z" fill="#4F575F"/>
<path d="M30.1376 25.3542C30.1206 25.3542 30.1056 25.3416 30.1033 25.3243C30.0936 25.2565 30.0402 25.3142 32.8376 24.8975C32.8573 24.8959 32.8743 24.9078 32.877 24.927C32.8798 24.946 32.8668 24.9637 32.8478 24.9664L30.1427 25.3538C30.141 25.354 30.1393 25.3542 30.1376 25.3542Z" fill="#4F575F"/>
<path d="M29.9152 24.8856C29.9055 24.8175 29.7216 24.8946 34.4679 24.1984C34.4842 24.1954 34.5046 24.209 34.5073 24.228C34.51 24.247 34.4971 24.2647 34.4781 24.2674C29.7709 24.9234 29.9257 24.9619 29.9152 24.8856Z" fill="#4F575F"/>
<path d="M29.7581 24.477C29.7412 24.477 29.7262 24.4644 29.7238 24.4471C29.7141 24.3791 29.5305 24.456 34.2768 23.7598C34.2958 23.7582 34.3132 23.7701 34.3162 23.7893C34.3189 23.8083 34.306 23.826 34.287 23.8287L29.7632 24.4767C29.7615 24.4768 29.7598 24.477 29.7581 24.477Z" fill="#4F575F"/>
<path d="M29.5692 24.0382C29.5522 24.0382 29.5373 24.0257 29.5349 24.0083C29.5252 23.9405 29.4718 23.9983 32.2693 23.5815C32.2863 23.5788 32.306 23.5921 32.3087 23.6111C32.3114 23.6301 32.2985 23.6478 32.2795 23.6505L29.5743 24.0379C29.5726 24.0381 29.5709 24.0382 29.5692 24.0382Z" fill="#4F575F"/>
<path d="M29.3792 23.5998C29.3623 23.5998 29.3473 23.5873 29.3449 23.5699C29.3352 23.5019 29.1513 23.5789 33.8976 22.8826C33.9427 22.8764 33.9531 22.945 33.9078 22.9516L29.3843 23.5995C29.3826 23.5996 29.3809 23.5998 29.3792 23.5998Z" fill="#4F575F"/>
<path d="M29.1903 23.1611C29.1733 23.1611 29.1584 23.1485 29.156 23.1312C29.1463 23.0634 29.0929 23.1212 31.8904 22.7044C31.909 22.7027 31.9271 22.7147 31.9298 22.7339C31.9325 22.753 31.9196 22.7706 31.9006 22.7733L29.1954 23.1607C29.1937 23.1609 29.192 23.1611 29.1903 23.1611Z" fill="#4F575F"/>
</svg>
