<svg width="41" height="41" viewBox="0 0 41 41" fill="none" xmlns="http://www.w3.org/2000/svg">
<rect x="0.5" y="0.912842" width="40" height="40" rx="20" fill="#FCFAF8"/>
<g clip-path="url(#clip0_151_6647)">
<path d="M15.6585 15.0138C15.7914 14.9253 17.0481 14.8201 17.2032 14.8201C17.3582 14.8201 17.48 14.9419 17.48 15.0969V17.6602C17.48 17.8208 17.3582 17.9426 17.2032 17.9426H16.3063C15.6585 17.9426 15.1326 17.4166 15.1326 16.7689V15.9938C15.1326 15.7945 15.1824 15.6062 15.271 15.4401C15.3651 15.2685 15.498 15.119 15.6585 15.0138Z" fill="#FEB784"/>
<path d="M15.448 12.4284C15.4701 12.2789 15.6085 12.1682 15.7636 12.1903C18.3158 12.5336 16.5165 13.4692 17.4521 15.2575C17.5186 15.3903 17.4688 15.562 17.3303 15.6339C17.0314 15.7889 16.6771 15.8831 16.356 15.8554C16.0515 15.8277 15.7746 15.6948 15.5919 15.418C15.376 15.0914 15.3151 14.51 15.3262 13.9177C15.3373 13.353 15.3982 12.7827 15.448 12.4284Z" fill="#753C22"/>
<path d="M24.8709 14.8201C25.181 14.8367 25.4578 14.9806 25.6571 15.191C25.8508 15.4014 25.9726 15.6837 25.9726 15.9938V16.7689C25.9726 17.4166 25.4467 17.9426 24.7989 17.9426H23.9076C23.7526 17.9426 23.6252 17.8208 23.6252 17.6602V15.1689C23.6252 15.0138 23.7526 14.8865 23.9076 14.8865C24.9706 14.8865 24.8322 14.8201 24.8709 14.8201Z" fill="#FEB784"/>
<path d="M21.0729 24.6637L21.9919 32.5917V32.6304C21.9919 32.7854 21.8701 32.9072 21.7151 32.9072H19.2846C19.2846 32.9072 19.268 32.9072 19.2625 32.9072C19.113 32.8962 18.9967 32.7633 19.0078 32.6083L19.9268 24.6803C19.9324 24.5252 20.0542 24.4034 20.2092 24.4034H20.7905C20.94 24.4034 21.0618 24.5197 21.0729 24.6637Z" fill="#95573A"/>
<path d="M19.1628 20.2069C19.1628 20.0519 19.2348 19.9246 19.3179 19.9246C19.4064 19.9246 19.4784 20.0519 19.4784 20.2069C19.5061 21.065 21.5545 21.0761 21.5213 20.29C21.5213 20.1349 21.5933 20.0131 21.6819 20.0131C21.7649 20.0131 21.8369 20.1349 21.8369 20.29V22.5266C21.8369 22.6817 21.7649 22.8035 21.6819 22.8035C21.5822 23.3183 21.3054 23.5841 20.4971 23.7003C19.7884 23.5232 19.7109 22.9917 19.3179 22.8035C19.2348 22.8035 19.1628 22.6817 19.1628 22.5266V20.2069Z" fill="#FEB784"/>
<path d="M23.6252 15.1689C23.6252 15.0139 23.7525 14.8865 23.9075 14.8865C24.0625 14.8865 24.1843 15.0139 24.1843 15.1689V17.6492C24.1843 18.6512 23.7802 19.5592 23.1213 20.218C22.4625 20.8768 21.5546 21.281 20.5525 21.281C19.5559 21.281 18.648 20.8768 17.9892 20.218C17.3303 19.5592 16.9207 18.6512 16.9207 17.6492V13.1813C16.9207 13.0263 17.048 12.899 17.203 12.899C17.358 12.899 17.4798 13.0263 17.4798 13.1813C18.493 12.3066 24.6826 12.0408 23.6252 15.1689Z" fill="#FEC9A3"/>
<path d="M23.2709 9.01798C23.5256 9.03459 25.4799 9.24497 25.9505 11.8526C25.956 11.8747 25.956 11.8913 25.956 11.9135C25.9505 12.0464 25.8896 15.3017 24.4778 15.6505C24.4723 15.6505 23.664 15.9107 23.3152 14.5266C23.2764 14.4104 22.9498 13.4913 22.1027 13.5079H22.0972H17.3968C17.3692 13.5079 17.3415 13.5079 17.3193 13.4969C17.0591 13.447 14.4737 12.8602 14.2633 10.3412C14.2245 10.1308 14.0086 8.64704 15.4259 8.95154H15.437C17.5131 9.48303 18.6868 9.36123 20.1705 9.20068C21.0176 9.1121 21.9699 9.01244 23.2377 9.01244C23.2487 9.01244 23.2598 9.01244 23.2709 9.01798Z" fill="#7A432A"/>
<path d="M21.9754 24.0768L21.3885 26.0366C21.3553 26.1584 21.239 26.2415 21.1228 26.2415H19.8771C19.7442 26.2415 19.6335 26.1474 19.6058 26.0256L19.019 24.0602C18.9747 23.9107 19.0577 23.7557 19.2072 23.7114C19.2349 23.7003 19.257 23.7003 19.2847 23.7003H21.7152C21.8702 23.7003 21.992 23.8221 21.992 23.9771C21.992 24.0159 21.9864 24.0436 21.9754 24.0768Z" fill="#743B20"/>
<path fill-rule="evenodd" clip-rule="evenodd" d="M18.8862 24.8408L20.4973 23.7003L18.8862 22.0726L17.325 22.5211L18.8862 24.8408Z" fill="#E0E0DE"/>
<path fill-rule="evenodd" clip-rule="evenodd" d="M22.1137 24.8408L20.4971 23.7003L22.1137 22.0726L23.6749 22.5211L22.1137 24.8408Z" fill="#E0E0DE"/>
<path fill-rule="evenodd" clip-rule="evenodd" d="M15.3926 23.108L15.7303 23.5952L17.6902 26.4076C17.7068 26.4353 17.7178 26.4574 17.7289 26.4851L19.1628 31.2519L19.6722 26.845L19.7497 26.2083C19.6777 26.1696 19.6223 26.1031 19.6057 26.0256L19.185 24.6249L18.886 24.8408L18.7974 24.708L17.668 23.0305L17.3358 22.5377L15.3926 23.108Z" fill="#4C5D72"/>
<path fill-rule="evenodd" clip-rule="evenodd" d="M22.2022 24.708L22.1137 24.8408L21.8147 24.6249L21.3884 26.0367C21.3663 26.1142 21.3164 26.1751 21.25 26.2083L21.3275 26.845L21.8369 31.2519L23.2708 26.4851C23.2818 26.4574 23.2929 26.4353 23.3095 26.4076L25.2638 23.5952L25.6016 23.108L23.6638 22.5377L23.3317 23.0305L22.2022 24.708Z" fill="#4C5D72"/>
<path fill-rule="evenodd" clip-rule="evenodd" d="M15.3927 23.1079L13.4107 23.6892C13.3885 23.6948 13.3719 23.7003 13.3553 23.7114C11.5837 24.5141 11.7055 28.9266 11.7775 31.5121C11.7885 31.9273 11.7996 32.2927 11.7996 32.6304C11.7996 32.7854 11.9269 32.9072 12.082 32.9072H20.5027L17.729 26.4851C17.7179 26.4574 17.7069 26.4352 17.6903 26.4076L15.7304 23.5951L15.3927 23.1079Z" fill="#374559"/>
<path fill-rule="evenodd" clip-rule="evenodd" d="M25.6072 23.1079L27.5892 23.6892C27.6113 23.6948 27.6279 23.7003 27.6446 23.7114C29.4162 24.5141 29.2944 28.9266 29.2224 31.5121C29.2113 31.9273 29.2003 32.2927 29.2003 32.6304C29.2003 32.7854 29.0729 32.9072 28.9179 32.9072H20.5027L23.2709 26.4851C23.2819 26.4574 23.293 26.4352 23.3096 26.4076L25.2639 23.5951L25.6072 23.1079Z" fill="#374559"/>
</g>
<defs>
<clipPath id="clip0_151_6647">
<path d="M8.5 8.91284H32.5V20.9128C32.5 27.5403 27.1274 32.9128 20.5 32.9128C13.8726 32.9128 8.5 27.5403 8.5 20.9128V8.91284Z" fill="white"/>
</clipPath>
</defs>
</svg>
