<svg width="30" height="30" viewBox="0 0 30 30" fill="none" xmlns="http://www.w3.org/2000/svg">
<path d="M6.67099 23.296L10.5815 15.9042L15.7961 18.6626L11.895 26.0365C11.7942 26.2274 11.5214 26.2283 11.419 26.0386L10.1211 23.6311C10.0708 23.5379 9.97077 23.4827 9.86481 23.49L6.92821 23.6915C6.717 23.7059 6.57211 23.4831 6.67099 23.296Z" fill="#FC4E51"/>
<path d="M13.8171 17.616L12.6499 16.9987L9.26868 23.5308L9.86455 23.4899C9.97027 23.4824 10.0703 23.5376 10.1206 23.6308L10.4201 24.1861L13.8171 17.616Z" fill="#EA3942"/>
<path d="M23.1296 23.296L19.219 15.9042L14.0049 18.6627L17.9055 26.0365C18.0065 26.2272 18.2791 26.2284 18.3815 26.0386L19.6799 23.6311C19.7302 23.5379 19.8302 23.4827 19.9357 23.49L22.8726 23.6917C23.0835 23.7059 23.2284 23.4831 23.1296 23.296Z" fill="#FC4E51"/>
<path d="M20.5527 23.5321L17.1668 16.9906L15.9989 17.6082L19.393 24.1646L19.6807 23.631C19.731 23.5378 19.831 23.4826 19.9368 23.4897L20.5527 23.5321Z" fill="#EA3942"/>
<path d="M16.27 5.50174C16.7004 5.88781 17.2741 6.07401 17.8494 6.01501C18.8906 5.90787 19.8454 6.60167 20.0653 7.6249C20.1869 8.19056 20.5413 8.67811 21.0414 8.9686C21.9466 9.49391 22.3117 10.6165 21.8879 11.5736C21.6538 12.1023 21.6538 12.7054 21.8879 13.234C22.3114 14.1914 21.9466 15.3138 21.0416 15.8393C20.5413 16.1296 20.1869 16.6176 20.0653 17.1828C19.8454 18.206 18.8906 18.8998 17.8494 18.7927C17.2741 18.7337 16.7004 18.9199 16.27 19.3059C15.4905 20.0047 14.3104 20.0045 13.5309 19.3062C13.1002 18.9199 12.5265 18.7337 11.9515 18.7929C10.91 18.8998 9.95525 18.206 9.73531 17.1828C9.61401 16.6174 9.25933 16.1296 8.75928 15.8391C7.85404 15.3138 7.4892 14.1914 7.91303 13.2343C8.14689 12.7054 8.14689 12.1023 7.91303 11.5734C7.48944 10.6165 7.85404 9.49391 8.75928 8.9686C9.25956 8.67834 9.61401 8.19032 9.73531 7.6249C9.95525 6.60167 10.9103 5.90811 11.9512 6.01501C12.5268 6.07424 13.1002 5.88781 13.5309 5.50198C14.3104 4.80322 15.4905 4.80299 16.27 5.50174Z" fill="#FCB038"/>
<path d="M20.0655 17.1828C20.187 16.6176 20.5414 16.1296 21.0417 15.8393C21.9467 15.3138 22.3116 14.1914 21.888 13.234C21.6539 12.7054 21.6539 12.1023 21.888 11.5736C22.3116 10.6163 21.9467 9.49391 21.0415 8.96861C20.5414 8.67811 20.187 8.19056 20.0655 7.62491C19.8455 6.60167 18.8907 5.90787 17.8496 6.01501C17.2742 6.07401 16.7005 5.88782 16.2701 5.50174C15.4906 4.80299 14.3105 4.80323 13.531 5.50198C13.4758 5.55106 13.4185 5.59708 13.359 5.64003C15.7158 6.97406 17.3077 9.50241 17.3077 12.4041C17.3075 15.3055 15.716 17.8339 13.3588 19.1679C13.4185 19.2106 13.4758 19.2566 13.531 19.3062C14.3102 20.0047 15.4906 20.0047 16.2701 19.306C16.7005 18.9199 17.2742 18.7337 17.8496 18.7927C18.8907 18.8998 19.8455 18.206 20.0655 17.1828Z" fill="#FD8F31"/>
<path d="M19.2703 12.4037C19.2703 9.9905 17.3138 8.03394 14.9006 8.03394C12.4869 8.03394 10.5306 9.99026 10.5306 12.4039C10.5306 14.8171 12.4871 16.7737 14.9003 16.7737C17.314 16.7737 19.2703 14.8173 19.2703 12.4037Z" fill="#FFE285"/>
</svg>
