<svg width="40" height="41" viewBox="0 0 40 41" fill="none" xmlns="http://www.w3.org/2000/svg">
<rect y="0.912842" width="40" height="40" rx="20" fill="#FCFAF8"/>
<path d="M17.9355 22.762L16.901 21.7275L9.85874 28.2285C9.39337 28.6581 9.37877 29.3885 9.82662 29.8364C10.2745 30.2842 11.0049 30.2696 11.4345 29.8043L17.9355 22.762Z" fill="#873F30"/>
<path d="M11.4036 29.8368C10.9706 30.2698 10.2639 30.2735 9.82691 29.8364C9.69762 29.7072 9.60706 29.5545 9.55493 29.3921C9.94117 29.5177 10.3818 29.4258 10.6866 29.1211C10.6973 29.1104 10.7079 29.0991 10.7183 29.0881L17.2194 22.0457L17.9358 22.762L11.4347 29.8044C11.4243 29.8154 11.414 29.8264 11.4036 29.8368Z" fill="#6C3328"/>
<path d="M18.9542 19.2766L16.572 22.1182L17.5452 23.0913L20.3867 20.7091L18.9542 19.2766Z" fill="#873F30"/>
<path d="M18.9542 19.2766L18.1844 20.1948L18.4154 20.4258C18.5854 20.5958 18.5854 20.8714 18.4154 21.0414L16.9553 22.5015L17.5451 23.0913L20.3867 20.7091L18.9542 19.2766Z" fill="#6C3328"/>
<path d="M16.9668 23.6411L16.0222 22.6965C15.7491 22.4234 15.7491 21.9806 16.0222 21.7075C16.2953 21.4344 16.7381 21.4344 17.0112 21.7075L17.9558 22.6521C18.2289 22.9252 18.2289 23.368 17.9558 23.6411C17.6827 23.9142 17.2399 23.9142 16.9668 23.6411Z" fill="#BA5D4F"/>
<path d="M17.9555 23.6413C17.8188 23.7779 17.6397 23.846 17.4613 23.8461C17.2822 23.8461 17.1032 23.7779 16.9665 23.6413L16.2505 22.9252C16.3872 23.0619 16.5662 23.1301 16.745 23.1297C16.9237 23.13 17.1028 23.0619 17.2395 22.9252C17.5127 22.652 17.5124 22.2092 17.2395 21.9363L17.9555 22.6523C18.2287 22.9256 18.2288 23.368 17.9555 23.6413Z" fill="#A34F41"/>
<path d="M20.1885 12.7817L22.2859 14.8792L18.993 18.1721L16.8956 16.0747L20.1885 12.7817Z" fill="#BA5D4F"/>
<path d="M23.5874 22.7692L21.4899 20.6717L24.7829 17.3788L26.8803 19.4762L23.5874 22.7692Z" fill="#A34F41"/>
<path d="M16.3054 16.7976L16.2326 16.7248C15.9563 16.4485 15.9563 16.0006 16.2326 15.7243L19.8369 12.1199C20.1132 11.8436 20.5611 11.8436 20.8375 12.1199L20.9103 12.1928C21.1866 12.4691 21.1866 12.917 20.9103 13.1933L17.306 16.7976C17.0297 17.0739 16.5818 17.0739 16.3054 16.7976Z" fill="#873F30"/>
<path d="M22.8657 23.3575L22.9385 23.4303C23.2148 23.7066 23.6627 23.7066 23.9391 23.4303L27.5434 19.826C27.8197 19.5497 27.8197 19.1018 27.5434 18.8255L27.4705 18.7526C27.1943 18.4763 26.7463 18.4763 26.47 18.7526L22.8657 22.3569C22.5894 22.6333 22.5894 23.0812 22.8657 23.3575Z" fill="#6C3328"/>
<path d="M23.1963 14.1089L25.5517 16.4643L20.5784 21.4376L18.223 19.0822L23.1963 14.1089Z" fill="#FCC16D"/>
<path d="M19.3848 20.2479L24.3581 15.2746L25.5502 16.4668L20.5769 21.4401L19.3848 20.2479Z" fill="#FCA62F"/>
<path d="M23.2078 14.0099L22.6308 13.774C22.4329 13.6931 22.2059 13.7388 22.0548 13.8899L18.0026 17.9421C17.8515 18.0932 17.8058 18.3203 17.8866 18.5181L18.1226 19.0952C18.2182 19.3292 18.5214 19.3902 18.7001 19.2114L23.3241 14.5874C23.5029 14.4087 23.4418 14.1055 23.2078 14.0099Z" fill="#873F30"/>
<path d="M25.6534 16.4555L25.8893 17.0325C25.9702 17.2304 25.9245 17.4574 25.7734 17.6085L21.7212 21.6607C21.57 21.8118 21.343 21.8575 21.1452 21.7766L20.5681 21.5407C20.3341 21.4451 20.2731 21.1419 20.4518 20.9632L25.0759 16.3392C25.2546 16.1604 25.5577 16.2215 25.6534 16.4555Z" fill="#6C3328"/>
<path d="M27.7897 27.7962H19.1978V26.5905C19.1978 26.3416 19.3996 26.1398 19.6485 26.1398H27.339C27.5879 26.1398 27.7897 26.3416 27.7897 26.5905V27.7962Z" fill="#BA5D4F"/>
<path d="M27.7896 26.5907V27.7964H26.8467V26.5907C26.8467 26.3419 26.6448 26.14 26.396 26.14H27.3389C27.5877 26.14 27.7896 26.3419 27.7896 26.5907Z" fill="#A34F41"/>
<path d="M29.6834 30.1628H17.3043C16.9759 30.1628 16.7578 29.8229 16.8945 29.5244L17.3321 28.5689C17.7112 27.7412 18.538 27.2104 19.4484 27.2104H27.5393C28.4497 27.2104 29.2765 27.7412 29.6556 28.5689L30.0932 29.5244C30.2299 29.8229 30.0118 30.1628 29.6834 30.1628Z" fill="#873F30"/>
<path d="M29.6835 30.1628H28.4783C28.8064 30.1628 29.0245 29.8229 28.888 29.5246L28.4503 28.5686C28.0713 27.7411 27.2442 27.2102 26.3342 27.2102H27.539C28.4494 27.2102 29.2765 27.7412 29.6555 28.5686L30.0932 29.5246C30.2298 29.823 30.0116 30.1628 29.6835 30.1628Z" fill="#6C3328"/>
<path d="M29.027 25.3936C28.9468 25.3936 28.8666 25.3628 28.8056 25.3015C28.6841 25.1792 28.6847 24.9815 28.8069 24.8599L29.1448 24.5241C29.2671 24.4026 29.4647 24.4032 29.5863 24.5254C29.7078 24.6477 29.7073 24.8454 29.585 24.9669L29.2471 25.3028C29.1862 25.3633 29.1066 25.3936 29.027 25.3936Z" fill="#FCC16D"/>
<path d="M28.0418 24.6954C28.0166 24.6954 27.9911 24.6924 27.9655 24.686C27.7983 24.644 27.6968 24.4744 27.7387 24.3072L27.8559 23.8401C27.8978 23.6728 28.0675 23.5713 28.2346 23.6132C28.4018 23.6552 28.5034 23.8247 28.4615 23.9919L28.3443 24.4591C28.3088 24.6009 28.1815 24.6954 28.0418 24.6954Z" fill="#FCC16D"/>
<path d="M29.7197 26.3829C29.5792 26.3829 29.4516 26.2874 29.4167 26.1449C29.3758 25.9773 29.4783 25.8084 29.6458 25.7674L30.1138 25.653C30.2814 25.6119 30.4502 25.7145 30.4912 25.882C30.5322 26.0495 30.4297 26.2185 30.2621 26.2594L29.7942 26.3739C29.7692 26.38 29.7443 26.3829 29.7197 26.3829Z" fill="#FCC16D"/>
</svg>
