<svg width="41" height="41" viewBox="0 0 41 41" fill="none" xmlns="http://www.w3.org/2000/svg">
<rect x="0.5" y="0.912842" width="40" height="40" rx="20" fill="#FCFAF8"/>
<path d="M20.875 14.6315H19.3023C19.1495 14.6315 19.0031 14.6928 18.8899 14.804C18.5814 15.1071 18.0133 15.4683 17.059 15.4683C15.9313 15.4683 15.0585 14.8774 14.6015 13.8045C14.511 13.5922 14.3023 13.455 14.0697 13.455H12.6746C12.3933 13.455 12.1653 13.227 12.1653 12.9457C12.1653 12.6644 12.3933 12.4364 12.6746 12.4364H14.0697C14.7113 12.4364 15.2879 12.8167 15.5386 13.4053C15.8339 14.0984 16.3454 14.4497 17.059 14.4497C17.669 14.4497 18.0031 14.2473 18.176 14.0774C18.4808 13.778 18.8808 13.613 19.3023 13.613H20.875V14.6315Z" fill="#5B5555"/>
<path d="M13.4503 15.0451C13.2816 15.0451 13.1448 14.9083 13.1448 14.7396V12.1533C13.1448 11.9846 13.2816 11.8478 13.4503 11.8478C13.6191 11.8478 13.7559 11.9846 13.7559 12.1533V14.7395C13.756 14.9083 13.6191 15.0451 13.4503 15.0451Z" fill="#FFD597"/>
<path d="M20.875 14.6314H22.4477C22.6004 14.6314 22.7469 14.6927 22.8601 14.8039C23.1686 15.1069 23.7366 15.4682 24.6909 15.4682C25.8187 15.4682 26.6914 14.8773 27.1485 13.8043C27.2389 13.592 27.4477 13.4549 27.6803 13.4549H29.0754C29.3567 13.4549 29.5847 13.2269 29.5847 12.9456C29.5847 12.6643 29.3566 12.4363 29.0754 12.4363H27.6803C27.0387 12.4363 26.4621 12.8166 26.2114 13.4052C25.9161 14.0982 25.4046 14.4496 24.6909 14.4496C24.0809 14.4496 23.7468 14.2472 23.5739 14.0773C23.2691 13.7778 22.8691 13.6129 22.4477 13.6129H20.875V14.6314Z" fill="#5B5555"/>
<path d="M28.2995 15.0451C28.1307 15.0451 27.9939 14.9083 27.9939 14.7395L27.9939 12.1533C27.9939 11.9846 28.1308 11.8478 28.2995 11.8478C28.4683 11.8478 28.6051 11.9846 28.6051 12.1533L28.605 14.7395C28.6051 14.9083 28.4682 15.0451 28.2995 15.0451Z" fill="#FFD597"/>
<path d="M21.8864 30.1714H19.8635L20.3576 12.4218H21.3923L21.8864 30.1714Z" fill="#FCB44D"/>
<path d="M21.4319 13.8393C21.2583 13.9036 21.0704 13.9387 20.8749 13.9387C20.6793 13.9387 20.4915 13.9036 20.3179 13.8393L20.3574 12.4218H21.3923L21.4319 13.8393Z" fill="#FB9927"/>
<path d="M20.0324 24.1041L19.9863 25.758H21.7634L21.7174 24.1041H20.0324Z" fill="#FB9927"/>
<path d="M15.5293 24.5135C15.3934 24.5135 15.2694 24.4222 15.2338 24.2846L13.4504 17.4081L11.6671 24.2846C11.6248 24.448 11.458 24.546 11.2946 24.5037C11.1313 24.4613 11.0331 24.2945 11.0755 24.1312L13.1546 16.114C13.1896 15.9793 13.3112 15.8851 13.4504 15.8851C13.5897 15.8851 13.7113 15.9792 13.7462 16.114L15.8254 24.1312C15.8677 24.2945 15.7696 24.4613 15.6063 24.5037C15.5805 24.5103 15.5547 24.5135 15.5293 24.5135Z" fill="#FFD597"/>
<path d="M14.433 26.4074H12.468C11.5191 26.4074 10.75 25.6382 10.75 24.6895V24.4916C10.75 24.2225 10.9682 24.0043 11.2373 24.0043H15.6636C15.9327 24.0043 16.1509 24.2225 16.1509 24.4916V24.6895C16.1509 25.6382 15.3818 26.4074 14.433 26.4074Z" fill="#FCB44D"/>
<path d="M16.149 24.7725C16.1388 24.9892 16.0883 25.1954 16.0051 25.3836H10.8958C10.8127 25.1954 10.7622 24.9892 10.752 24.7725H16.149Z" fill="#FB9927"/>
<path d="M16.151 24.4915V24.6889C16.151 25.6377 15.382 26.4072 14.4331 26.4072H13.0598C14.0087 26.4072 14.7777 25.6377 14.7777 24.6889V24.4915C14.7777 24.222 14.5594 24.0042 14.2904 24.0042H15.6637C15.9327 24.0042 16.151 24.222 16.151 24.4915Z" fill="#FB9927"/>
<path d="M13.4506 16.1906C13.8738 16.1906 14.2168 15.8475 14.2168 15.4243C14.2168 15.0011 13.8738 14.6581 13.4506 14.6581C13.0274 14.6581 12.6843 15.0011 12.6843 15.4243C12.6843 15.8475 13.0274 16.1906 13.4506 16.1906Z" fill="#FCB44D"/>
<path d="M14.2166 15.4243C14.2166 15.8476 13.8735 16.1907 13.4503 16.1907C13.2828 16.1907 13.1283 16.1369 13.0022 16.046C13.2668 15.9253 13.4503 15.6583 13.4503 15.3487C13.4503 15.0928 13.325 14.8663 13.1324 14.7274C13.2291 14.6828 13.337 14.658 13.4503 14.658C13.8735 14.658 14.2166 15.0011 14.2166 15.4243Z" fill="#FB9927"/>
<path d="M30.3784 24.5135C30.2425 24.5135 30.1186 24.4222 30.0828 24.2846L28.2995 17.408L26.5162 24.2846C26.4739 24.448 26.3073 24.546 26.1437 24.5037C25.9804 24.4613 25.8823 24.2945 25.9247 24.1312L28.0037 16.114C28.0387 15.9793 28.1603 15.8851 28.2995 15.8851C28.4388 15.8851 28.5604 15.9792 28.5953 16.114L30.6744 24.1312C30.7168 24.2945 30.6188 24.4613 30.4554 24.5037C30.4296 24.5103 30.4038 24.5135 30.3784 24.5135Z" fill="#FFD597"/>
<path d="M29.2821 26.4074H27.3171C26.3683 26.4074 25.5991 25.6383 25.5991 24.6895V24.4916C25.5991 24.2225 25.8173 24.0043 26.0865 24.0043H30.5127C30.7818 24.0043 31 24.2225 31 24.4916V24.6895C31 25.6382 30.2309 26.4074 29.2821 26.4074Z" fill="#FCB44D"/>
<path d="M30.9979 24.7725C30.9876 24.9892 30.9371 25.1954 30.854 25.3836H25.7447C25.6615 25.1954 25.611 24.9892 25.6008 24.7725H30.9979Z" fill="#FB9927"/>
<path d="M31.0001 24.4915V24.6889C31.0001 25.6377 30.2311 26.4072 29.2823 26.4072H27.9089C28.8578 26.4072 29.6268 25.6377 29.6268 24.6889V24.4915C29.6268 24.222 29.4085 24.0042 29.1395 24.0042H30.5128C30.7818 24.0042 31.0001 24.222 31.0001 24.4915Z" fill="#FB9927"/>
<path d="M16.1491 24.7726C16.1389 24.9894 16.0884 25.1955 16.0052 25.3838H14.6313C14.7149 25.1955 14.7654 24.9894 14.7756 24.7726H16.1491Z" fill="#F98824"/>
<path d="M30.998 24.7726C30.9878 24.9894 30.9373 25.1955 30.8541 25.3838H29.4802C29.5638 25.1955 29.6143 24.9894 29.6245 24.7726H30.998Z" fill="#F98824"/>
<path d="M28.2995 16.1906C28.7227 16.1906 29.0657 15.8475 29.0657 15.4243C29.0657 15.0011 28.7227 14.6581 28.2995 14.6581C27.8763 14.6581 27.5332 15.0011 27.5332 15.4243C27.5332 15.8475 27.8763 16.1906 28.2995 16.1906Z" fill="#FCB44D"/>
<path d="M29.066 15.4243C29.066 15.8476 28.7229 16.1907 28.2996 16.1907C28.1322 16.1907 27.9777 16.1369 27.8516 16.046C28.1161 15.9253 28.2996 15.6583 28.2996 15.3487C28.2996 15.0928 28.1744 14.8663 27.9818 14.7274C28.0785 14.6828 28.1864 14.658 28.2996 14.658C28.7229 14.658 29.066 15.0011 29.066 15.4243Z" fill="#FB9927"/>
<path d="M20.8749 24.0518C21.6107 24.0518 22.2071 23.4554 22.2071 22.7196C22.2071 21.9839 21.6107 21.3875 20.8749 21.3875C20.1392 21.3875 19.5427 21.9839 19.5427 22.7196C19.5427 23.4554 20.1392 24.0518 20.8749 24.0518Z" fill="#FB9927"/>
<path d="M22.2074 22.7196C22.2074 23.4555 21.6109 24.052 20.875 24.052C20.6962 24.052 20.5255 24.0166 20.3694 23.9526C20.8542 23.7533 21.1957 23.2762 21.1957 22.7196C21.1957 22.1631 20.8542 21.6864 20.3694 21.4871C20.5255 21.4232 20.6962 21.3877 20.875 21.3877C21.6109 21.3877 22.2074 21.9842 22.2074 22.7196Z" fill="#F98824"/>
<path d="M20.875 13.1441C21.4221 13.1441 21.8657 12.7006 21.8657 12.1534C21.8657 11.6063 21.4221 11.1627 20.875 11.1627C20.3278 11.1627 19.8843 11.6063 19.8843 12.1534C19.8843 12.7006 20.3278 13.1441 20.875 13.1441Z" fill="#FFD597"/>
<path d="M21.8657 12.1536C21.8657 12.7007 21.4219 13.144 20.8748 13.144C20.7192 13.144 20.5723 13.1084 20.4412 13.0443C20.7706 12.8832 20.9979 12.5451 20.9979 12.1536C20.9979 11.7622 20.7706 11.4236 20.4412 11.2624C20.5724 11.1983 20.7193 11.1627 20.8748 11.1627C21.4219 11.1627 21.8657 11.606 21.8657 12.1536Z" fill="#FCC16D"/>
<path d="M24.9292 29.3299H16.8208V28.2667C16.8208 27.9292 17.0944 27.6555 17.432 27.6555H24.318C24.6555 27.6555 24.9292 27.9291 24.9292 28.2667V29.3299Z" fill="#756F6F"/>
<path d="M24.9288 28.2667V29.3297H23.9176V28.2667C23.9176 27.9289 23.6438 27.6555 23.3064 27.6555H24.3177C24.6555 27.6555 24.9288 27.9289 24.9288 28.2667Z" fill="#5B5555"/>
<path d="M26.2629 30.4622H15.487C15.262 30.4622 15.0796 30.2798 15.0796 30.0547V29.3941C15.0796 29.1691 15.262 28.9867 15.487 28.9867H26.2629C26.4879 28.9867 26.6703 29.1691 26.6703 29.3941V30.0547C26.6703 30.2798 26.4879 30.4622 26.2629 30.4622Z" fill="#FFD597"/>
<path d="M26.6708 29.3943V30.0547C26.6708 30.2797 26.4883 30.4622 26.2634 30.4622H25.2517C25.477 30.4622 25.6592 30.2797 25.6592 30.0547V29.3943C25.6592 29.1689 25.477 28.9868 25.2517 28.9868H26.2634C26.4883 28.9868 26.6708 29.1689 26.6708 29.3943Z" fill="#FCC16D"/>
<path d="M22.2839 24.8608H19.4663C19.2412 24.8608 19.0588 24.6784 19.0588 24.4534V23.9309C19.0588 23.7058 19.2412 23.5234 19.4663 23.5234H22.2839C22.509 23.5234 22.6914 23.7058 22.6914 23.9309V24.4534C22.6913 24.6784 22.5089 24.8608 22.2839 24.8608Z" fill="#FFD597"/>
<path d="M22.6913 23.9309V24.4532C22.6913 24.6782 22.5088 24.8607 22.2839 24.8607H21.2722C21.4975 24.8607 21.6797 24.6782 21.6797 24.4532V23.9309C21.6797 23.706 21.4975 23.5234 21.2722 23.5234H22.2839C22.5088 23.5234 22.6913 23.706 22.6913 23.9309Z" fill="#FCC16D"/>
</svg>
