<svg width="511" height="511" viewBox="0 0 511 511" fill="none" xmlns="http://www.w3.org/2000/svg">
<g opacity="0.08">
<g clip-path="url(#clip0_326_9442)">
<path opacity="0.0526316" d="M59.0385 398.551C70.3784 413.637 106.622 438.883 160.877 419.172C228.695 394.534 254.925 329.224 315.454 295.361C360.129 270.366 480.173 232.849 549.2 274.306" stroke="url(#paint0_linear_326_9442)" stroke-width="3"/>
<path opacity="0.105263" d="M47.8529 366.922C57.5537 383.112 90.9598 412.008 146.978 398.076C217 380.662 249.913 318.452 313.65 291.1C360.693 270.913 484 246.149 548.316 294.594" stroke="url(#paint1_linear_326_9442)" stroke-width="3"/>
<path opacity="0.157895" d="M39.403 334.868C47.3584 351.983 77.561 384.213 134.728 376.213C206.188 366.213 245.422 307.784 311.669 287.245C360.565 272.086 485.786 260.346 544.685 315.249" stroke="url(#paint2_linear_326_9442)" stroke-width="3"/>
<path opacity="0.210526" d="M33.7178 302.675C39.8406 320.527 66.5088 355.738 124.199 353.757C196.312 351.282 241.44 297.274 309.471 283.772C359.683 273.807 485.445 275.221 538.282 335.98" stroke="url(#paint3_linear_326_9442)" stroke-width="3"/>
<path opacity="0.263158" d="M30.7962 270.633C35.0193 289.028 57.861 326.832 115.442 330.893C187.419 335.969 237.945 286.974 307.014 280.658C357.993 275.995 482.918 290.548 529.115 356.497" stroke="url(#paint4_linear_326_9442)" stroke-width="3"/>
<path opacity="0.315789" d="M30.608 239.031C32.8852 257.766 51.6501 297.751 108.492 307.809C179.543 320.381 234.913 276.936 304.265 277.873C355.452 278.565 478.172 306.096 517.222 376.513" stroke="url(#paint5_linear_326_9442)" stroke-width="3"/>
<path opacity="0.368421" d="M33.0923 208.151C33.3987 227.021 47.8812 268.749 103.36 284.693C172.708 304.623 232.316 267.204 301.19 275.385C352.024 281.424 471.194 321.632 502.67 395.744" stroke="url(#paint6_linear_326_9442)" stroke-width="3"/>
<path opacity="0.421053" d="M38.1583 178.269C36.4905 197.069 46.5319 240.082 100.04 261.738C166.925 288.807 230.118 257.824 297.76 273.16C347.684 284.479 461.998 336.923 485.555 413.92" stroke="url(#paint7_linear_326_9442)" stroke-width="3"/>
<path opacity="0.473684" d="M45.6877 149.65C42.0639 168.172 47.5542 211.999 98.5057 239.129C162.195 273.042 228.28 248.834 293.948 271.156C342.416 287.632 450.622 351.738 466.001 430.775" stroke="url(#paint8_linear_326_9442)" stroke-width="3"/>
<path opacity="0.526316" d="M55.5355 122.544C49.9954 140.586 50.8745 184.747 98.711 217.054C158.507 257.439 226.76 240.271 289.735 269.335C336.215 290.787 437.127 365.852 444.161 446.064" stroke="url(#paint9_linear_326_9442)" stroke-width="3"/>
<path opacity="0.578947" d="M67.5303 97.1844C60.1347 114.548 56.3929 158.559 100.59 195.69C155.837 242.103 225.512 232.164 285.103 267.652C329.086 293.844 421.599 379.046 420.209 459.554" stroke="url(#paint10_linear_326_9442)" stroke-width="3"/>
<path opacity="0.631579" d="M81.4782 73.7871C72.3081 90.2829 63.9864 133.661 104.06 175.209C154.153 227.143 224.485 224.541 280.04 266.063C321.045 296.71 404.145 391.115 394.347 471.037" stroke="url(#paint11_linear_326_9442)" stroke-width="3"/>
<path opacity="0.684211" d="M97.1629 52.5456C86.3187 67.9925 73.5083 110.264 109.02 155.772C153.41 212.658 223.628 217.422 274.539 264.524C312.115 299.289 384.892 401.863 366.794 480.323" stroke="url(#paint12_linear_326_9442)" stroke-width="3"/>
<path opacity="0.736842" d="M114.35 33.6287C101.951 47.8575 84.7919 88.5579 115.352 137.529C153.552 198.743 222.888 210.821 268.597 262.986C302.333 301.489 363.989 411.109 337.789 487.247" stroke="url(#paint13_linear_326_9442)" stroke-width="3"/>
<path opacity="0.789474" d="M132.788 17.1815C118.969 30.0363 97.6503 68.7202 122.924 120.618C154.517 185.489 222.21 204.748 262.215 261.406C291.742 303.224 341.602 418.688 307.587 491.67" stroke="url(#paint14_linear_326_9442)" stroke-width="3"/>
<path opacity="0.842105" d="M152.212 3.32076C137.125 14.6606 111.88 50.9041 131.59 105.159C156.229 172.978 221.538 199.207 255.402 259.736C280.396 304.411 317.914 424.455 276.456 493.482" stroke="url(#paint15_linear_326_9442)" stroke-width="3"/>
<path opacity="0.894737" d="M172.347 -7.86483C156.158 1.83594 127.262 35.242 141.193 91.26C158.608 161.283 220.818 194.195 248.169 257.932C268.357 304.975 293.121 428.283 244.675 492.598" stroke="url(#paint16_linear_326_9442)" stroke-width="3"/>
<path opacity="0.947368" d="M192.908 -16.3147C175.793 -8.35937 143.563 21.8432 151.563 79.0106C161.563 150.47 219.992 189.705 240.531 255.952C255.69 304.847 267.43 430.068 212.527 488.967" stroke="url(#paint17_linear_326_9442)" stroke-width="3"/>
<path d="M213.608 -22C195.755 -15.8772 160.545 10.791 162.525 68.4814C165.001 140.594 219.009 185.722 232.511 253.753C242.476 303.965 241.062 429.727 180.303 482.564" stroke="url(#paint18_linear_326_9442)" stroke-width="3"/>
</g>
</g>
<defs>
<linearGradient id="paint0_linear_326_9442" x1="138.827" y1="350.841" x2="162.08" y2="419.216" gradientUnits="userSpaceOnUse">
<stop stop-color="#CC966A"/>
<stop offset="1" stop-color="#D39A6B"/>
</linearGradient>
<linearGradient id="paint1_linear_326_9442" x1="132.191" y1="327.814" x2="148.17" y2="398.245" gradientUnits="userSpaceOnUse">
<stop stop-color="#CC966A"/>
<stop offset="1" stop-color="#D39A6B"/>
</linearGradient>
<linearGradient id="paint2_linear_326_9442" x1="127.367" y1="304.79" x2="135.896" y2="376.506" gradientUnits="userSpaceOnUse">
<stop stop-color="#CC966A"/>
<stop offset="1" stop-color="#D39A6B"/>
</linearGradient>
<linearGradient id="paint3_linear_326_9442" x1="124.344" y1="281.956" x2="125.33" y2="354.17" gradientUnits="userSpaceOnUse">
<stop stop-color="#CC966A"/>
<stop offset="1" stop-color="#D39A6B"/>
</linearGradient>
<linearGradient id="paint4_linear_326_9442" x1="123.092" y1="259.501" x2="116.524" y2="331.422" gradientUnits="userSpaceOnUse">
<stop stop-color="#CC966A"/>
<stop offset="1" stop-color="#D39A6B"/>
</linearGradient>
<linearGradient id="paint5_linear_326_9442" x1="123.562" y1="237.607" x2="109.512" y2="308.448" gradientUnits="userSpaceOnUse">
<stop stop-color="#CC966A"/>
<stop offset="1" stop-color="#D39A6B"/>
</linearGradient>
<linearGradient id="paint6_linear_326_9442" x1="125.686" y1="216.451" x2="104.308" y2="285.435" gradientUnits="userSpaceOnUse">
<stop stop-color="#CC966A"/>
<stop offset="1" stop-color="#D39A6B"/>
</linearGradient>
<linearGradient id="paint7_linear_326_9442" x1="129.377" y1="196.203" x2="100.905" y2="262.575" gradientUnits="userSpaceOnUse">
<stop stop-color="#CC966A"/>
<stop offset="1" stop-color="#D39A6B"/>
</linearGradient>
<linearGradient id="paint8_linear_326_9442" x1="134.532" y1="177.021" x2="99.2784" y2="240.052" gradientUnits="userSpaceOnUse">
<stop stop-color="#CC966A"/>
<stop offset="1" stop-color="#D39A6B"/>
</linearGradient>
<linearGradient id="paint9_linear_326_9442" x1="141.032" y1="159.052" x2="99.3829" y2="218.053" gradientUnits="userSpaceOnUse">
<stop stop-color="#CC966A"/>
<stop offset="1" stop-color="#D39A6B"/>
</linearGradient>
<linearGradient id="paint10_linear_326_9442" x1="148.742" y1="142.429" x2="101.154" y2="196.753" gradientUnits="userSpaceOnUse">
<stop stop-color="#CC966A"/>
<stop offset="1" stop-color="#D39A6B"/>
</linearGradient>
<linearGradient id="paint11_linear_326_9442" x1="157.516" y1="127.272" x2="104.51" y2="176.325" gradientUnits="userSpaceOnUse">
<stop stop-color="#CC966A"/>
<stop offset="1" stop-color="#D39A6B"/>
</linearGradient>
<linearGradient id="paint12_linear_326_9442" x1="167.193" y1="113.686" x2="109.35" y2="156.93" gradientUnits="userSpaceOnUse">
<stop stop-color="#CC966A"/>
<stop offset="1" stop-color="#D39A6B"/>
</linearGradient>
<linearGradient id="paint13_linear_326_9442" x1="177.606" y1="101.754" x2="115.56" y2="138.715" gradientUnits="userSpaceOnUse">
<stop stop-color="#CC966A"/>
<stop offset="1" stop-color="#D39A6B"/>
</linearGradient>
<linearGradient id="paint14_linear_326_9442" x1="188.576" y1="91.546" x2="123.007" y2="121.818" gradientUnits="userSpaceOnUse">
<stop stop-color="#CC966A"/>
<stop offset="1" stop-color="#D39A6B"/>
</linearGradient>
<linearGradient id="paint15_linear_326_9442" x1="199.922" y1="83.1093" x2="131.547" y2="106.362" gradientUnits="userSpaceOnUse">
<stop stop-color="#CC966A"/>
<stop offset="1" stop-color="#D39A6B"/>
</linearGradient>
<linearGradient id="paint16_linear_326_9442" x1="211.455" y1="76.4736" x2="141.024" y2="92.4518" gradientUnits="userSpaceOnUse">
<stop stop-color="#CC966A"/>
<stop offset="1" stop-color="#D39A6B"/>
</linearGradient>
<linearGradient id="paint17_linear_326_9442" x1="222.986" y1="71.6496" x2="151.27" y2="80.1782" gradientUnits="userSpaceOnUse">
<stop stop-color="#CC966A"/>
<stop offset="1" stop-color="#D39A6B"/>
</linearGradient>
<linearGradient id="paint18_linear_326_9442" x1="234.326" y1="68.6264" x2="162.112" y2="69.6121" gradientUnits="userSpaceOnUse">
<stop stop-color="#CC966A"/>
<stop offset="1" stop-color="#D39A6B"/>
</linearGradient>
<clipPath id="clip0_326_9442">
<rect width="511" height="511" rx="252" fill="white"/>
</clipPath>
</defs>
</svg>
