<svg width="290" height="262" viewBox="0 0 290 262" fill="none" xmlns="http://www.w3.org/2000/svg">
<path d="M20.6367 102.133C22.1706 130.388 23.5833 149.602 24.875 159.773C27.0547 177.695 33.7956 186.818 45.0977 187.141C46.3086 187.383 46.9948 188.311 47.1562 189.926C47.1562 193.559 46.2279 196.384 44.3711 198.402C42.5951 200.34 41.3034 201.349 40.4961 201.43C31.7773 201.188 25.6016 196.546 21.9688 187.504C19.0625 180.238 16.2773 156.181 13.6133 115.332C10.5456 68.7513 6.1862 36.0156 0.535156 17.125C1.50391 14.2188 2.59375 10.9896 3.80469 7.4375C5.09635 3.80469 5.90365 1.50391 6.22656 0.535156C13.4115 26.6107 18.2148 60.4766 20.6367 102.133ZM76.3398 164.613C76.0169 167.439 75.8151 169.296 75.7344 170.184C75.8958 180.921 80.5378 186.329 89.6602 186.41C91.194 186.652 91.9609 188.469 91.9609 191.859C91.9609 195.089 90.6289 197.712 87.9648 199.73C86.9154 200.457 85.9466 200.82 85.0586 200.82C77.3893 200.255 72.5859 196.38 70.6484 189.195C70.2448 187.661 70.043 185.845 70.043 183.746C70.043 181.566 70.1237 180.033 70.2852 179.145C69.8815 179.467 68.9531 180.678 67.5 182.777C59.1042 194.967 50.2643 201.062 40.9805 201.062H40.7383C39.3659 200.74 38.6797 198.964 38.6797 195.734C38.6797 192.667 40.0924 190.003 42.918 187.742C43.806 187.096 44.6133 186.733 45.3398 186.652C54.3008 186.41 62.2122 181.607 69.0742 172.242C72.7878 167.318 75.1289 164.613 76.0977 164.129L76.3398 164.613ZM77.3086 137.246L68.7109 149.719L53.6953 138.578L62.5352 126.348L77.3086 137.246ZM110.609 176.754C106.492 192.9 98.0156 200.973 85.1797 200.973C83.888 200.488 83.1211 199.358 82.8789 197.582C82.8789 192.9 84.2917 189.671 87.1172 187.895C88.2474 187.087 89.0951 186.643 89.6602 186.562C97.2487 185.594 102.779 182.607 106.25 177.602V176.027C106.169 163.999 103.788 148.983 99.1055 130.98L103.586 115.48C104.555 117.902 105.241 119.557 105.645 120.445C108.389 127.388 110.771 138.448 112.789 153.625C114.969 169.044 117.552 178.167 120.539 180.992C123.688 184.06 127.805 185.634 132.891 185.715C133.859 185.796 134.424 187.451 134.586 190.68C134.667 193.586 133.415 196.331 130.832 198.914C130.025 199.721 129.217 200.085 128.41 200.004C123.728 199.842 119.812 197.663 116.664 193.465C113.596 189.186 111.578 183.616 110.609 176.754ZM98.2578 95.1367L89.6602 107.367L74.6445 96.2266L83.2422 83.875L98.0156 94.6523L106.613 82.6641L121.387 93.4414L112.789 105.914L98.2578 95.1367ZM157.715 170.816C157.392 178.405 155.616 184.621 152.387 189.465C147.866 195.439 139.954 198.829 128.652 199.637C127.199 199.152 126.392 197.941 126.23 196.004C126.23 192.129 127.684 188.9 130.59 186.316C131.559 185.59 132.406 185.227 133.133 185.227C141.367 184.984 147.664 182.643 152.023 178.203C152.75 177.396 153.315 176.589 153.719 175.781C152.266 170.211 149.077 164.439 144.152 158.465L147.18 142.723C154.042 152.572 157.553 161.573 157.715 169.727V170.816ZM170.188 220.223L161.348 232.574L146.816 221.797L138.461 234.148L123.445 223.129L132.043 210.535L146.816 221.312L155.172 209.082L170.188 220.223ZM214.508 199.855C214.346 199.452 214.023 199.008 213.539 198.523C210.31 195.294 206.354 193.639 201.672 193.559L191.137 193.801C181.853 193.882 176.848 189.643 176.121 181.086V179.391C176.686 171.802 179.512 165.747 184.598 161.227C187.262 158.885 190.007 157.715 192.832 157.715C196.707 157.715 200.501 159.491 204.215 163.043C213.66 172.004 218.383 183.185 218.383 196.586C218.383 200.865 217.616 205.305 216.082 209.906C214.225 214.831 208.413 221.652 198.645 230.371C184.921 242.561 171.197 250.715 157.473 254.832C153.921 255.882 150.167 256.406 146.211 256.406C133.375 256.406 124.333 251.522 119.086 241.754C116.018 236.022 114.525 228.878 114.605 220.32C114.605 211.844 116.503 202.883 120.297 193.438C120.62 192.63 121.023 191.742 121.508 190.773C122.154 189.643 122.678 189.28 123.082 189.684C123.163 189.764 123.243 190.007 123.324 190.41C123.324 191.54 122.759 193.962 121.629 197.676C120.176 202.52 119.328 207 119.086 211.117V212.934C119.086 223.59 122.154 231.219 128.289 235.82C132.971 239.372 138.986 241.148 146.332 241.148C161.913 241.148 179.714 232.591 199.734 215.477C206.435 209.745 211.359 204.538 214.508 199.855ZM206.879 121.629L204.941 126.836L179.996 137.613L182.176 132.043C183.467 131.397 185.607 130.428 188.594 129.137C185.607 128.087 183.992 126.432 183.75 124.172C183.911 121.992 185.243 119.409 187.746 116.422C190.249 113.354 192.671 111.578 195.012 111.094H195.617C197.474 111.417 198.443 112.426 198.523 114.121L196.949 120.781L195.738 118.359C194.85 117.633 193.962 117.27 193.074 117.27C191.46 117.27 189.643 118.279 187.625 120.297C188.513 123.365 191.096 124.939 195.375 125.02C197.555 124.939 199.775 124.454 202.035 123.566C204.296 122.598 205.91 121.952 206.879 121.629ZM191.984 180.117L200.219 179.875H201.914C196.747 175.435 192.792 173.174 190.047 173.094H189.926C187.1 173.174 184.84 174.466 183.145 176.969C184.678 179.068 187.625 180.117 191.984 180.117ZM274.691 146.574C275.499 148.27 278.082 152.467 282.441 159.168C286.882 165.788 289.102 173.013 289.102 180.844C289.102 188.594 287.931 194.527 285.59 198.645C276.548 211.48 250.997 229.079 208.938 251.441C184.073 257.819 166.918 261.331 157.473 261.977C156.342 261.896 155.737 261.734 155.656 261.492C213.378 236.628 253.944 214.064 277.355 193.801C280.423 191.056 282.926 188.594 284.863 186.414C283.733 182.539 280.342 176.04 274.691 166.918C269.121 157.796 265.609 149.844 264.156 143.062L261.371 140.52L266.336 125.141C267.789 127.078 270.493 130.348 274.449 134.949C278.486 139.47 281.311 142.659 282.926 144.516C284.54 146.372 285.146 147.462 284.742 147.785C284.339 148.108 283.693 148.108 282.805 147.785H282.441C281.876 147.624 279.898 146.857 276.508 145.484L274.934 145.727L274.691 146.574Z" fill="#CDAD92"/>
</svg>
